<svg xmlns="http://www.w3.org/2000/svg" xmlns:xlink="http://www.w3.org/1999/xlink" contentStyleType="text/css" height="733px" preserveAspectRatio="none" style="width:1103px;height:733px;background:#FFFFFF;" version="1.1" viewBox="0 0 1103 733" width="1103px" zoomAndPan="magnify"><title>File Upload Flow Sequence Diagram</title><defs/><g><text fill="#000000" font-family="Avenir" font-size="14" font-weight="bold" lengthAdjust="spacing" textLength="228.452" x="433.6345" y="29">File Upload Flow Sequence Diagram</text><rect fill="#FFE599" height="193.816" style="stroke:#1D4776;stroke-width:1.0;" width="10" x="636.097" y="311.868"/><line style="stroke:#1D4776;stroke-width:0.5;stroke-dasharray:5.0,5.0;" x1="173" x2="173" y1="124.248" y2="632.474"/><line style="stroke:#1D4776;stroke-width:0.5;stroke-dasharray:5.0,5.0;" x1="305.654" x2="305.654" y1="124.248" y2="632.474"/><line style="stroke:#1D4776;stroke-width:0.5;stroke-dasharray:5.0,5.0;" x1="479.372" x2="479.372" y1="124.248" y2="632.474"/><line style="stroke:#1D4776;stroke-width:0.5;stroke-dasharray:5.0,5.0;" x1="640.748" x2="640.748" y1="124.248" y2="632.474"/><line style="stroke:#1D4776;stroke-width:0.5;stroke-dasharray:5.0,5.0;" x1="908.9699" x2="908.9699" y1="124.248" y2="632.474"/><text fill="#002851" font-family="Avenir" font-size="14" font-weight="bold" lengthAdjust="spacing" textLength="108.654" x="116" y="119.124">Boundary System</text><ellipse cx="173.327" cy="53.624" fill="#FFE599" rx="8" ry="8" style="stroke:#033266;stroke-width:0.5;"/><path d="M173.327,61.624 L173.327,88.624 M160.327,69.624 L186.327,69.624 M173.327,88.624 L160.327,103.624 M173.327,88.624 L186.327,103.624 " fill="none" style="stroke:#033266;stroke-width:0.5;"/><text fill="#002851" font-family="Avenir" font-size="14" font-weight="bold" lengthAdjust="spacing" textLength="108.654" x="116" y="645.474">Boundary System</text><ellipse cx="173.327" cy="659.098" fill="#FFE599" rx="8" ry="8" style="stroke:#033266;stroke-width:0.5;"/><path d="M173.327,667.098 L173.327,694.098 M160.327,675.098 L186.327,675.098 M173.327,694.098 L160.327,709.098 M173.327,694.098 L186.327,709.098 " fill="none" style="stroke:#033266;stroke-width:0.5;"/><text fill="#002851" font-family="Avenir" font-size="14" font-weight="bold" lengthAdjust="spacing" textLength="124.726" x="240.654" y="119.124">GoAnywhere Server</text><ellipse cx="306.017" cy="89.124" fill="#FFE599" rx="12" ry="12" style="stroke:#000000;stroke-width:0.5;"/><polygon fill="#000000" points="302.017,77.124,308.017,72.124,306.017,77.124,308.017,82.124,302.017,77.124" style="stroke:#000000;stroke-width:1.0;"/><text fill="#002851" font-family="Avenir" font-size="14" font-weight="bold" lengthAdjust="spacing" textLength="124.726" x="240.654" y="645.474">GoAnywhere Server</text><ellipse cx="306.017" cy="666.598" fill="#FFE599" rx="12" ry="12" style="stroke:#000000;stroke-width:0.5;"/><polygon fill="#000000" points="302.017,654.598,308.017,649.598,306.017,654.598,308.017,659.598,302.017,654.598" style="stroke:#000000;stroke-width:1.0;"/><path d="M431.372,95.124 L528.522,95.124 C533.522,95.124 533.522,109.686 533.522,109.686 C533.522,109.686 533.522,124.248 528.522,124.248 L431.372,124.248 C426.372,124.248 426.372,109.686 426.372,109.686 C426.372,109.686 426.372,95.124 431.372,95.124 " fill="#FFE599" style="stroke:#000000;stroke-width:0.5;"/><path d="M528.522,95.124 C523.522,95.124 523.522,109.686 523.522,109.686 C523.522,124.248 528.522,124.248 528.522,124.248 " fill="none" style="stroke:#000000;stroke-width:0.5;"/><text fill="#002851" font-family="Avenir" font-size="14" font-weight="bold" lengthAdjust="spacing" textLength="87.15" x="431.372" y="114.124">Action Queue</text><path d="M431.372,631.474 L528.522,631.474 C533.522,631.474 533.522,646.036 533.522,646.036 C533.522,646.036 533.522,660.598 528.522,660.598 L431.372,660.598 C426.372,660.598 426.372,646.036 426.372,646.036 C426.372,646.036 426.372,631.474 431.372,631.474 " fill="#FFE599" style="stroke:#000000;stroke-width:0.5;"/><path d="M528.522,631.474 C523.522,631.474 523.522,646.036 523.522,646.036 C523.522,660.598 528.522,660.598 528.522,660.598 " fill="none" style="stroke:#000000;stroke-width:0.5;"/><text fill="#002851" font-family="Avenir" font-size="14" font-weight="bold" lengthAdjust="spacing" textLength="87.15" x="431.372" y="650.474">Action Queue</text><text fill="#002851" font-family="Avenir" font-size="14" font-weight="bold" lengthAdjust="spacing" textLength="110.698" x="582.748" y="119.124">Action Processors</text><ellipse cx="641.097" cy="89.124" fill="#FFE599" rx="12" ry="12" style="stroke:#000000;stroke-width:0.5;"/><polygon fill="#000000" points="637.097,77.124,643.097,72.124,641.097,77.124,643.097,82.124,637.097,77.124" style="stroke:#000000;stroke-width:1.0;"/><text fill="#002851" font-family="Avenir" font-size="14" font-weight="bold" lengthAdjust="spacing" textLength="110.698" x="582.748" y="645.474">Action Processors</text><ellipse cx="641.097" cy="666.598" fill="#FFE599" rx="12" ry="12" style="stroke:#000000;stroke-width:0.5;"/><polygon fill="#000000" points="637.097,654.598,643.097,649.598,641.097,654.598,643.097,659.598,637.097,654.598" style="stroke:#000000;stroke-width:1.0;"/><text fill="#002851" font-family="Avenir" font-size="14" font-weight="bold" lengthAdjust="spacing" textLength="70.014" x="870.9699" y="119.124">Oracle ERP</text><ellipse cx="908.9769" cy="89.124" fill="#FFE599" rx="12" ry="12" style="stroke:#000000;stroke-width:0.5;"/><line style="stroke:#000000;stroke-width:0.5;" x1="896.9769" x2="920.9769" y1="103.124" y2="103.124"/><text fill="#002851" font-family="Avenir" font-size="14" font-weight="bold" lengthAdjust="spacing" textLength="70.014" x="870.9699" y="645.474">Oracle ERP</text><ellipse cx="908.9769" cy="666.598" fill="#FFE599" rx="12" ry="12" style="stroke:#000000;stroke-width:0.5;"/><line style="stroke:#000000;stroke-width:0.5;" x1="896.9769" x2="920.9769" y1="680.598" y2="680.598"/><rect fill="#FFE599" height="193.816" style="stroke:#1D4776;stroke-width:1.0;" width="10" x="636.097" y="311.868"/><path d="M5,139.248 L5,184.248 L475,184.248 L475,149.248 L465,139.248 L5,139.248 " fill="#CDD6E0" style="stroke:#1D4776;stroke-width:0.5;"/><path d="M465,139.248 L465,149.248 L475,149.248 L465,139.248 " fill="#CDD6E0" style="stroke:#1D4776;stroke-width:0.5;"/><text fill="#000000" font-family="Avenir" font-size="13" lengthAdjust="spacing" textLength="449.969" x="11" y="157.248">Boundary System Owner has previously been provided with an authentication</text><text fill="#000000" font-family="Avenir" font-size="13" lengthAdjust="spacing" textLength="343.07" x="11" y="175.006">credentials and uses those to authenticate to GoAnywhere.</text><polygon fill="#002851" points="294.017,205.424,304.017,209.424,294.017,213.424,298.017,209.424" style="stroke:#002851;stroke-width:1.0;"/><line style="stroke:#002851;stroke-width:2.0;" x1="173.327" x2="300.017" y1="209.424" y2="209.424"/><text fill="#4C4C4C" font-family="Avenir" font-size="10" font-weight="bold" lengthAdjust="spacing" textLength="11.12" x="180.327" y="203.764">1 :</text><text fill="#4C4C4C" font-family="Avenir" font-size="10" lengthAdjust="spacing" textLength="76.68" x="198.227" y="203.764">SFTP File Upload</text><rect fill="#CDD6E0" height="3" style="stroke:#CDD6E0;stroke-width:1.0;" width="1096.721" x="0" y="239.986"/><line style="stroke:#002851;stroke-width:1.0;" x1="0" x2="1096.721" y1="239.986" y2="239.986"/><line style="stroke:#002851;stroke-width:1.0;" x1="0" x2="1096.721" y1="242.986" y2="242.986"/><rect fill="#CDD6E0" height="27.124" style="stroke:#002851;stroke-width:2.0;" width="111.216" x="492.7525" y="227.424"/><text fill="#000000" font-family="Avenir" font-size="14" font-weight="bold" lengthAdjust="spacing" textLength="93.324" x="498.7525" y="245.424">File Processing</text><polygon fill="#002851" points="467.947,280.208,477.947,284.208,467.947,288.208,471.947,284.208" style="stroke:#002851;stroke-width:1.0;"/><line style="stroke:#002851;stroke-width:2.0;" x1="306.017" x2="473.947" y1="284.208" y2="284.208"/><text fill="#4C4C4C" font-family="Avenir" font-size="10" font-weight="bold" lengthAdjust="spacing" textLength="11.12" x="313.017" y="278.548">2 :</text><text fill="#4C4C4C" font-family="Avenir" font-size="10" lengthAdjust="spacing" textLength="132.03" x="330.917" y="278.548">Pulls pending files into queue</text><polygon fill="#002851" points="624.097,307.868,634.097,311.868,624.097,315.868,628.097,311.868" style="stroke:#002851;stroke-width:1.0;"/><line style="stroke:#002851;stroke-width:2.0;" x1="479.947" x2="630.097" y1="311.868" y2="311.868"/><text fill="#4C4C4C" font-family="Avenir" font-size="10" font-weight="bold" lengthAdjust="spacing" textLength="11.12" x="486.947" y="306.208">3 :</text><text fill="#4C4C4C" font-family="Avenir" font-size="10" lengthAdjust="spacing" textLength="119.25" x="504.847" y="306.208">Processor picks up request</text><path d="M520,324.868 L520,369.868 L760,369.868 L760,334.868 L750,324.868 L520,324.868 " fill="#CDD6E0" style="stroke:#1D4776;stroke-width:0.5;"/><path d="M750,324.868 L750,334.868 L760,334.868 L750,324.868 " fill="#CDD6E0" style="stroke:#1D4776;stroke-width:0.5;"/><ellipse cx="531.5" cy="340.126" fill="#000000" rx="2.5" ry="2.5" style="stroke:#000000;stroke-width:0.0;"/><text fill="#000000" font-family="Avenir" font-size="13" lengthAdjust="spacing" textLength="87.373" x="538" y="342.868">Data validation</text><ellipse cx="531.5" cy="357.884" fill="#000000" rx="2.5" ry="2.5" style="stroke:#000000;stroke-width:0.0;"/><text fill="#000000" font-family="Avenir" font-size="13" lengthAdjust="spacing" textLength="207.259" x="538" y="360.626">Formats Data for submission to ERP</text><polygon fill="#002851" points="896.9769,391.044,906.9769,395.044,896.9769,399.044,900.9769,395.044" style="stroke:#002851;stroke-width:1.0;"/><line style="stroke:#002851;stroke-width:2.0;" x1="646.097" x2="902.9769" y1="395.044" y2="395.044"/><text fill="#4C4C4C" font-family="Avenir" font-size="10" font-weight="bold" lengthAdjust="spacing" textLength="11.12" x="653.097" y="389.384">4 :</text><text fill="#4C4C4C" font-family="Avenir" font-size="10" lengthAdjust="spacing" textLength="220.98" x="670.997" y="389.384">Imports data to ERP and runs ERP Processing Job</text><polygon fill="#002851" points="657.097,418.704,647.097,422.704,657.097,426.704,653.097,422.704" style="stroke:#002851;stroke-width:1.0;"/><line style="stroke:#002851;stroke-width:2.0;stroke-dasharray:2.0,2.0;" x1="651.097" x2="907.9769" y1="422.704" y2="422.704"/><text fill="#4C4C4C" font-family="Avenir" font-size="10" font-weight="bold" lengthAdjust="spacing" textLength="11.12" x="663.097" y="417.044">5 :</text><text fill="#4C4C4C" font-family="Avenir" font-size="10" lengthAdjust="spacing" textLength="124.3" x="680.997" y="417.044">Receives File Import Results</text><polygon fill="#002851" points="896.9769,446.364,906.9769,450.364,896.9769,454.364,900.9769,450.364" style="stroke:#002851;stroke-width:1.0;"/><line style="stroke:#002851;stroke-width:2.0;" x1="646.097" x2="902.9769" y1="450.364" y2="450.364"/><text fill="#4C4C4C" font-family="Avenir" font-size="10" font-weight="bold" lengthAdjust="spacing" textLength="11.12" x="653.097" y="444.704">6 :</text><text fill="#4C4C4C" font-family="Avenir" font-size="10" lengthAdjust="spacing" textLength="117.15" x="670.997" y="444.704">polls for import job results</text><polygon fill="#002851" points="657.097,474.024,647.097,478.024,657.097,482.024,653.097,478.024" style="stroke:#002851;stroke-width:1.0;"/><line style="stroke:#002851;stroke-width:2.0;stroke-dasharray:2.0,2.0;" x1="651.097" x2="907.9769" y1="478.024" y2="478.024"/><text fill="#4C4C4C" font-family="Avenir" font-size="10" font-weight="bold" lengthAdjust="spacing" textLength="11.12" x="663.097" y="472.364">7 :</text><text fill="#4C4C4C" font-family="Avenir" font-size="10" lengthAdjust="spacing" textLength="98.15" x="680.997" y="472.364">sends back job results</text><polygon fill="#002851" points="184.327,501.684,174.327,505.684,184.327,509.684,180.327,505.684" style="stroke:#002851;stroke-width:1.0;"/><line style="stroke:#002851;stroke-width:2.0;" x1="178.327" x2="640.097" y1="505.684" y2="505.684"/><text fill="#4C4C4C" font-family="Avenir" font-size="10" font-weight="bold" lengthAdjust="spacing" textLength="11.12" x="190.327" y="500.024">8 :</text><text fill="#4C4C4C" font-family="Avenir" font-size="10" lengthAdjust="spacing" textLength="120.31" x="208.227" y="500.024">Emails results of file import</text><path d="M726,518.684 L726,616.684 L1091,616.684 L1091,528.684 L1081,518.684 L726,518.684 " fill="#CDD6E0" style="stroke:#1D4776;stroke-width:0.5;"/><path d="M1081,518.684 L1081,528.684 L1091,528.684 L1081,518.684 " fill="#CDD6E0" style="stroke:#1D4776;stroke-width:0.5;"/><text fill="#000000" font-family="Avenir" font-size="13" lengthAdjust="spacing" textLength="314.938" x="732" y="536.684">Depending on configuration, the ERP system may also</text><text fill="#000000" font-family="Avenir" font-size="13" lengthAdjust="spacing" textLength="305.2009" x="732" y="554.442">send feedback on the import as relates to its internal</text><text fill="#000000" font-family="Avenir" font-size="13" lengthAdjust="spacing" textLength="310.5569" x="732" y="572.2">processes.  Issues in validation or file transmission will</text><text fill="#000000" font-family="Avenir" font-size="13" lengthAdjust="spacing" textLength="344.721" x="732" y="589.958">be reported via email to the boundary system owner by the</text><text fill="#000000" font-family="Avenir" font-size="13" lengthAdjust="spacing" textLength="119.574" x="732" y="607.716">integration platform.</text><text fill="#888888" font-family="Avenir" font-size="10" lengthAdjust="spacing" textLength="149.1" x="473.3105" y="721.598">Author: Jonathan Keller 2/2/2022</text><!--SRC=[RLFBRXin3BphArZdbcUROn07I92uI7g8MxVdGhjBswgrqbOF6_lt7MhjU5F41co86f8pG-gJSRND3LEkczynzPOlJMwjKiaaopGp-FdLMQyRcbc_emN_pUngfaUZLq6tgcQNED3IU_cxpsdjmmszUAVJMZlwnjOYVds5x-VhQwLqdNmWV2OFFhj6XvuMVKpSJYH8EjB3GjNUfU0jG5_zlUjtQmwCrc7BOJA0LbuhCCbSIjtNoNX7toKmr1bG6xtSw56rFMuUVCqn-X3trRf3G46DIRtKV0swXlYd7_EtYWNBeLFAGIrvq07RyqA6w3yzzBfpk5-NyhmrFaVRKyNifDtMDDpGpgGrmIKDswHphOKVQjM16mbe6t7VK8uS2TP6fkJ7y78-cdG90Gq9EpYTatUvhK3Y2xwJs-hkv8HkwFQgkfkeXmLTt0bpH1Qpd_Fng9MQJeVptYdZLZITAYLmP1LRaJVF5lmwj1J04WcHZ0EXCXarm81_ivVEpYJjxTYPUXCfTnHahM8Q-NeS2T4fFUgaQQkjQGuEdTBCXrQdEDmjKItcgZKWYmc30mPtDEF807GmGR1uRZiVaDv8-e0lLeViOZcCjB_uIadMnJinD_I3QpPRg2vc3HKHZDcc-57FpejXmjKCs3- -WlO1_r6320MHAbrlta7VbPP9NW3xr6g3wdiC-MMPoBxJo5bPOA97FimDTk65BCqgXsBkEHQjx3t5OP5RtHCMqIDB-D2IkIcKnEZreOEyZS0MAnd5JfFABd1msY9npvZZ9T5pZBbiocYY12s5RWhQnSCOTyPASiMeB3tmPBP64ujIQIBTgyEpsxFrvTbLlLmYLpYi1c7KWHtCRqUlv1y0]--></g></svg>