<?xml version="1.0" encoding="UTF-8" standalone="no"?><svg xmlns="http://www.w3.org/2000/svg" xmlns:xlink="http://www.w3.org/1999/xlink" contentScriptType="application/ecmascript" contentStyleType="text/css" height="757px" preserveAspectRatio="none" style="width:1115px;height:757px;background:#FFFFFF;" version="1.1" viewBox="0 0 1115 757" width="1115px" zoomAndPan="magnify"><defs><filter height="300%" id="f1ro3eg4658598" width="300%" x="-1" y="-1"><feGaussianBlur result="blurOut" stdDeviation="2.0"/><feColorMatrix in="blurOut" result="blurOut2" type="matrix" values="0 0 0 0 0 0 0 0 0 0 0 0 0 0 0 0 0 0 .4 0"/><feOffset dx="4.0" dy="4.0" in="blurOut2" result="blurOut3"/><feBlend in="SourceGraphic" in2="blurOut3" mode="normal"/></filter></defs><g><text fill="#000000" font-family="Avenir" font-size="18" lengthAdjust="spacing" textLength="291" x="408.5" y="30">File Upload Flow Sequence Diagram</text><rect fill="#FFE599" filter="url(#f1ro3eg4658598)" height="197.816" style="stroke:#1D4776;stroke-width:1.0;" width="10" x="643" y="321.332"/><line style="stroke:#1D4776;stroke-width:1.0;stroke-dasharray:5.0,5.0;" x1="172" x2="172" y1="129.712" y2="649.938"/><line style="stroke:#1D4776;stroke-width:1.0;stroke-dasharray:5.0,5.0;" x1="308" x2="308" y1="129.712" y2="649.938"/><line style="stroke:#1D4776;stroke-width:1.0;stroke-dasharray:5.0,5.0;" x1="484.5" x2="484.5" y1="129.712" y2="649.938"/><line style="stroke:#1D4776;stroke-width:1.0;stroke-dasharray:5.0,5.0;" x1="648" x2="648" y1="129.712" y2="649.938"/><line style="stroke:#1D4776;stroke-width:1.0;stroke-dasharray:5.0,5.0;" x1="919" x2="919" y1="129.712" y2="649.938"/><text fill="#002851" font-family="Avenir" font-size="14" font-weight="bold" lengthAdjust="spacing" textLength="111" x="114" y="124.588">Boundary System</text><ellipse cx="172.5" cy="53.588" fill="#FFE599" filter="url(#f1ro3eg4658598)" rx="8" ry="8" style="stroke:#033266;stroke-width:2.0;"/><path d="M172.5,61.588 L172.5,88.588 M159.5,69.588 L185.5,69.588 M172.5,88.588 L159.5,103.588 M172.5,88.588 L185.5,103.588 " fill="none" filter="url(#f1ro3eg4658598)" style="stroke:#033266;stroke-width:2.0;"/><text fill="#002851" font-family="Avenir" font-size="14" font-weight="bold" lengthAdjust="spacing" textLength="111" x="114" y="662.938">Boundary System</text><ellipse cx="172.5" cy="678.062" fill="#FFE599" filter="url(#f1ro3eg4658598)" rx="8" ry="8" style="stroke:#033266;stroke-width:2.0;"/><path d="M172.5,686.062 L172.5,713.062 M159.5,694.062 L185.5,694.062 M172.5,713.062 L159.5,728.062 M172.5,713.062 L185.5,728.062 " fill="none" filter="url(#f1ro3eg4658598)" style="stroke:#033266;stroke-width:2.0;"/><text fill="#002851" font-family="Avenir" font-size="14" font-weight="bold" lengthAdjust="spacing" textLength="128" x="241" y="124.588">GoAnywhere Server</text><ellipse cx="308" cy="94.588" fill="#FFE599" filter="url(#f1ro3eg4658598)" rx="12" ry="12" style="stroke:#000000;stroke-width:2.0;"/><polygon fill="#000000" points="304,82.588,310,77.588,308,82.588,310,87.588,304,82.588" style="stroke:#000000;stroke-width:1.0;"/><text fill="#002851" font-family="Avenir" font-size="14" font-weight="bold" lengthAdjust="spacing" textLength="128" x="241" y="662.938">GoAnywhere Server</text><ellipse cx="308" cy="684.062" fill="#FFE599" filter="url(#f1ro3eg4658598)" rx="12" ry="12" style="stroke:#000000;stroke-width:2.0;"/><polygon fill="#000000" points="304,672.062,310,667.062,308,672.062,310,677.062,304,672.062" style="stroke:#000000;stroke-width:1.0;"/><path d="M435.5,100.588 L534.5,100.588 C539.5,100.588 539.5,115.15 539.5,115.15 C539.5,115.15 539.5,129.712 534.5,129.712 L435.5,129.712 C430.5,129.712 430.5,115.15 430.5,115.15 C430.5,115.15 430.5,100.588 435.5,100.588 " fill="#FFE599" filter="url(#f1ro3eg4658598)" style="stroke:#000000;stroke-width:2.0;"/><path d="M534.5,100.588 C529.5,100.588 529.5,115.15 529.5,115.15 C529.5,129.712 534.5,129.712 534.5,129.712 " fill="none" style="stroke:#000000;stroke-width:2.0;"/><text fill="#002851" font-family="Avenir" font-size="14" font-weight="bold" lengthAdjust="spacing" textLength="89" x="435.5" y="119.588">Action Queue</text><path d="M435.5,648.938 L534.5,648.938 C539.5,648.938 539.5,663.5 539.5,663.5 C539.5,663.5 539.5,678.062 534.5,678.062 L435.5,678.062 C430.5,678.062 430.5,663.5 430.5,663.5 C430.5,663.5 430.5,648.938 435.5,648.938 " fill="#FFE599" filter="url(#f1ro3eg4658598)" style="stroke:#000000;stroke-width:2.0;"/><path d="M534.5,648.938 C529.5,648.938 529.5,663.5 529.5,663.5 C529.5,678.062 534.5,678.062 534.5,678.062 " fill="none" style="stroke:#000000;stroke-width:2.0;"/><text fill="#002851" font-family="Avenir" font-size="14" font-weight="bold" lengthAdjust="spacing" textLength="89" x="435.5" y="667.938">Action Queue</text><text fill="#002851" font-family="Avenir" font-size="14" font-weight="bold" lengthAdjust="spacing" textLength="112" x="589" y="124.588">Action Processors</text><ellipse cx="648" cy="94.588" fill="#FFE599" filter="url(#f1ro3eg4658598)" rx="12" ry="12" style="stroke:#000000;stroke-width:2.0;"/><polygon fill="#000000" points="644,82.588,650,77.588,648,82.588,650,87.588,644,82.588" style="stroke:#000000;stroke-width:1.0;"/><text fill="#002851" font-family="Avenir" font-size="14" font-weight="bold" lengthAdjust="spacing" textLength="112" x="589" y="662.938">Action Processors</text><ellipse cx="648" cy="684.062" fill="#FFE599" filter="url(#f1ro3eg4658598)" rx="12" ry="12" style="stroke:#000000;stroke-width:2.0;"/><polygon fill="#000000" points="644,672.062,650,667.062,648,672.062,650,677.062,644,672.062" style="stroke:#000000;stroke-width:1.0;"/><text fill="#002851" font-family="Avenir" font-size="14" font-weight="bold" lengthAdjust="spacing" textLength="70" x="881" y="124.588">Oracle ERP</text><ellipse cx="919" cy="94.588" fill="#FFE599" filter="url(#f1ro3eg4658598)" rx="12" ry="12" style="stroke:#000000;stroke-width:2.0;"/><line style="stroke:#000000;stroke-width:2.0;" x1="907" x2="931" y1="108.588" y2="108.588"/><text fill="#002851" font-family="Avenir" font-size="14" font-weight="bold" lengthAdjust="spacing" textLength="70" x="881" y="662.938">Oracle ERP</text><ellipse cx="919" cy="684.062" fill="#FFE599" filter="url(#f1ro3eg4658598)" rx="12" ry="12" style="stroke:#000000;stroke-width:2.0;"/><line style="stroke:#000000;stroke-width:2.0;" x1="907" x2="931" y1="698.062" y2="698.062"/><rect fill="#FFE599" filter="url(#f1ro3eg4658598)" height="197.816" style="stroke:#1D4776;stroke-width:1.0;" width="10" x="643" y="321.332"/><path d="M5,144.712 L5,189.712 L473,189.712 L473,154.712 L463,144.712 L5,144.712 " fill="#CDD6E0" filter="url(#f1ro3eg4658598)" style="stroke:#1D4776;stroke-width:1.0;"/><path d="M463,144.712 L463,154.712 L473,154.712 L463,144.712 " fill="#CDD6E0" style="stroke:#1D4776;stroke-width:1.0;"/><text fill="#000000" font-family="Avenir" font-size="13" lengthAdjust="spacing" textLength="447" x="11" y="162.712">Boundary System Owner has previously been provided with an authentication</text><text fill="#000000" font-family="Avenir" font-size="13" lengthAdjust="spacing" textLength="342" x="11" y="180.47">credentials and uses those to authenticate to GoAnywhere.</text><polygon fill="#002851" points="296,214.888,306,218.888,296,222.888,300,218.888" style="stroke:#002851;stroke-width:1.0;"/><line style="stroke:#002851;stroke-width:2.0;" x1="172.5" x2="302" y1="218.888" y2="218.888"/><text fill="#4C4C4C" font-family="Avenir" font-size="10" font-weight="bold" lengthAdjust="spacing" textLength="12" x="179.5" y="213.228">1 :</text><text fill="#4C4C4C" font-family="Avenir" font-size="10" lengthAdjust="spacing" textLength="78" x="198.5" y="213.228">SFTP File Upload</text><rect fill="#CDD6E0" filter="url(#f1ro3eg4658598)" height="3" style="stroke:#CDD6E0;stroke-width:1.0;" width="1108" x="0" y="249.45"/><line style="stroke:#002851;stroke-width:1.0;" x1="0" x2="1108" y1="249.45" y2="249.45"/><line style="stroke:#002851;stroke-width:1.0;" x1="0" x2="1108" y1="252.45" y2="252.45"/><rect fill="#CDD6E0" filter="url(#f1ro3eg4658598)" height="27.124" style="stroke:#002851;stroke-width:2.0;" width="112" x="498" y="236.888"/><text fill="#000000" font-family="Avenir" font-size="14" font-weight="bold" lengthAdjust="spacing" textLength="94" x="504" y="254.888">File Processing</text><polygon fill="#002851" points="473,289.672,483,293.672,473,297.672,477,293.672" style="stroke:#002851;stroke-width:1.0;"/><line style="stroke:#002851;stroke-width:2.0;" x1="308" x2="479" y1="293.672" y2="293.672"/><text fill="#4C4C4C" font-family="Avenir" font-size="10" font-weight="bold" lengthAdjust="spacing" textLength="12" x="315" y="288.012">2 :</text><text fill="#4C4C4C" font-family="Avenir" font-size="10" lengthAdjust="spacing" textLength="134" x="334" y="288.012">Pulls pending files into queue</text><polygon fill="#002851" points="631,317.332,641,321.332,631,325.332,635,321.332" style="stroke:#002851;stroke-width:1.0;"/><line style="stroke:#002851;stroke-width:2.0;" x1="485" x2="637" y1="321.332" y2="321.332"/><text fill="#4C4C4C" font-family="Avenir" font-size="10" font-weight="bold" lengthAdjust="spacing" textLength="12" x="492" y="315.672">3 :</text><text fill="#4C4C4C" font-family="Avenir" font-size="10" lengthAdjust="spacing" textLength="120" x="511" y="315.672">Processor picks up request</text><path d="M524,334.332 L524,379.332 L768,379.332 L768,344.332 L758,334.332 L524,334.332 " fill="#CDD6E0" filter="url(#f1ro3eg4658598)" style="stroke:#1D4776;stroke-width:1.0;"/><path d="M758,334.332 L758,344.332 L768,344.332 L758,334.332 " fill="#CDD6E0" style="stroke:#1D4776;stroke-width:1.0;"/><ellipse cx="535.5" cy="349.59" fill="#000000" rx="2.5" ry="2.5" style="stroke:#000000;stroke-width:0.0;"/><text fill="#000000" font-family="Avenir" font-size="13" lengthAdjust="spacing" textLength="88" x="542" y="352.332">Data validation</text><ellipse cx="535.5" cy="367.348" fill="#000000" rx="2.5" ry="2.5" style="stroke:#000000;stroke-width:0.0;"/><text fill="#000000" font-family="Avenir" font-size="13" lengthAdjust="spacing" textLength="211" x="542" y="370.09">Formats Data for submission to ERP</text><polygon fill="#002851" points="907,404.508,917,408.508,907,412.508,911,408.508" style="stroke:#002851;stroke-width:1.0;"/><line style="stroke:#002851;stroke-width:2.0;" x1="653" x2="913" y1="408.508" y2="408.508"/><text fill="#4C4C4C" font-family="Avenir" font-size="10" font-weight="bold" lengthAdjust="spacing" textLength="12" x="660" y="402.848">4 :</text><text fill="#4C4C4C" font-family="Avenir" font-size="10" lengthAdjust="spacing" textLength="223" x="679" y="402.848">Imports data to ERP and runs ERP Processing Job</text><polygon fill="#002851" points="664,432.168,654,436.168,664,440.168,660,436.168" style="stroke:#002851;stroke-width:1.0;"/><line style="stroke:#002851;stroke-width:2.0;stroke-dasharray:2.0,2.0;" x1="658" x2="918" y1="436.168" y2="436.168"/><text fill="#4C4C4C" font-family="Avenir" font-size="10" font-weight="bold" lengthAdjust="spacing" textLength="12" x="670" y="430.508">5 :</text><text fill="#4C4C4C" font-family="Avenir" font-size="10" lengthAdjust="spacing" textLength="126" x="689" y="430.508">Receives File Import Results</text><polygon fill="#002851" points="907,459.828,917,463.828,907,467.828,911,463.828" style="stroke:#002851;stroke-width:1.0;"/><line style="stroke:#002851;stroke-width:2.0;" x1="653" x2="913" y1="463.828" y2="463.828"/><text fill="#4C4C4C" font-family="Avenir" font-size="10" font-weight="bold" lengthAdjust="spacing" textLength="12" x="660" y="458.168">6 :</text><text fill="#4C4C4C" font-family="Avenir" font-size="10" lengthAdjust="spacing" textLength="115" x="679" y="458.168">polls for import job results</text><polygon fill="#002851" points="664,487.488,654,491.488,664,495.488,660,491.488" style="stroke:#002851;stroke-width:1.0;"/><line style="stroke:#002851;stroke-width:2.0;stroke-dasharray:2.0,2.0;" x1="658" x2="918" y1="491.488" y2="491.488"/><text fill="#4C4C4C" font-family="Avenir" font-size="10" font-weight="bold" lengthAdjust="spacing" textLength="12" x="670" y="485.828">7 :</text><text fill="#4C4C4C" font-family="Avenir" font-size="10" lengthAdjust="spacing" textLength="98" x="689" y="485.828">sends back job results</text><polygon fill="#002851" points="183.5,515.148,173.5,519.148,183.5,523.148,179.5,519.148" style="stroke:#002851;stroke-width:1.0;"/><line style="stroke:#002851;stroke-width:2.0;" x1="177.5" x2="647" y1="519.148" y2="519.148"/><text fill="#4C4C4C" font-family="Avenir" font-size="10" font-weight="bold" lengthAdjust="spacing" textLength="12" x="189.5" y="513.488">8 :</text><text fill="#4C4C4C" font-family="Avenir" font-size="10" lengthAdjust="spacing" textLength="119" x="208.5" y="513.488">Emails results of file import</text><path d="M734,532.148 L734,630.148 L1099,630.148 L1099,542.148 L1089,532.148 L734,532.148 " fill="#CDD6E0" filter="url(#f1ro3eg4658598)" style="stroke:#1D4776;stroke-width:1.0;"/><path d="M1089,532.148 L1089,542.148 L1099,542.148 L1089,532.148 " fill="#CDD6E0" style="stroke:#1D4776;stroke-width:1.0;"/><text fill="#000000" font-family="Avenir" font-size="13" lengthAdjust="spacing" textLength="317" x="740" y="550.148">Depending on configuration, the ERP system may also</text><text fill="#000000" font-family="Avenir" font-size="13" lengthAdjust="spacing" textLength="306" x="740" y="567.906">send feedback on the import as relates to its internal</text><text fill="#000000" font-family="Avenir" font-size="13" lengthAdjust="spacing" textLength="314" x="740" y="585.664">processes.  Issues in validation or file transmission will</text><text fill="#000000" font-family="Avenir" font-size="13" lengthAdjust="spacing" textLength="344" x="740" y="603.422">be reported via email to the boundary system owner by the</text><text fill="#000000" font-family="Avenir" font-size="13" lengthAdjust="spacing" textLength="119" x="740" y="621.18">integration platform.</text><text fill="#888888" font-family="Avenir" font-size="10" lengthAdjust="spacing" textLength="154" x="477" y="749.062">Author: Jonathan Keller 2/2/2022</text><!--MD5=[75ff5ddac411e21576924020479fb82f]
@startuml file-upload-flow

!include ucd_style.iuml

title File Upload Flow Sequence Diagram
center footer Author: Jonathan Keller 2/2/2022

actor    "Boundary System"     as BS
control  "GoAnywhere Server"   as goa
queue    "Action Queue"        as kafka
control  "Action Processors"   as processor
entity   "Oracle ERP"          as erp

note over BS, goa
  Boundary System Owner has previously been provided with an authentication
  credentials and uses those to authenticate to GoAnywhere.
end note

autonumber 1 1 "<b>## : </b>"
BS -> goa : SFTP File Upload

== File Processing ==

goa -> kafka : Pulls pending files into queue
kafka -> processor ++ : Processor picks up request
note over processor
  * Data validation
  * Formats Data for submission to ERP
end note
processor -> erp : Imports data to ERP and runs ERP Processing Job
erp - -> processor : Receives File Import Results
processor -> erp : polls for import job results
erp - -> processor : sends back job results
processor -> BS - - : Emails results of file import
note over erp
  Depending on configuration, the ERP system may also
  send feedback on the import as relates to its internal
  processes.  Issues in validation or file transmission will
  be reported via email to the boundary system owner by the
  integration platform.
end note

@enduml

@startuml file-upload-flow
























skinparam DefaultFontName Avenir

skinparam activity {
    BackgroundColor #FFE599
    BorderColor #033266
    StartColor #266041
    FontColor black
    EndColor #79242F
}

skinparam actor {
    BackgroundColor #FFE599
    BorderColor #033266
    FontColor #002851
    FontStyle bold
}

skinparam arrow {
    Color #002851
    FontSize 10
    FontColor #4C4C4C
}

skinparam box {
    Padding 10
}

skinparam boundary {
    BorderColor black
    BackgroundColor #FFE599
    FontColor #002851
    FontStyle bold
}

skinparam cloud {
    BackgroundColor #6FCFEB
    BorderColor #003A5D
}

skinparam collections {
    BackgroundColor #FFE599
    BorderColor black
}

skinparam component {
    Style uml2
    FontColor #002851
    BackgroundColor #CDD6E0
    BorderColor #002851
}

skinparam control {
    BackgroundColor #FFE599
    BorderColor black
    FontColor #002851
    FontStyle bold
}

skinparam database {
    BackgroundColor #FFE599
    BorderColor black
    FontColor #002851
    FontStyle bold
}

skinparam entity {
    BackgroundColor #FFE599
    BorderColor black
    FontColor #002851
    FontStyle bold
}

skinparam interface {
    BackgroundColor black
    BorderColor #FFBF00
}

skinparam note {
    BackgroundColor #CDD6E0
    BorderColor #1D4776
}

skinparam package {
    BackgroundColor #FFF2CC
}

skinparam participant {
    BackgroundColor #FFE599
    BorderColor black
    Padding 10
    FontColor #002851
    FontStyle bold
}

skinparam queue {
    BackgroundColor #FFE599
    BorderColor black
    FontColor #002851
    FontStyle bold
}

skinparam sequence {
    DividerBorderColor #033266
    group {
      BackgroundColor #FFF9E5
      FontColor #002851
      BorderColor #1D4776
    }
    LifeLineBorderColor #1D4776
    LifeLineBackgroundColor #FFE599
    ArrowThickness 2
    box {
      FontColor #002851
      FontStyle bold
      FontSize 18
      BackgroundColor #FFF9E5
      BorderColor black
    }
    divider {
      FontColor black
      FontStyle bold
      FontSize 14
      BackgroundColor #CDD6E0
      BorderColor #002851
    }
}

skinparam swimlane {
    BorderColor #FFBF00
    TitleFontStyle bold
}

title File Upload Flow Sequence Diagram
center footer Author: Jonathan Keller 2/2/2022

actor    "Boundary System"     as BS
control  "GoAnywhere Server"   as goa
queue    "Action Queue"        as kafka
control  "Action Processors"   as processor
entity   "Oracle ERP"          as erp

note over BS, goa
  Boundary System Owner has previously been provided with an authentication
  credentials and uses those to authenticate to GoAnywhere.
end note

autonumber 1 1 "<b>## : </b>"
BS -> goa : SFTP File Upload

== File Processing ==

goa -> kafka : Pulls pending files into queue
kafka -> processor ++ : Processor picks up request
note over processor
  * Data validation
  * Formats Data for submission to ERP
end note
processor -> erp : Imports data to ERP and runs ERP Processing Job
erp - -> processor : Receives File Import Results
processor -> erp : polls for import job results
erp - -> processor : sends back job results
processor -> BS - - : Emails results of file import
note over erp
  Depending on configuration, the ERP system may also
  send feedback on the import as relates to its internal
  processes.  Issues in validation or file transmission will
  be reported via email to the boundary system owner by the
  integration platform.
end note

@enduml

PlantUML version 1.2021.12(Tue Oct 05 09:01:58 PDT 2021)
(GPL source distribution)
Java Runtime: OpenJDK Runtime Environment
JVM: OpenJDK 64-Bit Server VM
Default Encoding: UTF-8
Language: en
Country: US
--></g></svg>