<?xml version="1.0" encoding="UTF-8" standalone="no"?><svg xmlns="http://www.w3.org/2000/svg" xmlns:xlink="http://www.w3.org/1999/xlink" contentStyleType="text/css" height="420px" preserveAspectRatio="none" style="width:1181px;height:420px;background:#FFFFFF;" version="1.1" viewBox="0 0 1181 420" width="1181px" zoomAndPan="magnify"><defs/><g><rect height="29.124" style="stroke:#00000000;stroke-width:1.0;fill:none;" width="225" x="474.25" y="10"/><text fill="#000000" font-family="Avenir" font-size="14" font-weight="bold" lengthAdjust="spacing" textLength="215" x="479.25" y="29">Processing Inbound Data Request</text><rect fill="#FFF9E5" height="351.724" style="stroke:#000000;stroke-width:0.5;" width="581" x="181.5" y="46.124"/><text fill="#000000" font-family="Avenir" font-size="13" font-weight="bold" lengthAdjust="spacing" textLength="150" x="397" y="59.124">Web Service Components</text><rect fill="#CDD6E0" height="351.724" style="stroke:#000000;stroke-width:0.5;" width="293" x="784.5" y="46.124"/><text fill="#000000" font-family="Avenir" font-size="13" font-weight="bold" lengthAdjust="spacing" textLength="190" x="834" y="59.124">Integration Pipeline Components</text><line style="stroke:#1D4776;stroke-width:0.5;stroke-dasharray:5.0,5.0;" x1="51" x2="51" y1="133.006" y2="403.848"/><line style="stroke:#1D4776;stroke-width:0.5;stroke-dasharray:5.0,5.0;" x1="251.5" x2="251.5" y1="133.006" y2="403.848"/><line style="stroke:#1D4776;stroke-width:0.5;stroke-dasharray:5.0,5.0;" x1="403.5" x2="403.5" y1="133.006" y2="403.848"/><line style="stroke:#1D4776;stroke-width:0.5;stroke-dasharray:5.0,5.0;" x1="533.5" x2="533.5" y1="133.006" y2="403.848"/><line style="stroke:#1D4776;stroke-width:0.5;stroke-dasharray:5.0,5.0;" x1="672.5" x2="672.5" y1="133.006" y2="403.848"/><line style="stroke:#1D4776;stroke-width:0.5;stroke-dasharray:5.0,5.0;" x1="837.5" x2="837.5" y1="133.006" y2="403.848"/><line style="stroke:#1D4776;stroke-width:0.5;stroke-dasharray:5.0,5.0;" x1="953.5" x2="953.5" y1="133.006" y2="403.848"/><line style="stroke:#1D4776;stroke-width:0.5;stroke-dasharray:5.0,5.0;" x1="1046.5" x2="1046.5" y1="133.006" y2="403.848"/><line style="stroke:#1D4776;stroke-width:0.5;stroke-dasharray:5.0,5.0;" x1="1131.5" x2="1131.5" y1="133.006" y2="403.848"/><text fill="#002851" font-family="Avenir" font-size="14" font-weight="bold" lengthAdjust="spacing" textLength="87" x="5" y="127.882">Client System</text><ellipse cx="51.5" cy="62.382" fill="#FFE599" rx="8" ry="8" style="stroke:#033266;stroke-width:0.5;"/><path d="M51.5,70.382 L51.5,97.382 M38.5,78.382 L64.5,78.382 M51.5,97.382 L38.5,112.382 M51.5,97.382 L64.5,112.382 " fill="none" style="stroke:#033266;stroke-width:0.5;"/><text fill="#002851" font-family="Avenir" font-size="14" font-weight="bold" lengthAdjust="spacing" textLength="126" x="185.5" y="127.882">WSO2 API Gateway</text><path d="M231,85.882 L231,109.882 M231,97.882 L248,97.882 " fill="none" style="stroke:#000000;stroke-width:0.5;"/><ellipse cx="260" cy="97.882" fill="#FFE599" rx="12" ry="12" style="stroke:#000000;stroke-width:0.5;"/><rect fill="#FFE599" height="33.124" rx="2.5" ry="2.5" style="stroke:#000000;stroke-width:0.5;" width="132" x="337.5" y="98.882"/><text fill="#002851" font-family="Avenir" font-size="14" font-weight="bold" lengthAdjust="spacing" textLength="118" x="344.5" y="119.882">GraphQL Gateway</text><rect fill="#FFE599" height="33.124" rx="2.5" ry="2.5" style="stroke:#000000;stroke-width:0.5;" width="68" x="499.5" y="98.882"/><text fill="#002851" font-family="Avenir" font-size="14" font-weight="bold" lengthAdjust="spacing" textLength="54" x="506.5" y="119.882">Grouper</text><rect fill="#FFE599" height="33.124" rx="2.5" ry="2.5" style="stroke:#000000;stroke-width:0.5;" width="151" x="597.5" y="98.882"/><text fill="#002851" font-family="Avenir" font-size="14" font-weight="bold" lengthAdjust="spacing" textLength="137" x="604.5" y="119.882">GraphQL Data Server</text><text fill="#002851" font-family="Avenir" font-size="14" font-weight="bold" lengthAdjust="spacing" textLength="93" x="788.5" y="127.882">Integration DB</text><path d="M820,77.882 C820,67.882 838,67.882 838,67.882 C838,67.882 856,67.882 856,77.882 L856,103.882 C856,113.882 838,113.882 838,113.882 C838,113.882 820,113.882 820,103.882 L820,77.882 " fill="#FFE599" style="stroke:#000000;stroke-width:1.5;"/><path d="M820,77.882 C820,87.882 838,87.882 838,87.882 C838,87.882 856,87.882 856,77.882 " fill="none" style="stroke:#000000;stroke-width:1.5;"/><rect fill="#FFE599" height="33.124" rx="2.5" ry="2.5" style="stroke:#000000;stroke-width:0.5;" width="92" x="907.5" y="98.882"/><text fill="#002851" font-family="Avenir" font-size="14" font-weight="bold" lengthAdjust="spacing" textLength="78" x="914.5" y="119.882">Apache NiFi</text><path d="M1024.5,103.882 L1068.5,103.882 C1073.5,103.882 1073.5,118.444 1073.5,118.444 C1073.5,118.444 1073.5,133.006 1068.5,133.006 L1024.5,133.006 C1019.5,133.006 1019.5,118.444 1019.5,118.444 C1019.5,118.444 1019.5,103.882 1024.5,103.882 " fill="#FFE599" style="stroke:#000000;stroke-width:0.5;"/><path d="M1068.5,103.882 C1063.5,103.882 1063.5,118.444 1063.5,118.444 C1063.5,133.006 1068.5,133.006 1068.5,133.006 " fill="none" style="stroke:#000000;stroke-width:0.5;"/><text fill="#002851" font-family="Avenir" font-size="14" font-weight="bold" lengthAdjust="spacing" textLength="34" x="1024.5" y="122.882">Kafka</text><rect fill="#FFE599" height="33.124" rx="2.5" ry="2.5" style="stroke:#000000;stroke-width:0.5;" width="56" x="1103.5" y="98.882"/><text fill="#002851" font-family="Avenir" font-size="14" font-weight="bold" lengthAdjust="spacing" textLength="42" x="1110.5" y="119.882">Oracle</text><rect fill="#CDD6E0" height="3" style="stroke:#CDD6E0;stroke-width:1.0;" width="1174.5" x="0" y="165.568"/><line style="stroke:#002851;stroke-width:1.0;" x1="0" x2="1174.5" y1="165.568" y2="165.568"/><line style="stroke:#002851;stroke-width:1.0;" x1="0" x2="1174.5" y1="168.568" y2="168.568"/><rect fill="#CDD6E0" height="27.124" style="stroke:#002851;stroke-width:2.0;" width="219" x="477.75" y="153.006"/><text fill="#000000" font-family="Avenir" font-size="14" font-weight="bold" lengthAdjust="spacing" textLength="201" x="483.75" y="171.006">Client Query for Request Status</text><polygon fill="#002851" points="239.5,205.79,249.5,209.79,239.5,213.79,243.5,209.79" style="stroke:#002851;stroke-width:1.0;"/><line style="stroke:#002851;stroke-width:2.0;" x1="51.5" x2="245.5" y1="209.79" y2="209.79"/><text fill="#4C4C4C" font-family="Avenir" font-size="10" font-weight="bold" lengthAdjust="spacing" textLength="6" x="58.5" y="204.13">1</text><text fill="#4C4C4C" font-family="Avenir" font-size="10" lengthAdjust="spacing" textLength="166" x="68.5" y="204.13">Requests status of submitted request</text><polygon fill="#002851" points="391.5,238.499,401.5,242.499,391.5,246.499,395.5,242.499" style="stroke:#002851;stroke-width:1.0;"/><line style="stroke:#002851;stroke-width:2.0;" x1="251.5" x2="397.5" y1="242.499" y2="242.499"/><text fill="#4C4C4C" font-family="Avenir" font-size="10" font-weight="bold" lengthAdjust="spacing" textLength="6" x="258.5" y="236.839">2</text><text fill="#4C4C4C" font-family="Avenir" font-size="10" lengthAdjust="spacing" textLength="77" x="268.5" y="236.839">Forwards request</text><path d="M408,222.79 L408,249.79 L619,249.79 L619,232.79 L609,222.79 L408,222.79 " fill="#CDD6E0" style="stroke:#181818;stroke-width:0.5;"/><path d="M609,222.79 L609,232.79 L619,232.79 L609,222.79 " fill="#CDD6E0" style="stroke:#181818;stroke-width:0.5;"/><text fill="#000000" font-family="Avenir" font-size="13" lengthAdjust="spacing" textLength="190" x="414" y="240.79">Skipping Role Lookup for Brevity</text><polygon fill="#002851" points="661,271.208,671,275.208,661,279.208,665,275.208" style="stroke:#002851;stroke-width:1.0;"/><line style="stroke:#002851;stroke-width:2.0;" x1="403.5" x2="667" y1="275.208" y2="275.208"/><text fill="#4C4C4C" font-family="Avenir" font-size="10" font-weight="bold" lengthAdjust="spacing" textLength="6" x="410.5" y="269.548">3</text><text fill="#4C4C4C" font-family="Avenir" font-size="10" lengthAdjust="spacing" textLength="77" x="420.5" y="269.548">Forwards request</text><polygon fill="#002851" points="684,298.868,674,302.868,684,306.868,680,302.868" style="stroke:#002851;stroke-width:1.0;"/><polygon fill="#002851" points="826,298.868,836,302.868,826,306.868,830,302.868" style="stroke:#002851;stroke-width:1.0;"/><line style="stroke:#002851;stroke-width:2.0;" x1="678" x2="832" y1="302.868" y2="302.868"/><text fill="#4C4C4C" font-family="Avenir" font-size="10" font-weight="bold" lengthAdjust="spacing" textLength="6" x="690" y="297.208">4</text><text fill="#4C4C4C" font-family="Avenir" font-size="10" lengthAdjust="spacing" textLength="102" x="700" y="297.208">Pulls status information</text><polygon fill="#002851" points="414.5,326.528,404.5,330.528,414.5,334.528,410.5,330.528" style="stroke:#002851;stroke-width:1.0;"/><line style="stroke:#002851;stroke-width:2.0;stroke-dasharray:2.0,2.0;" x1="408.5" x2="672" y1="330.528" y2="330.528"/><text fill="#4C4C4C" font-family="Avenir" font-size="10" font-weight="bold" lengthAdjust="spacing" textLength="6" x="420.5" y="324.868">5</text><text fill="#4C4C4C" font-family="Avenir" font-size="10" lengthAdjust="spacing" textLength="87" x="430.5" y="324.868">Forwards Response</text><polygon fill="#002851" points="262.5,354.188,252.5,358.188,262.5,362.188,258.5,358.188" style="stroke:#002851;stroke-width:1.0;"/><line style="stroke:#002851;stroke-width:2.0;stroke-dasharray:2.0,2.0;" x1="256.5" x2="402.5" y1="358.188" y2="358.188"/><text fill="#4C4C4C" font-family="Avenir" font-size="10" font-weight="bold" lengthAdjust="spacing" textLength="6" x="268.5" y="352.528">6</text><text fill="#4C4C4C" font-family="Avenir" font-size="10" lengthAdjust="spacing" textLength="87" x="278.5" y="352.528">Forwards Response</text><polygon fill="#002851" points="62.5,381.848,52.5,385.848,62.5,389.848,58.5,385.848" style="stroke:#002851;stroke-width:1.0;"/><line style="stroke:#002851;stroke-width:2.0;" x1="56.5" x2="250.5" y1="385.848" y2="385.848"/><text fill="#4C4C4C" font-family="Avenir" font-size="10" font-weight="bold" lengthAdjust="spacing" textLength="6" x="68.5" y="380.188">7</text><text fill="#4C4C4C" font-family="Avenir" font-size="10" lengthAdjust="spacing" textLength="116" x="78.5" y="380.188">Returns status information</text><rect height="13.66" style="stroke:#00000000;stroke-width:1.0;fill:none;" width="260" x="456.75" y="398.848"/><text fill="#888888" font-family="Avenir" font-size="10" lengthAdjust="spacing" textLength="260" x="456.75" y="408.848">Author: Jonathan Keller 11/2/2020 - Revised: 8/28/2023</text><!--MD5=[57717cc0dc391b916de6a0b1b5f8ef61]
@startuml action-request-flow

!include ucd_style.iuml

title Processing Inbound Data Request
hide footbox
center footer Author: Jonathan Keller 11/2/2020 - Revised: 8/28/2023

actor "Client System" as CS
box Web Service Components
  boundary "WSO2 API Gateway" AS WSO2
  participant "GraphQL Gateway" AS GQLGateway
  participant Grouper
  participant "GraphQL Data Server" as GQL
end box
box Integration Pipeline Components #CDD6E0
  database "Integration DB" AS Postgres
  participant "Apache NiFi" AS NiFi
  queue Kafka
end box
participant "Oracle" AS ERP

== Client Query for Request Status ==

autonumber 1
CS -> WSO2 : Requests status of submitted request
WSO2 -> GQLGateway : Forwards request
note right: Skipping Role Lookup for Brevity
GQLGateway -> GQL : Forwards request
GQL <-> Postgres : Pulls status information
GQL - -> GQLGateway : Forwards Response
GQLGateway - -> WSO2 : Forwards Response
WSO2 -> CS : Returns status information

@enduml

@startuml action-request-flow
























skinparam DefaultFontName Avenir

skinparam activity {
    BackgroundColor #FFE599
    BorderColor #033266
    StartColor #266041
    FontColor black
    EndColor #79242F
}

skinparam actor {
    BackgroundColor #FFE599
    BorderColor #033266
    FontColor #002851
    FontStyle bold
}

skinparam arrow {
    Color #002851
    FontSize 10
    FontColor #4C4C4C
}

skinparam box {
    Padding 10
}

skinparam boundary {
    BorderColor black
    BackgroundColor #FFE599
    FontColor #002851
    FontStyle bold
}

skinparam cloud {
    BackgroundColor #6FCFEB
    BorderColor #003A5D
}

skinparam collections {
    BackgroundColor #FFE599
    BorderColor black
}

skinparam component {
    Style uml2
    FontColor #002851
    BackgroundColor #CDD6E0
    BorderColor #002851
}

skinparam control {
    BackgroundColor #FFE599
    BorderColor black
    FontColor #002851
    FontStyle bold
}

skinparam database {
    BackgroundColor #FFE599
    BorderColor black
    FontColor #002851
    FontStyle bold
}

skinparam entity {
    BackgroundColor #FFE599
    BorderColor black
    FontColor #002851
    FontStyle bold
}

skinparam interface {
    BackgroundColor black
    BorderColor #FFBF00
}

skinparam note {
    BackgroundColor #CDD6E0
    BorderColor #1D4776
}

skinparam package {
    BackgroundColor #FFF2CC
}

skinparam participant {
    BackgroundColor #FFE599
    BorderColor black
    Padding 10
    FontColor #002851
    FontStyle bold
}

skinparam queue {
    BackgroundColor #FFE599
    BorderColor black
    FontColor #002851
    FontStyle bold
}

skinparam sequence {
    DividerBorderColor #033266
    group {
      BackgroundColor #FFF9E5
      FontColor #002851
      BorderColor #1D4776
    }
    LifeLineBorderColor #1D4776
    LifeLineBackgroundColor #FFE599
    ArrowThickness 2
    box {
      FontColor #002851
      FontStyle bold
      FontSize 18
      BackgroundColor #FFF9E5
      BorderColor black
    }
    divider {
      FontColor black
      FontStyle bold
      FontSize 14
      BackgroundColor #CDD6E0
      BorderColor #002851
    }
}

skinparam swimlane {
    BorderColor #FFBF00
    TitleFontStyle bold
}

title Processing Inbound Data Request
hide footbox
center footer Author: Jonathan Keller 11/2/2020 - Revised: 8/28/2023

actor "Client System" as CS
box Web Service Components
  boundary "WSO2 API Gateway" AS WSO2
  participant "GraphQL Gateway" AS GQLGateway
  participant Grouper
  participant "GraphQL Data Server" as GQL
end box
box Integration Pipeline Components #CDD6E0
  database "Integration DB" AS Postgres
  participant "Apache NiFi" AS NiFi
  queue Kafka
end box
participant "Oracle" AS ERP

== Client Query for Request Status ==

autonumber 1
CS -> WSO2 : Requests status of submitted request
WSO2 -> GQLGateway : Forwards request
note right: Skipping Role Lookup for Brevity
GQLGateway -> GQL : Forwards request
GQL <-> Postgres : Pulls status information
GQL - -> GQLGateway : Forwards Response
GQLGateway - -> WSO2 : Forwards Response
WSO2 -> CS : Returns status information

@enduml

PlantUML version 1.2022.3(Tue Mar 29 09:10:57 PDT 2022)
(GPL source distribution)
Java Runtime: OpenJDK Runtime Environment
JVM: OpenJDK 64-Bit Server VM
Default Encoding: UTF-8
Language: en
Country: US
--></g></svg>