<svg xmlns="http://www.w3.org/2000/svg" xmlns:xlink="http://www.w3.org/1999/xlink" contentStyleType="text/css" height="870px" preserveAspectRatio="none" style="width:1223px;height:870px;background:#FFFFFF;" version="1.1" viewBox="0 0 1223 870" width="1223px" zoomAndPan="magnify"><title>Processing Inbound Data Request</title><defs/><g><text fill="#000000" font-family="Avenir" font-size="14" font-weight="bold" lengthAdjust="spacing" textLength="211.652" x="501.8435" y="29">Processing Inbound Data Request</text><rect fill="#FFF9E5" height="801.924" style="stroke:#000000;stroke-width:0.5;" width="606.906" x="112.54" y="46.124"/><text fill="#002851" font-family="Avenir" font-size="13" font-weight="bold" lengthAdjust="spacing" textLength="151.45" x="340.268" y="59.124">Web Service Components</text><rect fill="#CDD6E0" height="801.924" style="stroke:#000000;stroke-width:0.5;" width="290.832" x="741.446" y="46.124"/><text fill="#002851" font-family="Avenir" font-size="13" font-weight="bold" lengthAdjust="spacing" textLength="192.387" x="788.8615" y="59.124">Integration Pipeline Components</text><rect fill="#FFE599" height="510.546" style="stroke:#1D4776;stroke-width:1.0;" width="10" x="176.686" y="223.45"/><rect fill="#FFE599" height="385.782" style="stroke:#1D4776;stroke-width:1.0;" width="10" x="348.746" y="306.626"/><rect fill="#FFE599" height="201.868" style="stroke:#1D4776;stroke-width:1.0;" width="10" x="626.169" y="462.88"/><line style="stroke:#1D4776;stroke-width:0.5;stroke-dasharray:5.0,5.0;" x1="50" x2="50" y1="133.006" y2="765.924"/><line style="stroke:#1D4776;stroke-width:0.5;stroke-dasharray:5.0,5.0;" x1="181.54" x2="181.54" y1="133.006" y2="765.924"/><line style="stroke:#1D4776;stroke-width:0.5;stroke-dasharray:5.0,5.0;" x1="353.534" x2="353.534" y1="133.006" y2="765.924"/><line style="stroke:#1D4776;stroke-width:0.5;stroke-dasharray:5.0,5.0;" x1="493.28" x2="493.28" y1="133.006" y2="765.924"/><line style="stroke:#1D4776;stroke-width:0.5;stroke-dasharray:5.0,5.0;" x1="630.892" x2="630.892" y1="133.006" y2="765.924"/><line style="stroke:#1D4776;stroke-width:0.5;stroke-dasharray:5.0,5.0;" x1="793.446" x2="793.446" y1="133.006" y2="765.924"/><line style="stroke:#1D4776;stroke-width:0.5;stroke-dasharray:5.0,5.0;" x1="908.0059" x2="908.0059" y1="133.006" y2="765.924"/><line style="stroke:#1D4776;stroke-width:0.5;stroke-dasharray:5.0,5.0;" x1="1001.0339" x2="1001.0339" y1="133.006" y2="765.924"/><line style="stroke:#1D4776;stroke-width:0.5;stroke-dasharray:5.0,5.0;" x1="1085.2779" x2="1085.2779" y1="133.006" y2="765.924"/><text fill="#002851" font-family="Avenir" font-size="14" font-weight="bold" lengthAdjust="spacing" textLength="85.54" x="5" y="127.882">Client System</text><ellipse cx="50.77" cy="62.382" fill="#FFE599" rx="8" ry="8" style="stroke:#033266;stroke-width:0.5;"/><path d="M50.77,70.382 L50.77,97.382 M37.77,78.382 L63.77,78.382 M50.77,97.382 L37.77,112.382 M50.77,97.382 L63.77,112.382 " fill="none" style="stroke:#033266;stroke-width:0.5;"/><text fill="#002851" font-family="Avenir" font-size="14" font-weight="bold" lengthAdjust="spacing" textLength="85.54" x="5" y="778.924">Client System</text><ellipse cx="50.77" cy="792.548" fill="#FFE599" rx="8" ry="8" style="stroke:#033266;stroke-width:0.5;"/><path d="M50.77,800.548 L50.77,827.548 M37.77,808.548 L63.77,808.548 M50.77,827.548 L37.77,842.548 M50.77,827.548 L63.77,842.548 " fill="none" style="stroke:#033266;stroke-width:0.5;"/><text fill="#002851" font-family="Avenir" font-size="14" font-weight="bold" lengthAdjust="spacing" textLength="124.292" x="116.54" y="127.882">WSO2 API Gateway</text><path d="M161.186,85.882 L161.186,109.882 M161.186,97.882 L178.186,97.882 " fill="none" style="stroke:#000000;stroke-width:0.5;"/><ellipse cx="190.186" cy="97.882" fill="#FFE599" rx="12" ry="12" style="stroke:#000000;stroke-width:0.5;"/><text fill="#002851" font-family="Avenir" font-size="14" font-weight="bold" lengthAdjust="spacing" textLength="124.292" x="116.54" y="778.924">WSO2 API Gateway</text><path d="M161.186,788.048 L161.186,812.048 M161.186,800.048 L178.186,800.048 " fill="none" style="stroke:#000000;stroke-width:0.5;"/><ellipse cx="190.186" cy="800.048" fill="#FFE599" rx="12" ry="12" style="stroke:#000000;stroke-width:0.5;"/><rect fill="#FFE599" height="33.124" rx="2.5" ry="2.5" style="stroke:#000000;stroke-width:0.5;" width="130.424" x="288.534" y="98.882"/><text fill="#002851" font-family="Avenir" font-size="14" font-weight="bold" lengthAdjust="spacing" textLength="116.424" x="295.534" y="119.882">GraphQL Gateway</text><rect fill="#FFE599" height="33.124" rx="2.5" ry="2.5" style="stroke:#000000;stroke-width:0.5;" width="130.424" x="288.534" y="764.924"/><text fill="#002851" font-family="Avenir" font-size="14" font-weight="bold" lengthAdjust="spacing" textLength="116.424" x="295.534" y="785.924">GraphQL Gateway</text><rect fill="#FFE599" height="33.124" rx="2.5" ry="2.5" style="stroke:#000000;stroke-width:0.5;" width="66.612" x="460.28" y="98.882"/><text fill="#002851" font-family="Avenir" font-size="14" font-weight="bold" lengthAdjust="spacing" textLength="52.612" x="467.28" y="119.882">Grouper</text><rect fill="#FFE599" height="33.124" rx="2.5" ry="2.5" style="stroke:#000000;stroke-width:0.5;" width="66.612" x="460.28" y="764.924"/><text fill="#002851" font-family="Avenir" font-size="14" font-weight="bold" lengthAdjust="spacing" textLength="52.612" x="467.28" y="785.924">Grouper</text><rect fill="#FFE599" height="33.124" rx="2.5" ry="2.5" style="stroke:#000000;stroke-width:0.5;" width="148.554" x="556.892" y="98.882"/><text fill="#002851" font-family="Avenir" font-size="14" font-weight="bold" lengthAdjust="spacing" textLength="134.554" x="563.892" y="119.882">GraphQL Data Server</text><rect fill="#FFE599" height="33.124" rx="2.5" ry="2.5" style="stroke:#000000;stroke-width:0.5;" width="148.554" x="556.892" y="764.924"/><text fill="#002851" font-family="Avenir" font-size="14" font-weight="bold" lengthAdjust="spacing" textLength="134.554" x="563.892" y="785.924">GraphQL Data Server</text><text fill="#002851" font-family="Avenir" font-size="14" font-weight="bold" lengthAdjust="spacing" textLength="91.56" x="745.446" y="127.882">Integration DB</text><path d="M776.226,77.882 C776.226,67.882 794.226,67.882 794.226,67.882 C794.226,67.882 812.226,67.882 812.226,77.882 L812.226,103.882 C812.226,113.882 794.226,113.882 794.226,113.882 C794.226,113.882 776.226,113.882 776.226,103.882 L776.226,77.882 " fill="#FFE599" style="stroke:#000000;stroke-width:1.5;"/><path d="M776.226,77.882 C776.226,87.882 794.226,87.882 794.226,87.882 C794.226,87.882 812.226,87.882 812.226,77.882 " fill="none" style="stroke:#000000;stroke-width:1.5;"/><text fill="#002851" font-family="Avenir" font-size="14" font-weight="bold" lengthAdjust="spacing" textLength="91.56" x="745.446" y="778.924">Integration DB</text><path d="M776.226,794.048 C776.226,784.048 794.226,784.048 794.226,784.048 C794.226,784.048 812.226,784.048 812.226,794.048 L812.226,820.048 C812.226,830.048 794.226,830.048 794.226,830.048 C794.226,830.048 776.226,830.048 776.226,820.048 L776.226,794.048 " fill="#FFE599" style="stroke:#000000;stroke-width:1.5;"/><path d="M776.226,794.048 C776.226,804.048 794.226,804.048 794.226,804.048 C794.226,804.048 812.226,804.048 812.226,794.048 " fill="none" style="stroke:#000000;stroke-width:1.5;"/><rect fill="#FFE599" height="33.124" rx="2.5" ry="2.5" style="stroke:#000000;stroke-width:0.5;" width="91.028" x="863.0059" y="98.882"/><text fill="#002851" font-family="Avenir" font-size="14" font-weight="bold" lengthAdjust="spacing" textLength="77.028" x="870.0059" y="119.882">Apache NiFi</text><rect fill="#FFE599" height="33.124" rx="2.5" ry="2.5" style="stroke:#000000;stroke-width:0.5;" width="91.028" x="863.0059" y="764.924"/><text fill="#002851" font-family="Avenir" font-size="14" font-weight="bold" lengthAdjust="spacing" textLength="77.028" x="870.0059" y="785.924">Apache NiFi</text><path d="M979.0339,103.882 L1023.2779,103.882 C1028.2779,103.882 1028.2779,118.444 1028.2779,118.444 C1028.2779,118.444 1028.2779,133.006 1023.2779,133.006 L979.0339,133.006 C974.0339,133.006 974.0339,118.444 974.0339,118.444 C974.0339,118.444 974.0339,103.882 979.0339,103.882 " fill="#FFE599" style="stroke:#000000;stroke-width:0.5;"/><path d="M1023.2779,103.882 C1018.2779,103.882 1018.2779,118.444 1018.2779,118.444 C1018.2779,133.006 1023.2779,133.006 1023.2779,133.006 " fill="none" style="stroke:#000000;stroke-width:0.5;"/><text fill="#002851" font-family="Avenir" font-size="14" font-weight="bold" lengthAdjust="spacing" textLength="34.244" x="979.0339" y="122.882">Kafka</text><path d="M979.0339,764.924 L1023.2779,764.924 C1028.2779,764.924 1028.2779,779.486 1028.2779,779.486 C1028.2779,779.486 1028.2779,794.048 1023.2779,794.048 L979.0339,794.048 C974.0339,794.048 974.0339,779.486 974.0339,779.486 C974.0339,779.486 974.0339,764.924 979.0339,764.924 " fill="#FFE599" style="stroke:#000000;stroke-width:0.5;"/><path d="M1023.2779,764.924 C1018.2779,764.924 1018.2779,779.486 1018.2779,779.486 C1018.2779,794.048 1023.2779,794.048 1023.2779,794.048 " fill="none" style="stroke:#000000;stroke-width:0.5;"/><text fill="#002851" font-family="Avenir" font-size="14" font-weight="bold" lengthAdjust="spacing" textLength="34.244" x="979.0339" y="783.924">Kafka</text><rect fill="#FFE599" height="33.124" rx="2.5" ry="2.5" style="stroke:#000000;stroke-width:0.5;" width="55.482" x="1058.2779" y="98.882"/><text fill="#002851" font-family="Avenir" font-size="14" font-weight="bold" lengthAdjust="spacing" textLength="41.482" x="1065.2779" y="119.882">Oracle</text><rect fill="#FFE599" height="33.124" rx="2.5" ry="2.5" style="stroke:#000000;stroke-width:0.5;" width="55.482" x="1058.2779" y="764.924"/><text fill="#002851" font-family="Avenir" font-size="14" font-weight="bold" lengthAdjust="spacing" textLength="41.482" x="1065.2779" y="785.924">Oracle</text><rect fill="#FFE599" height="510.546" style="stroke:#1D4776;stroke-width:1.0;" width="10" x="176.686" y="223.45"/><rect fill="#FFE599" height="385.782" style="stroke:#1D4776;stroke-width:1.0;" width="10" x="348.746" y="306.626"/><rect fill="#FFE599" height="201.868" style="stroke:#1D4776;stroke-width:1.0;" width="10" x="626.169" y="462.88"/><rect fill="#CDD6E0" height="3" style="stroke:#CDD6E0;stroke-width:1.0;" width="1216.3389" x="0" y="165.568"/><line style="stroke:#002851;stroke-width:1.0;" x1="0" x2="1216.3389" y1="165.568" y2="165.568"/><line style="stroke:#002851;stroke-width:1.0;" x1="0" x2="1216.3389" y1="168.568" y2="168.568"/><rect fill="#CDD6E0" height="27.124" style="stroke:#002851;stroke-width:2.0;" width="135.114" x="540.6125" y="153.006"/><text fill="#000000" font-family="Avenir" font-size="14" font-weight="bold" lengthAdjust="spacing" textLength="117.222" x="546.6125" y="171.006">Request Queueing</text><polygon fill="#002851" points="164.686,219.45,174.686,223.45,164.686,227.45,168.686,223.45" style="stroke:#002851;stroke-width:1.0;"/><line style="stroke:#002851;stroke-width:2.0;" x1="50.77" x2="170.686" y1="223.45" y2="223.45"/><text fill="#4C4C4C" font-family="Avenir" font-size="10" font-weight="bold" lengthAdjust="spacing" textLength="5.56" x="57.77" y="210.96">1</text><text fill="#4C4C4C" font-family="Avenir" font-size="10" lengthAdjust="spacing" textLength="79.81" x="67.33" y="204.13">Submits GraphQL</text><text fill="#4C4C4C" font-family="Avenir" font-size="10" lengthAdjust="spacing" textLength="88.69" x="67.33" y="217.79">Mutation Operation</text><path d="M72,236.45 L72,281.45 L289,281.45 L289,246.45 L279,236.45 L72,236.45 " fill="#CDD6E0" style="stroke:#1D4776;stroke-width:0.5;"/><path d="M279,236.45 L279,246.45 L289,246.45 L279,236.45 " fill="#CDD6E0" style="stroke:#1D4776;stroke-width:0.5;"/><text fill="#000000" font-family="Avenir" font-size="13" lengthAdjust="spacing" textLength="196.391" x="78" y="254.45">WSO2 will perform authentication</text><text fill="#000000" font-family="Avenir" font-size="13" lengthAdjust="spacing" textLength="129.532" x="78" y="272.208">and initial authZ check</text><polygon fill="#002851" points="336.746,302.626,346.746,306.626,336.746,310.626,340.746,306.626" style="stroke:#002851;stroke-width:1.0;"/><line style="stroke:#002851;stroke-width:2.0;" x1="186.686" x2="342.746" y1="306.626" y2="306.626"/><text fill="#4C4C4C" font-family="Avenir" font-size="10" font-weight="bold" lengthAdjust="spacing" textLength="5.56" x="193.686" y="300.966">2</text><text fill="#4C4C4C" font-family="Avenir" font-size="10" lengthAdjust="spacing" textLength="133.5" x="203.246" y="300.966">Forwards GraphQL Operation</text><path d="M208,319.626 L208,382.626 L497,382.626 L497,329.626 L487,319.626 L208,319.626 " fill="#CDD6E0" style="stroke:#1D4776;stroke-width:0.5;"/><path d="M487,319.626 L487,329.626 L497,329.626 L487,319.626 " fill="#CDD6E0" style="stroke:#1D4776;stroke-width:0.5;"/><text fill="#000000" font-family="Avenir" font-size="13" lengthAdjust="spacing" textLength="268.879" x="214" y="337.626">GraphQL Gateway obtains roles from Grouper</text><text fill="#000000" font-family="Avenir" font-size="13" lengthAdjust="spacing" textLength="233.74" x="217.614" y="355.384">and attaches to request for enforcement</text><text fill="#000000" font-family="Avenir" font-size="13" lengthAdjust="spacing" textLength="165.152" x="217.614" y="373.142">by the GraphQL Data Server</text><polygon fill="#002851" points="481.586,403.56,491.586,407.56,481.586,411.56,485.586,407.56" style="stroke:#002851;stroke-width:1.0;"/><line style="stroke:#002851;stroke-width:2.0;" x1="358.746" x2="487.586" y1="407.56" y2="407.56"/><text fill="#4C4C4C" font-family="Avenir" font-size="10" font-weight="bold" lengthAdjust="spacing" textLength="5.56" x="365.746" y="401.9">3</text><text fill="#4C4C4C" font-family="Avenir" font-size="10" lengthAdjust="spacing" textLength="101.28" x="375.306" y="401.9">Requests roles for user</text><polygon fill="#002851" points="369.746,431.22,359.746,435.22,369.746,439.22,365.746,435.22" style="stroke:#002851;stroke-width:1.0;"/><line style="stroke:#002851;stroke-width:2.0;stroke-dasharray:2.0,2.0;" x1="363.746" x2="492.586" y1="435.22" y2="435.22"/><text fill="#4C4C4C" font-family="Avenir" font-size="10" font-weight="bold" lengthAdjust="spacing" textLength="5.56" x="375.746" y="429.56">4</text><text fill="#4C4C4C" font-family="Avenir" font-size="10" lengthAdjust="spacing" textLength="94.23" x="385.306" y="429.56">Returns roles for user</text><polygon fill="#002851" points="614.169,458.88,624.169,462.88,614.169,466.88,618.169,462.88" style="stroke:#002851;stroke-width:1.0;"/><line style="stroke:#002851;stroke-width:2.0;" x1="358.746" x2="620.169" y1="462.88" y2="462.88"/><text fill="#4C4C4C" font-family="Avenir" font-size="10" font-weight="bold" lengthAdjust="spacing" textLength="5.56" x="365.746" y="457.22">5</text><text fill="#4C4C4C" font-family="Avenir" font-size="10" lengthAdjust="spacing" textLength="133.5" x="375.306" y="457.22">Forwards GraphQL Operation</text><path d="M542,475.88 L542,520.88 L718,520.88 L718,485.88 L708,475.88 L542,475.88 " fill="#CDD6E0" style="stroke:#1D4776;stroke-width:0.5;"/><path d="M708,475.88 L708,485.88 L718,485.88 L708,475.88 " fill="#CDD6E0" style="stroke:#1D4776;stroke-width:0.5;"/><text fill="#000000" font-family="Avenir" font-size="13" lengthAdjust="spacing" textLength="155.428" x="548" y="493.88">A request ID (UUID) will be</text><text fill="#000000" font-family="Avenir" font-size="13" lengthAdjust="spacing" textLength="130" x="551.614" y="511.638">assigned by the server</text><polygon fill="#002851" points="647.169,542.056,637.169,546.056,647.169,550.056,643.169,546.056" style="stroke:#002851;stroke-width:1.0;"/><polygon fill="#002851" points="782.226,542.056,792.226,546.056,782.226,550.056,786.226,546.056" style="stroke:#002851;stroke-width:1.0;"/><line style="stroke:#002851;stroke-width:2.0;" x1="641.169" x2="788.226" y1="546.056" y2="546.056"/><text fill="#4C4C4C" font-family="Avenir" font-size="10" font-weight="bold" lengthAdjust="spacing" textLength="5.56" x="653.169" y="540.396">6</text><text fill="#4C4C4C" font-family="Avenir" font-size="10" lengthAdjust="spacing" textLength="115.54" x="662.729" y="540.396">Validates request payload</text><polygon fill="#002851" points="782.226,601.402,792.226,605.402,782.226,609.402,786.226,605.402" style="stroke:#002851;stroke-width:1.0;"/><line style="stroke:#002851;stroke-width:2.0;" x1="636.169" x2="788.226" y1="605.402" y2="605.402"/><text fill="#4C4C4C" font-family="Avenir" font-size="10" font-weight="bold" lengthAdjust="spacing" textLength="5.56" x="643.169" y="599.742">7</text><text fill="#4C4C4C" font-family="Avenir" font-size="10" lengthAdjust="spacing" textLength="63.92" x="652.729" y="599.742">Saves payload</text><path d="M799,559.056 L799,640.056 L1206,640.056 L1206,569.056 L1196,559.056 L799,559.056 " fill="#CDD6E0" style="stroke:#1D4776;stroke-width:0.5;"/><path d="M1196,559.056 L1196,569.056 L1206,569.056 L1196,559.056 " fill="#CDD6E0" style="stroke:#1D4776;stroke-width:0.5;"/><text fill="#000000" font-family="Avenir" font-size="13" lengthAdjust="spacing" textLength="371.189" x="805" y="577.056">All valid request payloads received by the server will be logged,</text><text fill="#000000" font-family="Avenir" font-size="13" lengthAdjust="spacing" textLength="386.113" x="805" y="594.814">both request and response, timing, status, and source information.</text><text fill="#000000" font-family="Avenir" font-size="13" lengthAdjust="spacing" textLength="351.7539" x="805" y="612.572">This will be used by the response polling, and could be used</text><text fill="#000000" font-family="Avenir" font-size="13" lengthAdjust="spacing" textLength="382.98" x="805" y="630.33">for message replay, though that function should be built into NiFi.</text><polygon fill="#002851" points="369.746,660.748,359.746,664.748,369.746,668.748,365.746,664.748" style="stroke:#002851;stroke-width:1.0;"/><line style="stroke:#002851;stroke-width:2.0;stroke-dasharray:2.0,2.0;" x1="363.746" x2="630.169" y1="664.748" y2="664.748"/><text fill="#4C4C4C" font-family="Avenir" font-size="10" font-weight="bold" lengthAdjust="spacing" textLength="5.56" x="375.746" y="659.088">8</text><text fill="#4C4C4C" font-family="Avenir" font-size="10" lengthAdjust="spacing" textLength="142.77" x="385.306" y="659.088">Generates and returns response</text><polygon fill="#002851" points="197.686,688.408,187.686,692.408,197.686,696.408,193.686,692.408" style="stroke:#002851;stroke-width:1.0;"/><line style="stroke:#002851;stroke-width:2.0;stroke-dasharray:2.0,2.0;" x1="191.686" x2="352.746" y1="692.408" y2="692.408"/><text fill="#4C4C4C" font-family="Avenir" font-size="10" font-weight="bold" lengthAdjust="spacing" textLength="5.56" x="203.686" y="686.748">9</text><text fill="#4C4C4C" font-family="Avenir" font-size="10" lengthAdjust="spacing" textLength="84.25" x="213.246" y="686.748">Forwards response</text><polygon fill="#002851" points="61.77,729.996,51.77,733.996,61.77,737.996,57.77,733.996" style="stroke:#002851;stroke-width:1.0;"/><line style="stroke:#002851;stroke-width:2.0;stroke-dasharray:2.0,2.0;" x1="55.77" x2="180.686" y1="733.996" y2="733.996"/><text fill="#4C4C4C" font-family="Avenir" font-size="10" font-weight="bold" lengthAdjust="spacing" textLength="11.12" x="67.77" y="728.336">10</text><text fill="#4C4C4C" font-family="Avenir" font-size="10" lengthAdjust="spacing" textLength="84.25" x="82.89" y="728.336">Forwards response</text><path d="M191,705.408 L191,750.408 L607,750.408 L607,715.408 L597,705.408 L191,705.408 " fill="#CDD6E0" style="stroke:#1D4776;stroke-width:0.5;"/><path d="M597,705.408 L597,715.408 L607,715.408 L597,705.408 " fill="#CDD6E0" style="stroke:#1D4776;stroke-width:0.5;"/><text fill="#000000" font-family="Avenir" font-size="13" lengthAdjust="spacing" textLength="382.2" x="197" y="723.408">The response to the client will contain the identifier of the request</text><text fill="#000000" font-family="Avenir" font-size="13" lengthAdjust="spacing" textLength="395.148" x="197" y="741.166">as well as a URI which can be used to track the status of the request.</text><text fill="#888888" font-family="Avenir" font-size="10" lengthAdjust="spacing" textLength="250.0699" x="482.6345" y="859.048">Author: Jonathan Keller 11/2/2020 - Revised: 8/28/2023</text><!--SRC=[bLNRRjj647tdLqpKbmQnR4S1Ya2e0wXI8YYNMhRY1YWC5ClbY5nukSliHQh-lZFBYotLUSYBI94pPywSCxDyeOpKiK28ilZ7XuF6SnLhdML11OsmTbQYzygKi3AvZQQ0XGW2Rl5xH1yoYIQWWwsrV9d5K5atXO_MY5090vzGQth- -lN5v69oERc4CMNkbCTY2cyl9c_vuPii4p9O1wEvLWG7cuCFM8z0U9Xlijp-2zymXmswdP88Sritrb2Spm0I8-4ECFgskPx0RBs2fGYu5uSHp3R03ocg4IuegHf1uAEb4qrry_aeRddpkVjx4hrqDZReVeIHf61Yw19TmicG92BEYVUAn2cT2CeQMAi6jJ9F6u1Vvel5R-yl2RuWf5nuXD7JdCKVYTxQ-b0wzASqPesG5SAVweDASNn3CUHCHFWajWzYO7EKT-s4r9XItj-ki-pgglSJRZYNtRww8bjYi2RMEJkOpJSmVfSKXLUlO0gRcDUAUkYqk3TVOcXPNvDYwIupD1LWIPsKDsspzqfhe92jTJLGYOgaK38bt1j1V9LHGGcTtlqDrA5yo58crNzqgcNnmRgzSCL0uzdYZqbJEB4VR1w4CXwSrUXXwspTctvlWDc845Xb3y62wrGYwe26VYNMn9uYymDG8_3CO6HFA7C3BJXHxoGVIXDcz1pVHOoFs-M449tvV_mnFbN_AMMcC1lwMYtWrxkxrU9bQrAEh05jVscmw5lqGrVmEzNhPvCg_YMqeZcc-nwl4GTjHP62ZsCtOaVN_dqYv5HP1HfVW1dLtZ7OAH0ZIrIxKpOzNT2sBB4uIoYv3TK0m4vIPLeyZsSGL4qpVWQU9ZRwi_JMsqXsql3nN2QTpXFCrqhv0Py47qhtSD1OhHCSmqWRTT679W0sggOpL9ISqsXn80ALZML55q7358rCU-EhFZUFIWUYGYF7EttEQymQjK8UpyLuJ78kqR2v96dRQ3Se7SEZ4UcNEEKDGpA4Tk_U0U_xyo45qdcjTWJ8v_E9Tr-VAaFyMIdPdkj9H6aDBrnwhWfU_QqY0-ssqxJzh30IdQTx-dpmLS3TxGhsbP8LIFgiz4umFfrb3-qe93DFa1wb-my0]--></g></svg>