<svg xmlns="http://www.w3.org/2000/svg" xmlns:xlink="http://www.w3.org/1999/xlink" contentStyleType="text/css" height="1102px" preserveAspectRatio="none" style="width:1290px;height:1102px;background:#FFFFFF;" version="1.1" viewBox="0 0 1290 1102" width="1290px" zoomAndPan="magnify"><title>Processing Inbound Data Request</title><defs/><g><text fill="#000000" font-family="Avenir" font-size="14" font-weight="bold" lengthAdjust="spacing" textLength="211.652" x="535.422" y="29">Processing Inbound Data Request</text><rect fill="#FFF9E5" height="1033.766" style="stroke:#000000;stroke-width:0.5;" width="573.882" x="112.54" y="46.124"/><text fill="#002851" font-family="Avenir" font-size="13" font-weight="bold" lengthAdjust="spacing" textLength="151.45" x="323.756" y="59.124">Web Service Components</text><rect fill="#CDD6E0" height="1033.766" style="stroke:#000000;stroke-width:0.5;" width="453.592" x="708.422" y="46.124"/><text fill="#002851" font-family="Avenir" font-size="13" font-weight="bold" lengthAdjust="spacing" textLength="192.387" x="837.2175" y="59.124">Integration Pipeline Components</text><rect fill="#FFF2CC" height="158.28" style="stroke:#1D4776;stroke-width:1.5;" width="465.592" x="702.422" y="197.13"/><rect fill="#FFF2CC" height="213.77" style="stroke:#1D4776;stroke-width:1.5;" width="561.074" x="702.422" y="369.41"/><rect fill="#FFF2CC" height="247.384" style="stroke:#1D4776;stroke-width:1.5;" width="581.074" x="692.422" y="644.304"/><rect fill="#FFF2CC" height="185.94" style="stroke:#1D4776;stroke-width:1.5;" width="561.074" x="702.422" y="698.748"/><rect fill="#FFF2CC" height="75.078" style="stroke:#1D4776;stroke-width:1.5;" width="465.592" x="702.422" y="905.688"/><line style="stroke:#1D4776;stroke-width:0.5;stroke-dasharray:5.0,5.0;" x1="50" x2="50" y1="133.006" y2="997.766"/><line style="stroke:#1D4776;stroke-width:0.5;stroke-dasharray:5.0,5.0;" x1="181.54" x2="181.54" y1="133.006" y2="997.766"/><line style="stroke:#1D4776;stroke-width:0.5;stroke-dasharray:5.0,5.0;" x1="331.832" x2="331.832" y1="133.006" y2="997.766"/><line style="stroke:#1D4776;stroke-width:0.5;stroke-dasharray:5.0,5.0;" x1="460.256" x2="460.256" y1="133.006" y2="997.766"/><line style="stroke:#1D4776;stroke-width:0.5;stroke-dasharray:5.0,5.0;" x1="597.868" x2="597.868" y1="133.006" y2="997.766"/><line style="stroke:#1D4776;stroke-width:0.5;stroke-dasharray:5.0,5.0;" x1="760.422" x2="760.422" y1="133.006" y2="997.766"/><line style="stroke:#1D4776;stroke-width:0.5;stroke-dasharray:5.0,5.0;" x1="936.678" x2="936.678" y1="133.006" y2="997.766"/><line style="stroke:#1D4776;stroke-width:0.5;stroke-dasharray:5.0,5.0;" x1="1130.77" x2="1130.77" y1="133.006" y2="997.766"/><line style="stroke:#1D4776;stroke-width:0.5;stroke-dasharray:5.0,5.0;" x1="1215.014" x2="1215.014" y1="133.006" y2="997.766"/><text fill="#002851" font-family="Avenir" font-size="14" font-weight="bold" lengthAdjust="spacing" textLength="85.54" x="5" y="127.882">Client System</text><ellipse cx="50.77" cy="62.382" fill="#FFE599" rx="8" ry="8" style="stroke:#033266;stroke-width:0.5;"/><path d="M50.77,70.382 L50.77,97.382 M37.77,78.382 L63.77,78.382 M50.77,97.382 L37.77,112.382 M50.77,97.382 L63.77,112.382 " fill="none" style="stroke:#033266;stroke-width:0.5;"/><text fill="#002851" font-family="Avenir" font-size="14" font-weight="bold" lengthAdjust="spacing" textLength="85.54" x="5" y="1010.766">Client System</text><ellipse cx="50.77" cy="1024.39" fill="#FFE599" rx="8" ry="8" style="stroke:#033266;stroke-width:0.5;"/><path d="M50.77,1032.39 L50.77,1059.39 M37.77,1040.39 L63.77,1040.39 M50.77,1059.39 L37.77,1074.39 M50.77,1059.39 L63.77,1074.39 " fill="none" style="stroke:#033266;stroke-width:0.5;"/><text fill="#002851" font-family="Avenir" font-size="14" font-weight="bold" lengthAdjust="spacing" textLength="124.292" x="116.54" y="127.882">WSO2 API Gateway</text><path d="M161.186,85.882 L161.186,109.882 M161.186,97.882 L178.186,97.882 " fill="none" style="stroke:#000000;stroke-width:0.5;"/><ellipse cx="190.186" cy="97.882" fill="#FFE599" rx="12" ry="12" style="stroke:#000000;stroke-width:0.5;"/><text fill="#002851" font-family="Avenir" font-size="14" font-weight="bold" lengthAdjust="spacing" textLength="124.292" x="116.54" y="1010.766">WSO2 API Gateway</text><path d="M161.186,1019.89 L161.186,1043.89 M161.186,1031.89 L178.186,1031.89 " fill="none" style="stroke:#000000;stroke-width:0.5;"/><ellipse cx="190.186" cy="1031.89" fill="#FFE599" rx="12" ry="12" style="stroke:#000000;stroke-width:0.5;"/><rect fill="#FFE599" height="33.124" rx="2.5" ry="2.5" style="stroke:#000000;stroke-width:0.5;" width="130.424" x="266.832" y="98.882"/><text fill="#002851" font-family="Avenir" font-size="14" font-weight="bold" lengthAdjust="spacing" textLength="116.424" x="273.832" y="119.882">GraphQL Gateway</text><rect fill="#FFE599" height="33.124" rx="2.5" ry="2.5" style="stroke:#000000;stroke-width:0.5;" width="130.424" x="266.832" y="996.766"/><text fill="#002851" font-family="Avenir" font-size="14" font-weight="bold" lengthAdjust="spacing" textLength="116.424" x="273.832" y="1017.766">GraphQL Gateway</text><rect fill="#FFE599" height="33.124" rx="2.5" ry="2.5" style="stroke:#000000;stroke-width:0.5;" width="66.612" x="427.256" y="98.882"/><text fill="#002851" font-family="Avenir" font-size="14" font-weight="bold" lengthAdjust="spacing" textLength="52.612" x="434.256" y="119.882">Grouper</text><rect fill="#FFE599" height="33.124" rx="2.5" ry="2.5" style="stroke:#000000;stroke-width:0.5;" width="66.612" x="427.256" y="996.766"/><text fill="#002851" font-family="Avenir" font-size="14" font-weight="bold" lengthAdjust="spacing" textLength="52.612" x="434.256" y="1017.766">Grouper</text><rect fill="#FFE599" height="33.124" rx="2.5" ry="2.5" style="stroke:#000000;stroke-width:0.5;" width="148.554" x="523.868" y="98.882"/><text fill="#002851" font-family="Avenir" font-size="14" font-weight="bold" lengthAdjust="spacing" textLength="134.554" x="530.868" y="119.882">GraphQL Data Server</text><rect fill="#FFE599" height="33.124" rx="2.5" ry="2.5" style="stroke:#000000;stroke-width:0.5;" width="148.554" x="523.868" y="996.766"/><text fill="#002851" font-family="Avenir" font-size="14" font-weight="bold" lengthAdjust="spacing" textLength="134.554" x="530.868" y="1017.766">GraphQL Data Server</text><text fill="#002851" font-family="Avenir" font-size="14" font-weight="bold" lengthAdjust="spacing" textLength="91.56" x="712.422" y="127.882">Integration DB</text><path d="M743.202,77.882 C743.202,67.882 761.202,67.882 761.202,67.882 C761.202,67.882 779.202,67.882 779.202,77.882 L779.202,103.882 C779.202,113.882 761.202,113.882 761.202,113.882 C761.202,113.882 743.202,113.882 743.202,103.882 L743.202,77.882 " fill="#FFE599" style="stroke:#000000;stroke-width:1.5;"/><path d="M743.202,77.882 C743.202,87.882 761.202,87.882 761.202,87.882 C761.202,87.882 779.202,87.882 779.202,77.882 " fill="none" style="stroke:#000000;stroke-width:1.5;"/><text fill="#002851" font-family="Avenir" font-size="14" font-weight="bold" lengthAdjust="spacing" textLength="91.56" x="712.422" y="1010.766">Integration DB</text><path d="M743.202,1025.89 C743.202,1015.89 761.202,1015.89 761.202,1015.89 C761.202,1015.89 779.202,1015.89 779.202,1025.89 L779.202,1051.89 C779.202,1061.89 761.202,1061.89 761.202,1061.89 C761.202,1061.89 743.202,1061.89 743.202,1051.89 L743.202,1025.89 " fill="#FFE599" style="stroke:#000000;stroke-width:1.5;"/><path d="M743.202,1025.89 C743.202,1035.89 761.202,1035.89 761.202,1035.89 C761.202,1035.89 779.202,1035.89 779.202,1025.89 " fill="none" style="stroke:#000000;stroke-width:1.5;"/><rect fill="#FFE599" height="33.124" rx="2.5" ry="2.5" style="stroke:#000000;stroke-width:0.5;" width="91.028" x="891.678" y="98.882"/><text fill="#002851" font-family="Avenir" font-size="14" font-weight="bold" lengthAdjust="spacing" textLength="77.028" x="898.678" y="119.882">Apache NiFi</text><rect fill="#FFE599" height="33.124" rx="2.5" ry="2.5" style="stroke:#000000;stroke-width:0.5;" width="91.028" x="891.678" y="996.766"/><text fill="#002851" font-family="Avenir" font-size="14" font-weight="bold" lengthAdjust="spacing" textLength="77.028" x="898.678" y="1017.766">Apache NiFi</text><path d="M1108.77,103.882 L1153.014,103.882 C1158.014,103.882 1158.014,118.444 1158.014,118.444 C1158.014,118.444 1158.014,133.006 1153.014,133.006 L1108.77,133.006 C1103.77,133.006 1103.77,118.444 1103.77,118.444 C1103.77,118.444 1103.77,103.882 1108.77,103.882 " fill="#FFE599" style="stroke:#000000;stroke-width:0.5;"/><path d="M1153.014,103.882 C1148.014,103.882 1148.014,118.444 1148.014,118.444 C1148.014,133.006 1153.014,133.006 1153.014,133.006 " fill="none" style="stroke:#000000;stroke-width:0.5;"/><text fill="#002851" font-family="Avenir" font-size="14" font-weight="bold" lengthAdjust="spacing" textLength="34.244" x="1108.77" y="122.882">Kafka</text><path d="M1108.77,996.766 L1153.014,996.766 C1158.014,996.766 1158.014,1011.328 1158.014,1011.328 C1158.014,1011.328 1158.014,1025.89 1153.014,1025.89 L1108.77,1025.89 C1103.77,1025.89 1103.77,1011.328 1103.77,1011.328 C1103.77,1011.328 1103.77,996.766 1108.77,996.766 " fill="#FFE599" style="stroke:#000000;stroke-width:0.5;"/><path d="M1153.014,996.766 C1148.014,996.766 1148.014,1011.328 1148.014,1011.328 C1148.014,1025.89 1153.014,1025.89 1153.014,1025.89 " fill="none" style="stroke:#000000;stroke-width:0.5;"/><text fill="#002851" font-family="Avenir" font-size="14" font-weight="bold" lengthAdjust="spacing" textLength="34.244" x="1108.77" y="1015.766">Kafka</text><rect fill="#FFE599" height="33.124" rx="2.5" ry="2.5" style="stroke:#000000;stroke-width:0.5;" width="55.482" x="1188.014" y="98.882"/><text fill="#002851" font-family="Avenir" font-size="14" font-weight="bold" lengthAdjust="spacing" textLength="41.482" x="1195.014" y="119.882">Oracle</text><rect fill="#FFE599" height="33.124" rx="2.5" ry="2.5" style="stroke:#000000;stroke-width:0.5;" width="55.482" x="1188.014" y="996.766"/><text fill="#002851" font-family="Avenir" font-size="14" font-weight="bold" lengthAdjust="spacing" textLength="41.482" x="1195.014" y="1017.766">Oracle</text><rect fill="#CDD6E0" height="3" style="stroke:#CDD6E0;stroke-width:1.0;" width="1283.496" x="0" y="165.568"/><line style="stroke:#002851;stroke-width:1.0;" x1="0" x2="1283.496" y1="165.568" y2="165.568"/><line style="stroke:#002851;stroke-width:1.0;" x1="0" x2="1283.496" y1="168.568" y2="168.568"/><rect fill="#CDD6E0" height="27.124" style="stroke:#002851;stroke-width:2.0;" width="143.388" x="570.054" y="153.006"/><text fill="#000000" font-family="Avenir" font-size="14" font-weight="bold" lengthAdjust="spacing" textLength="125.496" x="576.054" y="171.006">Request Submission</text><path d="M702.422,197.13 L773.903,197.13 L773.903,206.888 L763.903,216.888 L702.422,216.888 L702.422,197.13 " fill="#FFF9E5" style="stroke:#1D4776;stroke-width:1.5;"/><rect fill="none" height="158.28" style="stroke:#1D4776;stroke-width:1.5;" width="465.592" x="702.422" y="197.13"/><text fill="#000000" font-family="Avenir" font-size="13" font-weight="bold" lengthAdjust="spacing" textLength="26.481" x="717.422" y="211.13">loop</text><text fill="#002851" font-family="Avenir" font-size="11" font-weight="bold" lengthAdjust="spacing" textLength="92.543" x="788.903" y="210.13">[Every 15 Seconds]</text><polygon fill="#002851" points="772.202,232.574,762.202,236.574,772.202,240.574,768.202,236.574" style="stroke:#002851;stroke-width:1.0;"/><polygon fill="#002851" points="925.192,232.574,935.192,236.574,925.192,240.574,929.192,236.574" style="stroke:#002851;stroke-width:1.0;"/><line style="stroke:#002851;stroke-width:2.0;" x1="766.202" x2="931.192" y1="236.574" y2="236.574"/><text fill="#4C4C4C" font-family="Avenir" font-size="10" font-weight="bold" lengthAdjust="spacing" textLength="5.56" x="778.202" y="230.914">1</text><text fill="#4C4C4C" font-family="Avenir" font-size="10" lengthAdjust="spacing" textLength="108.9" x="787.762" y="230.914">Checks for new requests</text><path d="M817,249.574 L817,294.574 L1056,294.574 L1056,259.574 L1046,249.574 L817,249.574 " fill="#CDD6E0" style="stroke:#1D4776;stroke-width:0.5;"/><path d="M1046,249.574 L1046,259.574 L1056,259.574 L1046,249.574 " fill="#CDD6E0" style="stroke:#1D4776;stroke-width:0.5;"/><text fill="#000000" font-family="Avenir" font-size="13" lengthAdjust="spacing" textLength="215.163" x="823" y="267.574">NiFi extracts request information and</text><text fill="#000000" font-family="Avenir" font-size="13" lengthAdjust="spacing" textLength="179.322" x="823" y="285.332">identifies which pipeline to use</text><polygon fill="#002851" points="772.202,315.75,762.202,319.75,772.202,323.75,768.202,319.75" style="stroke:#002851;stroke-width:1.0;"/><line style="stroke:#002851;stroke-width:2.0;" x1="766.202" x2="936.192" y1="319.75" y2="319.75"/><text fill="#4C4C4C" font-family="Avenir" font-size="10" font-weight="bold" lengthAdjust="spacing" textLength="5.56" x="778.202" y="314.09">2</text><text fill="#4C4C4C" font-family="Avenir" font-size="10" lengthAdjust="spacing" textLength="106.48" x="787.762" y="314.09">Updates Request Status</text><polygon fill="#002851" points="1118.892,343.41,1128.892,347.41,1118.892,351.41,1122.892,347.41" style="stroke:#002851;stroke-width:1.0;"/><line style="stroke:#002851;stroke-width:2.0;" x1="937.192" x2="1124.892" y1="347.41" y2="347.41"/><text fill="#4C4C4C" font-family="Avenir" font-size="10" font-weight="bold" lengthAdjust="spacing" textLength="5.56" x="944.192" y="341.75">3</text><text fill="#4C4C4C" font-family="Avenir" font-size="10" lengthAdjust="spacing" textLength="160.14" x="953.752" y="341.75">Publishes request into request topic</text><path d="M702.422,369.41 L904.033,369.41 L904.033,379.168 L894.033,389.168 L702.422,389.168 L702.422,369.41 " fill="#FFF9E5" style="stroke:#1D4776;stroke-width:1.5;"/><rect fill="none" height="213.77" style="stroke:#1D4776;stroke-width:1.5;" width="561.074" x="702.422" y="369.41"/><text fill="#000000" font-family="Avenir" font-size="13" font-weight="bold" lengthAdjust="spacing" textLength="156.611" x="717.422" y="383.41">For Each Message In Topic</text><polygon fill="#002851" points="948.192,404.828,938.192,408.828,948.192,412.828,944.192,408.828" style="stroke:#002851;stroke-width:1.0;"/><line style="stroke:#002851;stroke-width:2.0;stroke-dasharray:2.0,2.0;" x1="942.192" x2="1129.892" y1="408.828" y2="408.828"/><text fill="#4C4C4C" font-family="Avenir" font-size="10" font-weight="bold" lengthAdjust="spacing" textLength="5.56" x="954.192" y="403.168">4</text><text fill="#4C4C4C" font-family="Avenir" font-size="10" lengthAdjust="spacing" textLength="133.5" x="963.752" y="403.168">Pulls new requests from Topic</text><path d="M764,421.828 L764,448.828 L1108,448.828 L1108,431.828 L1098,421.828 L764,421.828 " fill="#CDD6E0" style="stroke:#1D4776;stroke-width:0.5;"/><path d="M1098,421.828 L1098,431.828 L1108,431.828 L1098,421.828 " fill="#CDD6E0" style="stroke:#1D4776;stroke-width:0.5;"/><text fill="#000000" font-family="Avenir" font-size="13" lengthAdjust="spacing" textLength="323.752" x="770" y="439.828">validates and prepares request for submission to Oracle</text><polygon fill="#002851" points="772.202,470.246,762.202,474.246,772.202,478.246,768.202,474.246" style="stroke:#002851;stroke-width:1.0;"/><polygon fill="#002851" points="925.192,470.246,935.192,474.246,925.192,478.246,929.192,474.246" style="stroke:#002851;stroke-width:1.0;"/><line style="stroke:#002851;stroke-width:2.0;" x1="766.202" x2="931.192" y1="474.246" y2="474.246"/><text fill="#4C4C4C" font-family="Avenir" font-size="10" font-weight="bold" lengthAdjust="spacing" textLength="5.56" x="778.202" y="468.586">5</text><text fill="#4C4C4C" font-family="Avenir" font-size="10" lengthAdjust="spacing" textLength="134.43" x="787.762" y="468.586">Validation and Status Updates</text><polygon fill="#002851" points="1203.755,497.906,1213.755,501.906,1203.755,505.906,1207.755,501.906" style="stroke:#002851;stroke-width:1.0;"/><line style="stroke:#002851;stroke-width:2.0;" x1="937.192" x2="1209.755" y1="501.906" y2="501.906"/><text fill="#4C4C4C" font-family="Avenir" font-size="10" font-weight="bold" lengthAdjust="spacing" textLength="5.56" x="944.192" y="496.246">6</text><text fill="#4C4C4C" font-family="Avenir" font-size="10" lengthAdjust="spacing" textLength="142.58" x="953.752" y="496.246">Formats and submits job to ERP</text><polygon fill="#002851" points="772.202,548.373,762.202,552.373,772.202,556.373,768.202,552.373" style="stroke:#002851;stroke-width:1.0;"/><line style="stroke:#002851;stroke-width:2.0;" x1="766.202" x2="936.192" y1="552.373" y2="552.373"/><text fill="#4C4C4C" font-family="Avenir" font-size="10" font-weight="bold" lengthAdjust="spacing" textLength="5.56" x="778.202" y="546.713">7</text><text fill="#4C4C4C" font-family="Avenir" font-size="10" lengthAdjust="spacing" textLength="90.27" x="787.762" y="546.713">Saves Oracle Job ID</text><path d="M942,514.906 L942,577.906 L1150,577.906 L1150,524.906 L1140,514.906 L942,514.906 " fill="#CDD6E0" style="stroke:#1D4776;stroke-width:0.5;"/><path d="M1140,514.906 L1140,524.906 L1150,524.906 L1140,514.906 " fill="#CDD6E0" style="stroke:#1D4776;stroke-width:0.5;"/><text fill="#000000" font-family="Avenir" font-size="13" lengthAdjust="spacing" textLength="187.5119" x="948" y="532.906">Oracle runs a set of internal jobs</text><text fill="#000000" font-family="Avenir" font-size="13" lengthAdjust="spacing" textLength="181.519" x="948" y="550.664">and uploads the results as a zip</text><text fill="#000000" font-family="Avenir" font-size="13" lengthAdjust="spacing" textLength="132.639" x="948" y="568.422">into their UCM system.</text><rect fill="#CDD6E0" height="3" style="stroke:#CDD6E0;stroke-width:1.0;" width="1283.496" x="0" y="612.742"/><line style="stroke:#002851;stroke-width:1.0;" x1="0" x2="1283.496" y1="612.742" y2="612.742"/><line style="stroke:#002851;stroke-width:1.0;" x1="0" x2="1283.496" y1="615.742" y2="615.742"/><rect fill="#CDD6E0" height="27.124" style="stroke:#002851;stroke-width:2.0;" width="183.54" x="549.978" y="600.18"/><text fill="#000000" font-family="Avenir" font-size="14" font-weight="bold" lengthAdjust="spacing" textLength="165.648" x="555.978" y="618.18">Request Result Monitoring</text><path d="M692.422,644.304 L763.903,644.304 L763.903,654.062 L753.903,664.062 L692.422,664.062 L692.422,644.304 " fill="#FFF9E5" style="stroke:#1D4776;stroke-width:1.5;"/><rect fill="none" height="247.384" style="stroke:#1D4776;stroke-width:1.5;" width="581.074" x="692.422" y="644.304"/><text fill="#000000" font-family="Avenir" font-size="13" font-weight="bold" lengthAdjust="spacing" textLength="26.481" x="707.422" y="658.304">loop</text><text fill="#002851" font-family="Avenir" font-size="11" font-weight="bold" lengthAdjust="spacing" textLength="98.021" x="778.903" y="657.304">[Every Few Minutes]</text><polygon fill="#002851" points="772.202,679.748,762.202,683.748,772.202,687.748,768.202,683.748" style="stroke:#002851;stroke-width:1.0;"/><polygon fill="#002851" points="925.192,679.748,935.192,683.748,925.192,687.748,929.192,683.748" style="stroke:#002851;stroke-width:1.0;"/><line style="stroke:#002851;stroke-width:2.0;" x1="766.202" x2="931.192" y1="683.748" y2="683.748"/><text fill="#4C4C4C" font-family="Avenir" font-size="10" font-weight="bold" lengthAdjust="spacing" textLength="5.56" x="778.202" y="678.088">1</text><text fill="#4C4C4C" font-family="Avenir" font-size="10" lengthAdjust="spacing" textLength="142" x="787.762" y="678.088">Retrieves list of incomplete jobs</text><path d="M702.422,698.748 L773.903,698.748 L773.903,708.506 L763.903,718.506 L702.422,718.506 L702.422,698.748 " fill="#FFF9E5" style="stroke:#1D4776;stroke-width:1.5;"/><rect fill="none" height="185.94" style="stroke:#1D4776;stroke-width:1.5;" width="561.074" x="702.422" y="698.748"/><text fill="#000000" font-family="Avenir" font-size="13" font-weight="bold" lengthAdjust="spacing" textLength="26.481" x="717.422" y="712.748">loop</text><text fill="#002851" font-family="Avenir" font-size="11" font-weight="bold" lengthAdjust="spacing" textLength="70.323" x="788.903" y="711.748">[For Each Job]</text><polygon fill="#002851" points="1203.755,734.192,1213.755,738.192,1203.755,742.192,1207.755,738.192" style="stroke:#002851;stroke-width:1.0;"/><line style="stroke:#002851;stroke-width:2.0;" x1="937.192" x2="1209.755" y1="738.192" y2="738.192"/><text fill="#4C4C4C" font-family="Avenir" font-size="10" font-weight="bold" lengthAdjust="spacing" textLength="5.56" x="944.192" y="732.532">2</text><text fill="#4C4C4C" font-family="Avenir" font-size="10" lengthAdjust="spacing" textLength="109.98" x="953.752" y="732.532">Polls UCM for job results</text><polygon fill="#002851" points="948.192,761.852,938.192,765.852,948.192,769.852,944.192,765.852" style="stroke:#002851;stroke-width:1.0;"/><line style="stroke:#002851;stroke-width:2.0;stroke-dasharray:2.0,2.0;" x1="942.192" x2="1214.755" y1="765.852" y2="765.852"/><text fill="#4C4C4C" font-family="Avenir" font-size="10" font-weight="bold" lengthAdjust="spacing" textLength="5.56" x="954.192" y="760.192">3</text><text fill="#4C4C4C" font-family="Avenir" font-size="10" lengthAdjust="spacing" textLength="109.58" x="963.752" y="760.192">Returns results if present</text><path d="M873,778.852 L873,823.852 L999,823.852 L999,788.852 L989,778.852 L873,778.852 " fill="#CDD6E0" style="stroke:#1D4776;stroke-width:0.5;"/><path d="M989,778.852 L989,788.852 L999,788.852 L989,778.852 " fill="#CDD6E0" style="stroke:#1D4776;stroke-width:0.5;"/><text fill="#000000" font-family="Avenir" font-size="13" lengthAdjust="spacing" textLength="105.404" x="879" y="796.852">NiFi parses results</text><text fill="#000000" font-family="Avenir" font-size="13" lengthAdjust="spacing" textLength="92.391" x="879" y="814.61">to extract status</text><polygon fill="#002851" points="772.202,845.028,762.202,849.028,772.202,853.028,768.202,849.028" style="stroke:#002851;stroke-width:1.0;"/><line style="stroke:#002851;stroke-width:2.0;" x1="766.202" x2="936.192" y1="849.028" y2="849.028"/><text fill="#4C4C4C" font-family="Avenir" font-size="10" font-weight="bold" lengthAdjust="spacing" textLength="5.56" x="778.202" y="843.368">4</text><text fill="#4C4C4C" font-family="Avenir" font-size="10" lengthAdjust="spacing" textLength="79.1" x="787.762" y="843.368">Saves Job Results</text><polygon fill="#002851" points="1118.892,872.688,1128.892,876.688,1118.892,880.688,1122.892,876.688" style="stroke:#002851;stroke-width:1.0;"/><line style="stroke:#002851;stroke-width:2.0;" x1="937.192" x2="1124.892" y1="876.688" y2="876.688"/><text fill="#4C4C4C" font-family="Avenir" font-size="10" font-weight="bold" lengthAdjust="spacing" textLength="5.56" x="944.192" y="871.028">5</text><text fill="#4C4C4C" font-family="Avenir" font-size="10" lengthAdjust="spacing" textLength="112.4" x="953.752" y="871.028">Publishes job completion</text><path d="M702.422,905.688 L954.2649,905.688 L954.2649,915.446 L944.2649,925.446 L702.422,925.446 L702.422,905.688 " fill="#FFF9E5" style="stroke:#1D4776;stroke-width:1.5;"/><rect fill="none" height="75.078" style="stroke:#1D4776;stroke-width:1.5;" width="465.592" x="702.422" y="905.688"/><text fill="#000000" font-family="Avenir" font-size="13" font-weight="bold" lengthAdjust="spacing" textLength="206.843" x="717.422" y="919.688">Upon Completion Message Receipt</text><polygon fill="#002851" points="948.192,941.106,938.192,945.106,948.192,949.106,944.192,945.106" style="stroke:#002851;stroke-width:1.0;"/><line style="stroke:#002851;stroke-width:2.0;" x1="942.192" x2="1129.892" y1="945.106" y2="945.106"/><text fill="#4C4C4C" font-family="Avenir" font-size="10" font-weight="bold" lengthAdjust="spacing" textLength="5.56" x="954.192" y="939.446">6</text><text fill="#4C4C4C" font-family="Avenir" font-size="10" lengthAdjust="spacing" textLength="120.19" x="963.752" y="939.446">Pulls completion messages</text><polygon fill="#002851" points="772.202,968.766,762.202,972.766,772.202,976.766,768.202,972.766" style="stroke:#002851;stroke-width:1.0;"/><line style="stroke:#002851;stroke-width:2.0;" x1="766.202" x2="936.192" y1="972.766" y2="972.766"/><text fill="#4C4C4C" font-family="Avenir" font-size="10" font-weight="bold" lengthAdjust="spacing" textLength="5.56" x="778.202" y="967.106">7</text><text fill="#4C4C4C" font-family="Avenir" font-size="10" lengthAdjust="spacing" textLength="142.43" x="787.762" y="967.106">Saves Response data to request</text><text fill="#888888" font-family="Avenir" font-size="10" lengthAdjust="spacing" textLength="250.0699" x="516.213" y="1090.89">Author: Jonathan Keller 11/2/2020 - Revised: 8/28/2023</text><!--SRC=[VLJRJjj047ttLqpJPmgaQeMYKYbD84g14f9INf2gjJs9jsnstRq4qg_lpFg24m5FNjjdPiwSCxFlfCvKo152blzsVglmWmnhbIHUUeKmioP3vwHUmLId9kWSni8BcEFVWCud6MgF5fR6y6COV67i0BuRBNmXD5oWKlJz-FYmVzW_wX_10KLkfCDy02U7_HF- -359HEQDXTv8IKe7YwtpkEw1S31Q9AbvWZjCOO5s8pE4aLcNHXFE9G2HaR1RwDqjhlimd4rX8Zm-YcqFXWlWZuGgXVKoawMWvBs95MLnSxc3cznSrgzxw8areKJxMeue1HD36-bIdWH98k8SUKz9d9KLNXeDCrcYahhR0BmVZSUVpuueVKwPKk4GUjsOyRT8RsQSNrbq-pI6fSWAX1_oN4OS7mX3pWI42x5y42sRdRXhApA5CUHiFakIqzF6JrY4T2t9Rof-Uah616zqMAViOQACAU6CUjt2yITgEpCwPqvS5huSV6rvmW161MOFZkR2WiP7i5LwHckQ532K9SODgcXyyiI95Ac183M5hYiL1FLmhsLEaicbfFIFXSmAA1j1lO7Wi26oo-Es96NfrFRdXG-kWuqo4N0MKYLTWLqAbBXvyQQKMLIJLKYI5Gy6d5DxP-G1ND6EY1MIuV0p8g5EV40bOYcke9JRKGEMrgpRW7rXDaB9YZmBK5ea3plqM5htx1PnhMnznP1VLRP6pqg7HfwE7ZGGX3wFubULOn4w_p4fL-69UL7gXTZGio91Dq0Aqt7JbPMhmjCBDBzjq9GS77emIrOQhHQAIxW8uxgXL4Ra3ZoDE5K8Ylbmr3zPHb0qYFvA2xUZAt3nslX0lzWchXlzYaxjpFWy9eCheoLTEtorlJNgvsJObTIX8zEUj7FqLY8tJnDKDvJHaYkarkkMOi9sN4YTsC6kw3F30yAjiBSiTzrsn3AcCqrKD5ZjMcNaaaV4qOv4z8jRHWFai0svP_dgnGFNxCKRrhAdymwZrrU8kTSAqC3LZiJ5QG_L0jtIJHWln0hPxj4SCvIbVrwZlIrwJWxhAiIzDPJ4cWhHxShNB3olTMT0_WC0]--></g></svg>