<svg xmlns="http://www.w3.org/2000/svg" xmlns:xlink="http://www.w3.org/1999/xlink" contentStyleType="text/css" height="420px" preserveAspectRatio="none" style="width:1170px;height:420px;background:#FFFFFF;" version="1.1" viewBox="0 0 1170 420" width="1170px" zoomAndPan="magnify"><title>Processing Inbound Data Request</title><defs/><g><text fill="#000000" font-family="Avenir" font-size="14" font-weight="bold" lengthAdjust="spacing" textLength="211.652" x="475.529" y="29">Processing Inbound Data Request</text><rect fill="#FFF9E5" height="351.724" style="stroke:#000000;stroke-width:0.5;" width="573.882" x="180.514" y="46.124"/><text fill="#002851" font-family="Avenir" font-size="13" font-weight="bold" lengthAdjust="spacing" textLength="151.45" x="391.73" y="59.124">Web Service Components</text><rect fill="#CDD6E0" height="351.724" style="stroke:#000000;stroke-width:0.5;" width="290.832" x="776.396" y="46.124"/><text fill="#002851" font-family="Avenir" font-size="13" font-weight="bold" lengthAdjust="spacing" textLength="192.387" x="823.8115" y="59.124">Integration Pipeline Components</text><line style="stroke:#1D4776;stroke-width:0.5;stroke-dasharray:5.0,5.0;" x1="50" x2="50" y1="133.006" y2="403.848"/><line style="stroke:#1D4776;stroke-width:0.5;stroke-dasharray:5.0,5.0;" x1="249.514" x2="249.514" y1="133.006" y2="403.848"/><line style="stroke:#1D4776;stroke-width:0.5;stroke-dasharray:5.0,5.0;" x1="399.806" x2="399.806" y1="133.006" y2="403.848"/><line style="stroke:#1D4776;stroke-width:0.5;stroke-dasharray:5.0,5.0;" x1="528.23" x2="528.23" y1="133.006" y2="403.848"/><line style="stroke:#1D4776;stroke-width:0.5;stroke-dasharray:5.0,5.0;" x1="665.842" x2="665.842" y1="133.006" y2="403.848"/><line style="stroke:#1D4776;stroke-width:0.5;stroke-dasharray:5.0,5.0;" x1="828.396" x2="828.396" y1="133.006" y2="403.848"/><line style="stroke:#1D4776;stroke-width:0.5;stroke-dasharray:5.0,5.0;" x1="942.956" x2="942.956" y1="133.006" y2="403.848"/><line style="stroke:#1D4776;stroke-width:0.5;stroke-dasharray:5.0,5.0;" x1="1035.984" x2="1035.984" y1="133.006" y2="403.848"/><line style="stroke:#1D4776;stroke-width:0.5;stroke-dasharray:5.0,5.0;" x1="1120.228" x2="1120.228" y1="133.006" y2="403.848"/><text fill="#002851" font-family="Avenir" font-size="14" font-weight="bold" lengthAdjust="spacing" textLength="85.54" x="5" y="127.882">Client System</text><ellipse cx="50.77" cy="62.382" fill="#FFE599" rx="8" ry="8" style="stroke:#033266;stroke-width:0.5;"/><path d="M50.77,70.382 L50.77,97.382 M37.77,78.382 L63.77,78.382 M50.77,97.382 L37.77,112.382 M50.77,97.382 L63.77,112.382 " fill="none" style="stroke:#033266;stroke-width:0.5;"/><text fill="#002851" font-family="Avenir" font-size="14" font-weight="bold" lengthAdjust="spacing" textLength="124.292" x="184.514" y="127.882">WSO2 API Gateway</text><path d="M229.16,85.882 L229.16,109.882 M229.16,97.882 L246.16,97.882 " fill="none" style="stroke:#000000;stroke-width:0.5;"/><ellipse cx="258.16" cy="97.882" fill="#FFE599" rx="12" ry="12" style="stroke:#000000;stroke-width:0.5;"/><rect fill="#FFE599" height="33.124" rx="2.5" ry="2.5" style="stroke:#000000;stroke-width:0.5;" width="130.424" x="334.806" y="98.882"/><text fill="#002851" font-family="Avenir" font-size="14" font-weight="bold" lengthAdjust="spacing" textLength="116.424" x="341.806" y="119.882">GraphQL Gateway</text><rect fill="#FFE599" height="33.124" rx="2.5" ry="2.5" style="stroke:#000000;stroke-width:0.5;" width="66.612" x="495.23" y="98.882"/><text fill="#002851" font-family="Avenir" font-size="14" font-weight="bold" lengthAdjust="spacing" textLength="52.612" x="502.23" y="119.882">Grouper</text><rect fill="#FFE599" height="33.124" rx="2.5" ry="2.5" style="stroke:#000000;stroke-width:0.5;" width="148.554" x="591.842" y="98.882"/><text fill="#002851" font-family="Avenir" font-size="14" font-weight="bold" lengthAdjust="spacing" textLength="134.554" x="598.842" y="119.882">GraphQL Data Server</text><text fill="#002851" font-family="Avenir" font-size="14" font-weight="bold" lengthAdjust="spacing" textLength="91.56" x="780.396" y="127.882">Integration DB</text><path d="M811.176,77.882 C811.176,67.882 829.176,67.882 829.176,67.882 C829.176,67.882 847.176,67.882 847.176,77.882 L847.176,103.882 C847.176,113.882 829.176,113.882 829.176,113.882 C829.176,113.882 811.176,113.882 811.176,103.882 L811.176,77.882 " fill="#FFE599" style="stroke:#000000;stroke-width:1.5;"/><path d="M811.176,77.882 C811.176,87.882 829.176,87.882 829.176,87.882 C829.176,87.882 847.176,87.882 847.176,77.882 " fill="none" style="stroke:#000000;stroke-width:1.5;"/><rect fill="#FFE599" height="33.124" rx="2.5" ry="2.5" style="stroke:#000000;stroke-width:0.5;" width="91.028" x="897.956" y="98.882"/><text fill="#002851" font-family="Avenir" font-size="14" font-weight="bold" lengthAdjust="spacing" textLength="77.028" x="904.956" y="119.882">Apache NiFi</text><path d="M1013.984,103.882 L1058.228,103.882 C1063.228,103.882 1063.228,118.444 1063.228,118.444 C1063.228,118.444 1063.228,133.006 1058.228,133.006 L1013.984,133.006 C1008.984,133.006 1008.984,118.444 1008.984,118.444 C1008.984,118.444 1008.984,103.882 1013.984,103.882 " fill="#FFE599" style="stroke:#000000;stroke-width:0.5;"/><path d="M1058.228,103.882 C1053.228,103.882 1053.228,118.444 1053.228,118.444 C1053.228,133.006 1058.228,133.006 1058.228,133.006 " fill="none" style="stroke:#000000;stroke-width:0.5;"/><text fill="#002851" font-family="Avenir" font-size="14" font-weight="bold" lengthAdjust="spacing" textLength="34.244" x="1013.984" y="122.882">Kafka</text><rect fill="#FFE599" height="33.124" rx="2.5" ry="2.5" style="stroke:#000000;stroke-width:0.5;" width="55.482" x="1093.228" y="98.882"/><text fill="#002851" font-family="Avenir" font-size="14" font-weight="bold" lengthAdjust="spacing" textLength="41.482" x="1100.228" y="119.882">Oracle</text><rect fill="#CDD6E0" height="3" style="stroke:#CDD6E0;stroke-width:1.0;" width="1163.71" x="0" y="165.568"/><line style="stroke:#002851;stroke-width:1.0;" x1="0" x2="1163.71" y1="165.568" y2="165.568"/><line style="stroke:#002851;stroke-width:1.0;" x1="0" x2="1163.71" y1="168.568" y2="168.568"/><rect fill="#CDD6E0" height="27.124" style="stroke:#002851;stroke-width:2.0;" width="214.9" x="474.405" y="153.006"/><text fill="#000000" font-family="Avenir" font-size="14" font-weight="bold" lengthAdjust="spacing" textLength="197.008" x="480.405" y="171.006">Client Query for Request Status</text><polygon fill="#002851" points="237.66,205.79,247.66,209.79,237.66,213.79,241.66,209.79" style="stroke:#002851;stroke-width:1.0;"/><line style="stroke:#002851;stroke-width:2.0;" x1="50.77" x2="243.66" y1="209.79" y2="209.79"/><text fill="#4C4C4C" font-family="Avenir" font-size="10" font-weight="bold" lengthAdjust="spacing" textLength="5.56" x="57.77" y="204.13">1</text><text fill="#4C4C4C" font-family="Avenir" font-size="10" lengthAdjust="spacing" textLength="165.33" x="67.33" y="204.13">Requests status of submitted request</text><polygon fill="#002851" points="388.018,238.499,398.018,242.499,388.018,246.499,392.018,242.499" style="stroke:#002851;stroke-width:1.0;"/><line style="stroke:#002851;stroke-width:2.0;" x1="249.66" x2="394.018" y1="242.499" y2="242.499"/><text fill="#4C4C4C" font-family="Avenir" font-size="10" font-weight="bold" lengthAdjust="spacing" textLength="5.56" x="256.66" y="236.839">2</text><text fill="#4C4C4C" font-family="Avenir" font-size="10" lengthAdjust="spacing" textLength="77.38" x="266.22" y="236.839">Forwards request</text><path d="M405,222.79 L405,249.79 L615,249.79 L615,232.79 L605,222.79 L405,222.79 " fill="#CDD6E0" style="stroke:#1D4776;stroke-width:0.5;"/><path d="M605,222.79 L605,232.79 L615,232.79 L605,222.79 " fill="#CDD6E0" style="stroke:#1D4776;stroke-width:0.5;"/><text fill="#000000" font-family="Avenir" font-size="13" lengthAdjust="spacing" textLength="189.943" x="411" y="240.79">Skipping Role Lookup for Brevity</text><polygon fill="#002851" points="654.119,271.208,664.119,275.208,654.119,279.208,658.119,275.208" style="stroke:#002851;stroke-width:1.0;"/><line style="stroke:#002851;stroke-width:2.0;" x1="400.018" x2="660.119" y1="275.208" y2="275.208"/><text fill="#4C4C4C" font-family="Avenir" font-size="10" font-weight="bold" lengthAdjust="spacing" textLength="5.56" x="407.018" y="269.548">3</text><text fill="#4C4C4C" font-family="Avenir" font-size="10" lengthAdjust="spacing" textLength="77.38" x="416.578" y="269.548">Forwards request</text><polygon fill="#002851" points="677.119,298.868,667.119,302.868,677.119,306.868,673.119,302.868" style="stroke:#002851;stroke-width:1.0;"/><polygon fill="#002851" points="817.176,298.868,827.176,302.868,817.176,306.868,821.176,302.868" style="stroke:#002851;stroke-width:1.0;"/><line style="stroke:#002851;stroke-width:2.0;" x1="671.119" x2="823.176" y1="302.868" y2="302.868"/><text fill="#4C4C4C" font-family="Avenir" font-size="10" font-weight="bold" lengthAdjust="spacing" textLength="5.56" x="683.119" y="297.208">4</text><text fill="#4C4C4C" font-family="Avenir" font-size="10" lengthAdjust="spacing" textLength="102.92" x="692.679" y="297.208">Pulls status information</text><polygon fill="#002851" points="411.018,326.528,401.018,330.528,411.018,334.528,407.018,330.528" style="stroke:#002851;stroke-width:1.0;"/><line style="stroke:#002851;stroke-width:2.0;stroke-dasharray:2.0,2.0;" x1="405.018" x2="665.119" y1="330.528" y2="330.528"/><text fill="#4C4C4C" font-family="Avenir" font-size="10" font-weight="bold" lengthAdjust="spacing" textLength="5.56" x="417.018" y="324.868">5</text><text fill="#4C4C4C" font-family="Avenir" font-size="10" lengthAdjust="spacing" textLength="86.86" x="426.578" y="324.868">Forwards Response</text><polygon fill="#002851" points="260.66,354.188,250.66,358.188,260.66,362.188,256.66,358.188" style="stroke:#002851;stroke-width:1.0;"/><line style="stroke:#002851;stroke-width:2.0;stroke-dasharray:2.0,2.0;" x1="254.66" x2="399.018" y1="358.188" y2="358.188"/><text fill="#4C4C4C" font-family="Avenir" font-size="10" font-weight="bold" lengthAdjust="spacing" textLength="5.56" x="266.66" y="352.528">6</text><text fill="#4C4C4C" font-family="Avenir" font-size="10" lengthAdjust="spacing" textLength="86.86" x="276.22" y="352.528">Forwards Response</text><polygon fill="#002851" points="61.77,381.848,51.77,385.848,61.77,389.848,57.77,385.848" style="stroke:#002851;stroke-width:1.0;"/><line style="stroke:#002851;stroke-width:2.0;" x1="55.77" x2="248.66" y1="385.848" y2="385.848"/><text fill="#4C4C4C" font-family="Avenir" font-size="10" font-weight="bold" lengthAdjust="spacing" textLength="5.56" x="67.77" y="380.188">7</text><text fill="#4C4C4C" font-family="Avenir" font-size="10" lengthAdjust="spacing" textLength="116.07" x="77.33" y="380.188">Returns status information</text><text fill="#888888" font-family="Avenir" font-size="10" lengthAdjust="spacing" textLength="250.0699" x="456.32" y="408.848">Author: Jonathan Keller 11/2/2020 - Revised: 8/28/2023</text><!--SRC=[TP91Szem48Nl-XLRzqmXxamdmvJE49CmD4nZy277ZcmlM8CikT8gAV- -QmK8fCd9zlhRfwUt-qcPIeSQ8LJrRqzxZLzKQBKGf4WZvCvMwBqoMrYOqWPJmqoIX3N-2UX9D8fRDzPIQV-A2WsXYv_yc0Pgh1l3JsiaDTB0FMhDzQkhOJfCH-a81Yppf3pMOxWUfjTzyQiGiYBh8CcqOZaezfwmJK1wo0h1fy0Zbb2WUr8LGcRRpXhcl028zgJRG_9OFAGmpHSmbuJFSf_0j82-o5Gd7QbATPB5axcJNRDQNd3prVBm-OQUEniwT1zfn5nwO-YYNTOHo7droVI-5npErabIra2kEjJAd5y0FcUpsRVR4SlNh5HAZv2SzynkehtSUjewz6zjJ3jPDGY_r9sANF_238yf8DpBpKwUt5pqFJXPQOmjj-jSYCa43j6l0dAO6nx6OTfGaAJWOJBXAGMo9hHbFr2H5J3u4GE6yH7su5zekm4VobOHOGtki3UHvPxNiBdpphfdwMf_eWml4ZYrRMWCnKvrNR-7QyjxkRHs5xfexiRn4j5Ud4cz2B-ds9U_y-zZYipaGUkJMMLOies1HtRmeSSrUfwSnujpNrFudpjUcSFgGwBWpBl7_WC0]--></g></svg>