<svg xmlns="http://www.w3.org/2000/svg" xmlns:xlink="http://www.w3.org/1999/xlink" contentStyleType="text/css" height="965px" preserveAspectRatio="none" style="width:1059px;height:965px;background:#FFFFFF;" version="1.1" viewBox="0 0 1059 965" width="1059px" zoomAndPan="magnify"><title>Action Request Flow Sequence Diagram</title><defs/><g><text fill="#000000" font-family="Avenir" font-size="14" font-weight="bold" lengthAdjust="spacing" textLength="251.79" x="399.983" y="29">Action Request Flow Sequence Diagram</text><rect fill="#FFE599" height="177.77" style="stroke:#1D4776;stroke-width:1.0;" width="10" x="296.059" y="256.548"/><rect fill="#FFE599" height="96.64" style="stroke:#1D4776;stroke-width:1.0;" width="10" x="296.059" y="750.042"/><rect fill="#FFE599" height="138.496" style="stroke:#1D4776;stroke-width:1.0;" width="10" x="879.869" y="536.762"/><rect fill="#FFE599" height="27.66" style="stroke:#1D4776;stroke-width:1.0;" width="10" x="1004.7489" y="619.938"/><line style="stroke:#1D4776;stroke-width:0.5;stroke-dasharray:5.0,5.0;" x1="137" x2="137" y1="124.248" y2="864.682"/><line style="stroke:#1D4776;stroke-width:0.5;stroke-dasharray:5.0,5.0;" x1="300.747" x2="300.747" y1="124.248" y2="864.682"/><line style="stroke:#1D4776;stroke-width:0.5;stroke-dasharray:5.0,5.0;" x1="528.48" x2="528.48" y1="124.248" y2="864.682"/><line style="stroke:#1D4776;stroke-width:0.5;stroke-dasharray:5.0,5.0;" x1="723.144" x2="723.144" y1="124.248" y2="864.682"/><line style="stroke:#1D4776;stroke-width:0.5;stroke-dasharray:5.0,5.0;" x1="884.52" x2="884.52" y1="124.248" y2="864.682"/><line style="stroke:#1D4776;stroke-width:0.5;stroke-dasharray:5.0,5.0;" x1="1009.7419" x2="1009.7419" y1="124.248" y2="864.682"/><text fill="#002851" font-family="Avenir" font-size="14" font-weight="bold" lengthAdjust="spacing" textLength="89.278" x="90" y="119.124">API Consumer</text><ellipse cx="137.639" cy="53.624" fill="#FFE599" rx="8" ry="8" style="stroke:#033266;stroke-width:0.5;"/><path d="M137.639,61.624 L137.639,88.624 M124.639,69.624 L150.639,69.624 M137.639,88.624 L124.639,103.624 M137.639,88.624 L150.639,103.624 " fill="none" style="stroke:#033266;stroke-width:0.5;"/><text fill="#002851" font-family="Avenir" font-size="14" font-weight="bold" lengthAdjust="spacing" textLength="89.278" x="90" y="877.682">API Consumer</text><ellipse cx="137.639" cy="891.306" fill="#FFE599" rx="8" ry="8" style="stroke:#033266;stroke-width:0.5;"/><path d="M137.639,899.306 L137.639,926.306 M124.639,907.306 L150.639,907.306 M137.639,926.306 L124.639,941.306 M137.639,926.306 L150.639,941.306 " fill="none" style="stroke:#033266;stroke-width:0.5;"/><text fill="#002851" font-family="Avenir" font-size="14" font-weight="bold" lengthAdjust="spacing" textLength="64.624" x="265.747" y="119.124">API Server</text><ellipse cx="301.059" cy="89.124" fill="#FFE599" rx="12" ry="12" style="stroke:#000000;stroke-width:0.5;"/><polygon fill="#000000" points="297.059,77.124,303.059,72.124,301.059,77.124,303.059,82.124,297.059,77.124" style="stroke:#000000;stroke-width:1.0;"/><text fill="#002851" font-family="Avenir" font-size="14" font-weight="bold" lengthAdjust="spacing" textLength="64.624" x="265.747" y="877.682">API Server</text><ellipse cx="301.059" cy="898.806" fill="#FFE599" rx="12" ry="12" style="stroke:#000000;stroke-width:0.5;"/><polygon fill="#000000" points="297.059,886.806,303.059,881.806,301.059,886.806,303.059,891.806,297.059,886.806" style="stroke:#000000;stroke-width:1.0;"/><text fill="#002851" font-family="Avenir" font-size="14" font-weight="bold" lengthAdjust="spacing" textLength="87.878" x="482.48" y="119.124">Request Store</text><path d="M511.419,69.124 C511.419,59.124 529.419,59.124 529.419,59.124 C529.419,59.124 547.419,59.124 547.419,69.124 L547.419,95.124 C547.419,105.124 529.419,105.124 529.419,105.124 C529.419,105.124 511.419,105.124 511.419,95.124 L511.419,69.124 " fill="#FFE599" style="stroke:#000000;stroke-width:1.5;"/><path d="M511.419,69.124 C511.419,79.124 529.419,79.124 529.419,79.124 C529.419,79.124 547.419,79.124 547.419,69.124 " fill="none" style="stroke:#000000;stroke-width:1.5;"/><text fill="#002851" font-family="Avenir" font-size="14" font-weight="bold" lengthAdjust="spacing" textLength="87.878" x="482.48" y="877.682">Request Store</text><path d="M511.419,892.806 C511.419,882.806 529.419,882.806 529.419,882.806 C529.419,882.806 547.419,882.806 547.419,892.806 L547.419,918.806 C547.419,928.806 529.419,928.806 529.419,928.806 C529.419,928.806 511.419,928.806 511.419,918.806 L511.419,892.806 " fill="#FFE599" style="stroke:#000000;stroke-width:1.5;"/><path d="M511.419,892.806 C511.419,902.806 529.419,902.806 529.419,902.806 C529.419,902.806 547.419,902.806 547.419,892.806 " fill="none" style="stroke:#000000;stroke-width:1.5;"/><path d="M675.144,95.124 L772.294,95.124 C777.294,95.124 777.294,109.686 777.294,109.686 C777.294,109.686 777.294,124.248 772.294,124.248 L675.144,124.248 C670.144,124.248 670.144,109.686 670.144,109.686 C670.144,109.686 670.144,95.124 675.144,95.124 " fill="#FFE599" style="stroke:#000000;stroke-width:0.5;"/><path d="M772.294,95.124 C767.294,95.124 767.294,109.686 767.294,109.686 C767.294,124.248 772.294,124.248 772.294,124.248 " fill="none" style="stroke:#000000;stroke-width:0.5;"/><text fill="#002851" font-family="Avenir" font-size="14" font-weight="bold" lengthAdjust="spacing" textLength="87.15" x="675.144" y="114.124">Action Queue</text><path d="M675.144,863.682 L772.294,863.682 C777.294,863.682 777.294,878.244 777.294,878.244 C777.294,878.244 777.294,892.806 772.294,892.806 L675.144,892.806 C670.144,892.806 670.144,878.244 670.144,878.244 C670.144,878.244 670.144,863.682 675.144,863.682 " fill="#FFE599" style="stroke:#000000;stroke-width:0.5;"/><path d="M772.294,863.682 C767.294,863.682 767.294,878.244 767.294,878.244 C767.294,892.806 772.294,892.806 772.294,892.806 " fill="none" style="stroke:#000000;stroke-width:0.5;"/><text fill="#002851" font-family="Avenir" font-size="14" font-weight="bold" lengthAdjust="spacing" textLength="87.15" x="675.144" y="882.682">Action Queue</text><text fill="#002851" font-family="Avenir" font-size="14" font-weight="bold" lengthAdjust="spacing" textLength="110.698" x="826.52" y="119.124">Action Processors</text><ellipse cx="884.869" cy="89.124" fill="#FFE599" rx="12" ry="12" style="stroke:#000000;stroke-width:0.5;"/><polygon fill="#000000" points="880.869,77.124,886.869,72.124,884.869,77.124,886.869,82.124,880.869,77.124" style="stroke:#000000;stroke-width:1.0;"/><text fill="#002851" font-family="Avenir" font-size="14" font-weight="bold" lengthAdjust="spacing" textLength="110.698" x="826.52" y="877.682">Action Processors</text><ellipse cx="884.869" cy="898.806" fill="#FFE599" rx="12" ry="12" style="stroke:#000000;stroke-width:0.5;"/><polygon fill="#000000" points="880.869,886.806,886.869,881.806,884.869,886.806,886.869,891.806,880.869,886.806" style="stroke:#000000;stroke-width:1.0;"/><text fill="#002851" font-family="Avenir" font-size="14" font-weight="bold" lengthAdjust="spacing" textLength="70.014" x="971.7419" y="119.124">Oracle ERP</text><ellipse cx="1009.7489" cy="89.124" fill="#FFE599" rx="12" ry="12" style="stroke:#000000;stroke-width:0.5;"/><line style="stroke:#000000;stroke-width:0.5;" x1="997.7489" x2="1021.7489" y1="103.124" y2="103.124"/><text fill="#002851" font-family="Avenir" font-size="14" font-weight="bold" lengthAdjust="spacing" textLength="70.014" x="971.7419" y="877.682">Oracle ERP</text><ellipse cx="1009.7489" cy="898.806" fill="#FFE599" rx="12" ry="12" style="stroke:#000000;stroke-width:0.5;"/><line style="stroke:#000000;stroke-width:0.5;" x1="997.7489" x2="1021.7489" y1="912.806" y2="912.806"/><rect fill="#FFE599" height="177.77" style="stroke:#1D4776;stroke-width:1.0;" width="10" x="296.059" y="256.548"/><rect fill="#FFE599" height="96.64" style="stroke:#1D4776;stroke-width:1.0;" width="10" x="296.059" y="750.042"/><rect fill="#FFE599" height="138.496" style="stroke:#1D4776;stroke-width:1.0;" width="10" x="879.869" y="536.762"/><rect fill="#FFE599" height="27.66" style="stroke:#1D4776;stroke-width:1.0;" width="10" x="1004.7489" y="619.938"/><path d="M5,139.248 L5,184.248 L433,184.248 L433,149.248 L423,139.248 L5,139.248 " fill="#CDD6E0" style="stroke:#1D4776;stroke-width:0.5;"/><path d="M423,139.248 L423,149.248 L433,149.248 L423,139.248 " fill="#CDD6E0" style="stroke:#1D4776;stroke-width:0.5;"/><text fill="#000000" font-family="Avenir" font-size="13" lengthAdjust="spacing" textLength="365.937" x="11" y="157.248">Consumer has previously been provided with an authentication</text><text fill="#000000" font-family="Avenir" font-size="13" lengthAdjust="spacing" textLength="407.784" x="11" y="175.006">token and provides their authentication header in every HTTP request.</text><rect fill="#CDD6E0" height="3" style="stroke:#CDD6E0;stroke-width:1.0;" width="1052.756" x="0" y="212.326"/><line style="stroke:#002851;stroke-width:1.0;" x1="0" x2="1052.756" y1="212.326" y2="212.326"/><line style="stroke:#002851;stroke-width:1.0;" x1="0" x2="1052.756" y1="215.326" y2="215.326"/><rect fill="#CDD6E0" height="27.124" style="stroke:#002851;stroke-width:2.0;" width="150.416" x="451.17" y="199.764"/><text fill="#000000" font-family="Avenir" font-size="14" font-weight="bold" lengthAdjust="spacing" textLength="132.524" x="457.17" y="217.764">Initial Action Request</text><polygon fill="#002851" points="284.059,252.548,294.059,256.548,284.059,260.548,288.059,256.548" style="stroke:#002851;stroke-width:1.0;"/><line style="stroke:#002851;stroke-width:2.0;" x1="137.639" x2="290.059" y1="256.548" y2="256.548"/><text fill="#4C4C4C" font-family="Avenir" font-size="10" font-weight="bold" lengthAdjust="spacing" textLength="11.12" x="144.639" y="250.888">1 :</text><text fill="#4C4C4C" font-family="Avenir" font-size="10" lengthAdjust="spacing" textLength="98.4" x="162.539" y="250.888">GraphQL API Request</text><path d="M169,269.548 L169,367.548 L431,367.548 L431,279.548 L421,269.548 L169,269.548 " fill="#CDD6E0" style="stroke:#1D4776;stroke-width:0.5;"/><path d="M421,269.548 L421,279.548 L431,279.548 L421,269.548 " fill="#CDD6E0" style="stroke:#1D4776;stroke-width:0.5;"/><ellipse cx="180.5" cy="284.806" fill="#000000" rx="2.5" ry="2.5" style="stroke:#000000;stroke-width:0.0;"/><text fill="#000000" font-family="Avenir" font-size="13" lengthAdjust="spacing" textLength="114.66" x="187" y="287.548">Validates X-API-Key</text><ellipse cx="180.5" cy="302.564" fill="#000000" rx="2.5" ry="2.5" style="stroke:#000000;stroke-width:0.0;"/><text fill="#000000" font-family="Avenir" font-size="13" lengthAdjust="spacing" textLength="191.724" x="187" y="305.306">Obtains Consumer's GraphQL ID</text><ellipse cx="180.5" cy="320.322" fill="#000000" rx="2.5" ry="2.5" style="stroke:#000000;stroke-width:0.0;"/><text fill="#000000" font-family="Avenir" font-size="13" lengthAdjust="spacing" textLength="229.229" x="187" y="323.064">Obtains and Applies Consumer's AuthZ</text><ellipse cx="180.5" cy="338.08" fill="#000000" rx="2.5" ry="2.5" style="stroke:#000000;stroke-width:0.0;"/><text fill="#000000" font-family="Avenir" font-size="13" lengthAdjust="spacing" textLength="129.48" x="187" y="340.822">Validates request data</text><ellipse cx="180.5" cy="355.838" fill="#000000" rx="2.5" ry="2.5" style="stroke:#000000;stroke-width:0.0;"/><text fill="#000000" font-family="Avenir" font-size="13" lengthAdjust="spacing" textLength="170.534" x="187" y="358.58">Assigns unique ID to Request</text><polygon fill="#002851" points="517.419,388.998,527.419,392.998,517.419,396.998,521.419,392.998" style="stroke:#002851;stroke-width:1.0;"/><line style="stroke:#002851;stroke-width:2.0;" x1="306.059" x2="523.419" y1="392.998" y2="392.998"/><text fill="#4C4C4C" font-family="Avenir" font-size="10" font-weight="bold" lengthAdjust="spacing" textLength="11.12" x="313.059" y="387.338">2 :</text><text fill="#4C4C4C" font-family="Avenir" font-size="10" lengthAdjust="spacing" textLength="181.46" x="330.959" y="387.338">Submits request to queue for processing</text><polygon fill="#002851" points="148.639,430.318,138.639,434.318,148.639,438.318,144.639,434.318" style="stroke:#002851;stroke-width:1.0;"/><line style="stroke:#002851;stroke-width:2.0;stroke-dasharray:2.0,2.0;" x1="142.639" x2="300.059" y1="434.318" y2="434.318"/><text fill="#4C4C4C" font-family="Avenir" font-size="10" font-weight="bold" lengthAdjust="spacing" textLength="11.12" x="154.639" y="421.828">3 :</text><text fill="#4C4C4C" font-family="Avenir" font-size="10" lengthAdjust="spacing" textLength="110.96" x="172.539" y="414.998">Returns response with ID</text><text fill="#4C4C4C" font-family="Avenir" font-size="10" lengthAdjust="spacing" textLength="93.54" x="172.539" y="428.658">and status check info</text><rect fill="#CDD6E0" height="3" style="stroke:#CDD6E0;stroke-width:1.0;" width="1052.756" x="0" y="464.88"/><line style="stroke:#002851;stroke-width:1.0;" x1="0" x2="1052.756" y1="464.88" y2="464.88"/><line style="stroke:#002851;stroke-width:1.0;" x1="0" x2="1052.756" y1="467.88" y2="467.88"/><rect fill="#CDD6E0" height="27.124" style="stroke:#002851;stroke-width:2.0;" width="144.704" x="454.026" y="452.318"/><text fill="#000000" font-family="Avenir" font-size="14" font-weight="bold" lengthAdjust="spacing" textLength="126.812" x="460.026" y="470.318">Message Processing</text><polygon fill="#002851" points="711.719,505.102,721.719,509.102,711.719,513.102,715.719,509.102" style="stroke:#002851;stroke-width:1.0;"/><line style="stroke:#002851;stroke-width:2.0;" x1="529.419" x2="717.719" y1="509.102" y2="509.102"/><text fill="#4C4C4C" font-family="Avenir" font-size="10" font-weight="bold" lengthAdjust="spacing" textLength="11.12" x="536.419" y="503.442">4 :</text><text fill="#4C4C4C" font-family="Avenir" font-size="10" lengthAdjust="spacing" textLength="152.4" x="554.319" y="503.442">Pulls pending requests into queue</text><polygon fill="#002851" points="867.869,532.762,877.869,536.762,867.869,540.762,871.869,536.762" style="stroke:#002851;stroke-width:1.0;"/><line style="stroke:#002851;stroke-width:2.0;" x1="723.719" x2="873.869" y1="536.762" y2="536.762"/><text fill="#4C4C4C" font-family="Avenir" font-size="10" font-weight="bold" lengthAdjust="spacing" textLength="11.12" x="730.719" y="531.102">5 :</text><text fill="#4C4C4C" font-family="Avenir" font-size="10" lengthAdjust="spacing" textLength="119.25" x="748.619" y="531.102">Processor picks up request</text><path d="M756,549.762 L756,594.762 L1012,594.762 L1012,559.762 L1002,549.762 L756,549.762 " fill="#CDD6E0" style="stroke:#1D4776;stroke-width:0.5;"/><path d="M1002,549.762 L1002,559.762 L1012,559.762 L1002,549.762 " fill="#CDD6E0" style="stroke:#1D4776;stroke-width:0.5;"/><ellipse cx="767.5" cy="565.02" fill="#000000" rx="2.5" ry="2.5" style="stroke:#000000;stroke-width:0.0;"/><text fill="#000000" font-family="Avenir" font-size="13" lengthAdjust="spacing" textLength="87.373" x="774" y="567.762">Data validation</text><ellipse cx="767.5" cy="582.778" fill="#000000" rx="2.5" ry="2.5" style="stroke:#000000;stroke-width:0.0;"/><text fill="#000000" font-family="Avenir" font-size="13" lengthAdjust="spacing" textLength="223.613" x="774" y="585.52">Formats request for submission to ERP</text><polygon fill="#002851" points="992.7489,615.938,1002.7489,619.938,992.7489,623.938,996.7489,619.938" style="stroke:#002851;stroke-width:1.0;"/><line style="stroke:#002851;stroke-width:2.0;" x1="889.869" x2="998.7489" y1="619.938" y2="619.938"/><text fill="#4C4C4C" font-family="Avenir" font-size="10" font-weight="bold" lengthAdjust="spacing" textLength="11.12" x="896.869" y="614.278">6 :</text><text fill="#4C4C4C" font-family="Avenir" font-size="10" lengthAdjust="spacing" textLength="74.81" x="914.769" y="614.278">Submits Request</text><polygon fill="#002851" points="900.869,643.598,890.869,647.598,900.869,651.598,896.869,647.598" style="stroke:#002851;stroke-width:1.0;"/><line style="stroke:#002851;stroke-width:2.0;stroke-dasharray:2.0,2.0;" x1="894.869" x2="1008.7489" y1="647.598" y2="647.598"/><text fill="#4C4C4C" font-family="Avenir" font-size="10" font-weight="bold" lengthAdjust="spacing" textLength="11.12" x="906.869" y="641.938">7 :</text><text fill="#4C4C4C" font-family="Avenir" font-size="10" lengthAdjust="spacing" textLength="72.98" x="924.769" y="641.938">Receives Results</text><polygon fill="#002851" points="540.419,671.258,530.419,675.258,540.419,679.258,536.419,675.258" style="stroke:#002851;stroke-width:1.0;"/><line style="stroke:#002851;stroke-width:2.0;" x1="534.419" x2="883.869" y1="675.258" y2="675.258"/><text fill="#4C4C4C" font-family="Avenir" font-size="10" font-weight="bold" lengthAdjust="spacing" textLength="11.12" x="546.419" y="669.598">8 :</text><text fill="#4C4C4C" font-family="Avenir" font-size="10" lengthAdjust="spacing" textLength="156.28" x="564.319" y="669.598">Updates Request status and results</text><rect fill="#CDD6E0" height="3" style="stroke:#CDD6E0;stroke-width:1.0;" width="1052.756" x="0" y="705.82"/><line style="stroke:#002851;stroke-width:1.0;" x1="0" x2="1052.756" y1="705.82" y2="705.82"/><line style="stroke:#002851;stroke-width:1.0;" x1="0" x2="1052.756" y1="708.82" y2="708.82"/><rect fill="#CDD6E0" height="27.124" style="stroke:#002851;stroke-width:2.0;" width="177.38" x="437.688" y="693.258"/><text fill="#000000" font-family="Avenir" font-size="14" font-weight="bold" lengthAdjust="spacing" textLength="159.488" x="443.688" y="711.258">Action Request Response</text><polygon fill="#002851" points="284.059,746.042,294.059,750.042,284.059,754.042,288.059,750.042" style="stroke:#002851;stroke-width:1.0;"/><line style="stroke:#002851;stroke-width:2.0;" x1="137.639" x2="290.059" y1="750.042" y2="750.042"/><text fill="#4C4C4C" font-family="Avenir" font-size="10" font-weight="bold" lengthAdjust="spacing" textLength="11.12" x="144.639" y="744.382">9 :</text><text fill="#4C4C4C" font-family="Avenir" font-size="10" lengthAdjust="spacing" textLength="98.4" x="162.539" y="744.382">GraphQL API Request</text><polygon fill="#002851" points="517.419,773.702,527.419,777.702,517.419,781.702,521.419,777.702" style="stroke:#002851;stroke-width:1.0;"/><line style="stroke:#002851;stroke-width:2.0;" x1="306.059" x2="523.419" y1="777.702" y2="777.702"/><text fill="#4C4C4C" font-family="Avenir" font-size="10" font-weight="bold" lengthAdjust="spacing" textLength="16.68" x="313.059" y="772.042">10 :</text><text fill="#4C4C4C" font-family="Avenir" font-size="10" lengthAdjust="spacing" textLength="109.46" x="336.519" y="772.042">Looks up Request Status</text><polygon fill="#002851" points="317.059,801.362,307.059,805.362,317.059,809.362,313.059,805.362" style="stroke:#002851;stroke-width:1.0;"/><line style="stroke:#002851;stroke-width:2.0;stroke-dasharray:2.0,2.0;" x1="311.059" x2="528.419" y1="805.362" y2="805.362"/><text fill="#4C4C4C" font-family="Avenir" font-size="10" font-weight="bold" lengthAdjust="spacing" textLength="16.68" x="323.059" y="799.702">11 :</text><text fill="#4C4C4C" font-family="Avenir" font-size="10" lengthAdjust="spacing" textLength="107.98" x="346.519" y="799.702">Receives Request Status</text><polygon fill="#002851" points="148.639,842.682,138.639,846.682,148.639,850.682,144.639,846.682" style="stroke:#002851;stroke-width:1.0;"/><line style="stroke:#002851;stroke-width:2.0;stroke-dasharray:2.0,2.0;" x1="142.639" x2="300.059" y1="846.682" y2="846.682"/><text fill="#4C4C4C" font-family="Avenir" font-size="10" font-weight="bold" lengthAdjust="spacing" textLength="16.68" x="154.639" y="834.192">12 :</text><text fill="#4C4C4C" font-family="Avenir" font-size="10" lengthAdjust="spacing" textLength="110.96" x="178.099" y="827.362">Returns response with ID</text><text fill="#4C4C4C" font-family="Avenir" font-size="10" lengthAdjust="spacing" textLength="93.54" x="178.099" y="841.022">and status check info</text><text fill="#888888" font-family="Avenir" font-size="10" lengthAdjust="spacing" textLength="149.1" x="451.328" y="953.806">Author: Jonathan Keller 2/1/2022</text><!--SRC=[fLHPRnCn47xthnZIXqYKKCXZrLQAMev0WJHf4U8GyZfEOiMn5nz1-VVChDURtGKa9DA79kCvlcFiHye87PSIebX-z-6WvLCLTvgne8AMC151MGDp-IDA7-2bjZzXGJ-Ca72Z-Dhn7HFI1EbWPItzcyImiUuStbZ3muORU2krnlZuxFdP-Dbup1WNmJh0ps0ocyArDJxkf1j0_U6-YJ5XJN1MrwaBwVQjn2froGFtLPpHrm9_m23ZNU0WEMWb5mmFeap34xSx2hI7R_bgozkJKzxCMI6zjyuFKbwP0mpvgt2WdXyS5oZRY_ciYrAwaZ63-e15f0s_9stuq8HXKxMNUsMZrmSef3GqRg-MSWa_LTW0wifHQ9eiEE73yc2tcCVDCkTwm0pbUfcmaNo9GvG1YNCFyFh-VWOkIVOKoIo1aBBBIvWQ5HJN_JMul4GJOx0cxWfiz1p_1XV5rSa9dCF5MN4rO0sJqLMB8foUOiOhnylDtIsGetN7bZGTGHx3HwuLXf3Afn4MZDxAGnN_K0Ikp75JXhxfExtfP90UaxBKIdQoQKq_zqRK6bGOggE9zsgDFQ9HU8ATKUC6SoDKYo3HBP3Z8XOx5OuTiImjtWetlruSPTQTKgmzoZR29dCPeZFKn9Tu89FpqvklXZZvm4Fq83PIRD7BbMNas3jipDSoRolEgDn2KDY-scniF8jQuu8X0JglCNfiac6o8QoTZMLkqr-0Urig0LzU8faNN6o-eLYfDmvfhaLokxasW2LRbBBC0x7eQFlnCj6DUGmtA0piapDfkocA0tUy9IkfwKbgP8hm43xUFCnjh84M7CI6rp2XolxC6oXqDEh0hpqGKkqbPVgeW-zt964fxw5CAvGLgjqXernJcLMThk2QQrrmTEvXVaiQLLUxIkaDg7KTjK2BNCkJAurhL4xKgoci_PrMe-VXF6yLxSSGk0w4AqFf06I4ghiGpN42zVj63AkdxwzRaNSX6v3IEyoRou3CaOdFGX9VqKVtZxOiAbkgYevG6dL0zkzjbtVhIVx7XmnB_l0St5hRePjnG0BQQTtPkKvsh_T_lnTfGT1uzWi0]--></g></svg>