<svg xmlns="http://www.w3.org/2000/svg" xmlns:xlink="http://www.w3.org/1999/xlink" contentStyleType="text/css" height="814px" preserveAspectRatio="none" style="width:763px;height:814px;background:#FFFFFF;" version="1.1" viewBox="0 0 763 814" width="763px" zoomAndPan="magnify"><title>Travel Agency Data Flow - Planned State</title><defs/><g><text fill="#000000" font-family="Avenir" font-size="14" font-weight="bold" lengthAdjust="spacing" textLength="254.884" x="250.122" y="29">Travel Agency Data Flow - Planned State</text><line style="stroke:#1D4776;stroke-width:0.5;stroke-dasharray:5.0,5.0;" x1="52" x2="52" y1="124.248" y2="802.14"/><line style="stroke:#1D4776;stroke-width:0.5;stroke-dasharray:5.0,5.0;" x1="169.215" x2="169.215" y1="124.248" y2="802.14"/><line style="stroke:#1D4776;stroke-width:0.5;stroke-dasharray:5.0,5.0;" x1="266.941" x2="266.941" y1="124.248" y2="802.14"/><line style="stroke:#1D4776;stroke-width:0.5;stroke-dasharray:5.0,5.0;" x1="380.379" x2="380.379" y1="124.248" y2="802.14"/><line style="stroke:#1D4776;stroke-width:0.5;stroke-dasharray:5.0,5.0;" x1="508.94" x2="508.94" y1="124.248" y2="802.14"/><line style="stroke:#1D4776;stroke-width:0.5;stroke-dasharray:5.0,5.0;" x1="614.33" x2="614.33" y1="124.248" y2="802.14"/><line style="stroke:#1D4776;stroke-width:0.5;stroke-dasharray:5.0,5.0;" x1="711.006" x2="711.006" y1="124.248" y2="802.14"/><text fill="#002851" font-family="Avenir" font-size="14" font-weight="bold" lengthAdjust="spacing" textLength="88.956" x="5" y="119.124">Travel Agency</text><ellipse cx="52.478" cy="53.624" fill="#FFE599" rx="8" ry="8" style="stroke:#033266;stroke-width:0.5;"/><path d="M52.478,61.624 L52.478,88.624 M39.478,69.624 L65.478,69.624 M52.478,88.624 L39.478,103.624 M52.478,88.624 L65.478,103.624 " fill="none" style="stroke:#033266;stroke-width:0.5;"/><text fill="#002851" font-family="Avenir" font-size="14" font-weight="bold" lengthAdjust="spacing" textLength="82.726" x="125.215" y="119.124">Supply Chain</text><ellipse cx="169.578" cy="53.624" fill="#FFE599" rx="8" ry="8" style="stroke:#033266;stroke-width:0.5;"/><path d="M169.578,61.624 L169.578,88.624 M156.578,69.624 L182.578,69.624 M169.578,88.624 L156.578,103.624 M169.578,88.624 L182.578,103.624 " fill="none" style="stroke:#033266;stroke-width:0.5;"/><text fill="#002851" font-family="Avenir" font-size="14" font-weight="bold" lengthAdjust="spacing" textLength="81.438" x="223.941" y="119.124">GoAnywhere</text><path d="M247.16,77.124 L247.16,101.124 M247.16,89.124 L264.16,89.124 " fill="none" style="stroke:#000000;stroke-width:0.5;"/><ellipse cx="276.16" cy="89.124" fill="#FFE599" rx="12" ry="12" style="stroke:#000000;stroke-width:0.5;"/><text fill="#002851" font-family="Avenir" font-size="14" font-weight="bold" lengthAdjust="spacing" textLength="113.358" x="321.379" y="119.124">AE Integration DB</text><path d="M363.058,69.124 C363.058,59.124 381.058,59.124 381.058,59.124 C381.058,59.124 399.058,59.124 399.058,69.124 L399.058,95.124 C399.058,105.124 381.058,105.124 381.058,105.124 C381.058,105.124 363.058,105.124 363.058,95.124 L363.058,69.124 " fill="#FFE599" style="stroke:#000000;stroke-width:1.5;"/><path d="M363.058,69.124 C363.058,79.124 381.058,79.124 381.058,79.124 C381.058,79.124 399.058,79.124 399.058,69.124 " fill="none" style="stroke:#000000;stroke-width:1.5;"/><rect fill="#FFE599" height="33.124" rx="2.5" ry="2.5" style="stroke:#000000;stroke-width:0.5;" width="39.396" x="489.94" y="90.124"/><text fill="#002851" font-family="Avenir" font-size="14" font-weight="bold" lengthAdjust="spacing" textLength="25.396" x="496.94" y="111.124">NiFi</text><rect fill="#FFE599" height="52.248" rx="2.5" ry="2.5" style="stroke:#000000;stroke-width:0.5;" width="74.676" x="577.33" y="71"/><text fill="#002851" font-family="Avenir" font-size="14" font-weight="bold" lengthAdjust="spacing" textLength="41.482" x="593.927" y="92">Oracle</text><text fill="#002851" font-family="Avenir" font-size="14" font-weight="bold" lengthAdjust="spacing" textLength="60.676" x="584.33" y="111.124">Financials</text><rect fill="#FFE599" height="33.124" rx="2.5" ry="2.5" style="stroke:#000000;stroke-width:0.5;" width="59.122" x="682.006" y="90.124"/><text fill="#002851" font-family="Avenir" font-size="14" font-weight="bold" lengthAdjust="spacing" textLength="45.122" x="689.006" y="111.124">Concur</text><polygon fill="#002851" points="157.578,163.568,167.578,167.568,157.578,171.568,161.578,167.568" style="stroke:#002851;stroke-width:1.0;"/><line style="stroke:#002851;stroke-width:2.0;" x1="52.478" x2="163.578" y1="167.568" y2="167.568"/><text fill="#4C4C4C" font-family="Avenir" font-size="10" font-weight="bold" lengthAdjust="spacing" textLength="5.56" x="59.478" y="155.078">1</text><text fill="#4C4C4C" font-family="Avenir" font-size="10" lengthAdjust="spacing" textLength="77.42" x="69.038" y="148.248">Emails Excel/CSV</text><text fill="#4C4C4C" font-family="Avenir" font-size="10" lengthAdjust="spacing" textLength="83.54" x="69.038" y="161.908">of Travel Expenses</text><polygon fill="#002851" points="255.66,191.228,265.66,195.228,255.66,199.228,259.66,195.228" style="stroke:#002851;stroke-width:1.0;"/><line style="stroke:#002851;stroke-width:2.0;" x1="169.578" x2="261.66" y1="195.228" y2="195.228"/><text fill="#4C4C4C" font-family="Avenir" font-size="10" font-weight="bold" lengthAdjust="spacing" textLength="5.56" x="176.578" y="189.568">2</text><text fill="#4C4C4C" font-family="Avenir" font-size="10" lengthAdjust="spacing" textLength="55.56" x="186.138" y="189.568">Uploads File</text><rect fill="#CDD6E0" height="3" style="stroke:#CDD6E0;stroke-width:1.0;" width="756.128" x="0" y="225.79"/><line style="stroke:#002851;stroke-width:1.0;" x1="0" x2="756.128" y1="225.79" y2="225.79"/><line style="stroke:#002851;stroke-width:1.0;" x1="0" x2="756.128" y1="228.79" y2="228.79"/><rect fill="#CDD6E0" height="27.124" style="stroke:#002851;stroke-width:2.0;" width="118.776" x="318.676" y="213.228"/><text fill="#000000" font-family="Avenir" font-size="14" font-weight="bold" lengthAdjust="spacing" textLength="100.884" x="324.676" y="231.228">Data Movement</text><polygon fill="#002851" points="497.638,279.672,507.638,283.672,497.638,287.672,501.638,283.672" style="stroke:#002851;stroke-width:1.0;"/><line style="stroke:#002851;stroke-width:2.0;" x1="267.66" x2="503.638" y1="283.672" y2="283.672"/><text fill="#4C4C4C" font-family="Avenir" font-size="10" font-weight="bold" lengthAdjust="spacing" textLength="5.56" x="274.66" y="271.182">3</text><text fill="#4C4C4C" font-family="Avenir" font-size="10" lengthAdjust="spacing" textLength="70.9" x="284.22" y="264.352">Transfers File to</text><text fill="#4C4C4C" font-family="Avenir" font-size="10" lengthAdjust="spacing" textLength="89.07" x="284.22" y="278.012">Integration Platform</text><polygon fill="#002851" points="392.058,307.332,382.058,311.332,392.058,315.332,388.058,311.332" style="stroke:#002851;stroke-width:1.0;"/><line style="stroke:#002851;stroke-width:2.0;" x1="386.058" x2="508.638" y1="311.332" y2="311.332"/><text fill="#4C4C4C" font-family="Avenir" font-size="10" font-weight="bold" lengthAdjust="spacing" textLength="5.56" x="398.058" y="305.672">4</text><text fill="#4C4C4C" font-family="Avenir" font-size="10" lengthAdjust="spacing" textLength="95.02" x="407.618" y="305.672">Inserts Data from File</text><path d="M390,324.332 L390,369.332 L627,369.332 L627,334.332 L617,324.332 L390,324.332 " fill="#CDD6E0" style="stroke:#1D4776;stroke-width:0.5;"/><path d="M617,324.332 L617,334.332 L627,334.332 L617,324.332 " fill="#CDD6E0" style="stroke:#1D4776;stroke-width:0.5;"/><text fill="#000000" font-family="Avenir" font-size="13" lengthAdjust="spacing" textLength="176.41" x="396" y="342.332">Will report back on any import</text><text fill="#000000" font-family="Avenir" font-size="13" lengthAdjust="spacing" textLength="216.58" x="396" y="360.09">issues with instructions for correction.</text><rect fill="#CDD6E0" height="3" style="stroke:#CDD6E0;stroke-width:1.0;" width="756.128" x="0" y="397.41"/><line style="stroke:#002851;stroke-width:1.0;" x1="0" x2="756.128" y1="397.41" y2="397.41"/><line style="stroke:#002851;stroke-width:1.0;" x1="0" x2="756.128" y1="400.41" y2="400.41"/><rect fill="#CDD6E0" height="27.124" style="stroke:#002851;stroke-width:2.0;" width="178.164" x="288.982" y="384.848"/><text fill="#000000" font-family="Avenir" font-size="14" font-weight="bold" lengthAdjust="spacing" textLength="160.272" x="294.982" y="402.848">QuickExpense Processing</text><polygon fill="#002851" points="392.058,437.632,382.058,441.632,392.058,445.632,388.058,441.632" style="stroke:#002851;stroke-width:1.0;"/><polygon fill="#002851" points="497.638,437.632,507.638,441.632,497.638,445.632,501.638,441.632" style="stroke:#002851;stroke-width:1.0;"/><line style="stroke:#002851;stroke-width:2.0;" x1="386.058" x2="503.638" y1="441.632" y2="441.632"/><text fill="#4C4C4C" font-family="Avenir" font-size="10" font-weight="bold" lengthAdjust="spacing" textLength="5.56" x="398.058" y="435.972">5</text><text fill="#4C4C4C" font-family="Avenir" font-size="10" lengthAdjust="spacing" textLength="90.76" x="407.618" y="435.972">Reads Pending Data</text><polygon fill="#002851" points="699.567,465.292,709.567,469.292,699.567,473.292,703.567,469.292" style="stroke:#002851;stroke-width:1.0;"/><line style="stroke:#002851;stroke-width:2.0;" x1="509.638" x2="705.567" y1="469.292" y2="469.292"/><text fill="#4C4C4C" font-family="Avenir" font-size="10" font-weight="bold" lengthAdjust="spacing" textLength="5.56" x="516.638" y="463.632">6</text><text fill="#4C4C4C" font-family="Avenir" font-size="10" lengthAdjust="spacing" textLength="164.5" x="526.198" y="463.632">Sends QuickExpense Data to Concur</text><rect fill="#CDD6E0" height="3" style="stroke:#CDD6E0;stroke-width:1.0;" width="756.128" x="0" y="499.854"/><line style="stroke:#002851;stroke-width:1.0;" x1="0" x2="756.128" y1="499.854" y2="499.854"/><line style="stroke:#002851;stroke-width:1.0;" x1="0" x2="756.128" y1="502.854" y2="502.854"/><rect fill="#CDD6E0" height="27.124" style="stroke:#002851;stroke-width:2.0;" width="191.1" x="282.514" y="487.292"/><text fill="#000000" font-family="Avenir" font-size="14" font-weight="bold" lengthAdjust="spacing" textLength="173.208" x="288.514" y="505.292">Default Expense Processing</text><polygon fill="#002851" points="392.058,540.076,382.058,544.076,392.058,548.076,388.058,544.076" style="stroke:#002851;stroke-width:1.0;"/><polygon fill="#002851" points="497.638,540.076,507.638,544.076,497.638,548.076,501.638,544.076" style="stroke:#002851;stroke-width:1.0;"/><line style="stroke:#002851;stroke-width:2.0;" x1="386.058" x2="503.638" y1="544.076" y2="544.076"/><text fill="#4C4C4C" font-family="Avenir" font-size="10" font-weight="bold" lengthAdjust="spacing" textLength="5.56" x="398.058" y="538.416">7</text><text fill="#4C4C4C" font-family="Avenir" font-size="10" lengthAdjust="spacing" textLength="90.76" x="407.618" y="538.416">Reads Pending Data</text><polygon fill="#002851" points="392.058,581.396,382.058,585.396,392.058,589.396,388.058,585.396" style="stroke:#002851;stroke-width:1.0;"/><polygon fill="#002851" points="497.638,581.396,507.638,585.396,497.638,589.396,501.638,585.396" style="stroke:#002851;stroke-width:1.0;"/><line style="stroke:#002851;stroke-width:2.0;" x1="386.058" x2="503.638" y1="585.396" y2="585.396"/><text fill="#4C4C4C" font-family="Avenir" font-size="10" font-weight="bold" lengthAdjust="spacing" textLength="5.56" x="398.058" y="572.906">8</text><text fill="#4C4C4C" font-family="Avenir" font-size="10" lengthAdjust="spacing" textLength="81.65" x="407.618" y="566.076">Gets Cost Centers</text><text fill="#4C4C4C" font-family="Avenir" font-size="10" lengthAdjust="spacing" textLength="49.83" x="407.618" y="579.736">to Expense</text><polygon fill="#002851" points="602.668,622.716,612.668,626.716,602.668,630.716,606.668,626.716" style="stroke:#002851;stroke-width:1.0;"/><line style="stroke:#002851;stroke-width:2.0;" x1="509.638" x2="608.668" y1="626.716" y2="626.716"/><text fill="#4C4C4C" font-family="Avenir" font-size="10" font-weight="bold" lengthAdjust="spacing" textLength="5.56" x="516.638" y="614.226">9</text><text fill="#4C4C4C" font-family="Avenir" font-size="10" lengthAdjust="spacing" textLength="51.29" x="526.198" y="607.396">Submits GL</text><text fill="#4C4C4C" font-family="Avenir" font-size="10" lengthAdjust="spacing" textLength="65.91" x="526.198" y="621.056">Journal Entries</text><rect fill="#CDD6E0" height="3" style="stroke:#CDD6E0;stroke-width:1.0;" width="756.128" x="0" y="657.278"/><line style="stroke:#002851;stroke-width:1.0;" x1="0" x2="756.128" y1="657.278" y2="657.278"/><line style="stroke:#002851;stroke-width:1.0;" x1="0" x2="756.128" y1="660.278" y2="660.278"/><rect fill="#CDD6E0" height="27.124" style="stroke:#002851;stroke-width:2.0;" width="262.43" x="246.849" y="644.716"/><text fill="#000000" font-family="Avenir" font-size="14" font-weight="bold" lengthAdjust="spacing" textLength="244.538" x="252.849" y="662.716">SAE Reconciliation Expense Processing</text><polygon fill="#002851" points="520.638,697.5,510.638,701.5,520.638,705.5,516.638,701.5" style="stroke:#002851;stroke-width:1.0;"/><line style="stroke:#002851;stroke-width:2.0;" x1="514.638" x2="710.567" y1="701.5" y2="701.5"/><text fill="#4C4C4C" font-family="Avenir" font-size="10" font-weight="bold" lengthAdjust="spacing" textLength="11.12" x="526.638" y="695.84">10</text><text fill="#4C4C4C" font-family="Avenir" font-size="10" lengthAdjust="spacing" textLength="66.88" x="541.758" y="695.84">Sends SAE File</text><polygon fill="#002851" points="392.058,738.82,382.058,742.82,392.058,746.82,388.058,742.82" style="stroke:#002851;stroke-width:1.0;"/><polygon fill="#002851" points="497.638,738.82,507.638,742.82,497.638,746.82,501.638,742.82" style="stroke:#002851;stroke-width:1.0;"/><line style="stroke:#002851;stroke-width:2.0;" x1="386.058" x2="503.638" y1="742.82" y2="742.82"/><text fill="#4C4C4C" font-family="Avenir" font-size="10" font-weight="bold" lengthAdjust="spacing" textLength="11.12" x="398.058" y="730.33">11</text><text fill="#4C4C4C" font-family="Avenir" font-size="10" lengthAdjust="spacing" textLength="81.65" x="413.178" y="723.5">Gets Cost Centers</text><text fill="#4C4C4C" font-family="Avenir" font-size="10" lengthAdjust="spacing" textLength="39.78" x="413.178" y="737.16">to Credit</text><polygon fill="#002851" points="602.668,780.14,612.668,784.14,602.668,788.14,606.668,784.14" style="stroke:#002851;stroke-width:1.0;"/><line style="stroke:#002851;stroke-width:2.0;" x1="509.638" x2="608.668" y1="784.14" y2="784.14"/><text fill="#4C4C4C" font-family="Avenir" font-size="10" font-weight="bold" lengthAdjust="spacing" textLength="11.12" x="516.638" y="771.65">12</text><text fill="#4C4C4C" font-family="Avenir" font-size="10" lengthAdjust="spacing" textLength="51.29" x="531.758" y="764.82">Submits GL</text><text fill="#4C4C4C" font-family="Avenir" font-size="10" lengthAdjust="spacing" textLength="65.91" x="531.758" y="778.48">Journal Entries</text><text fill="#888888" font-family="Avenir" font-size="10" lengthAdjust="spacing" textLength="159.48" x="297.824" y="803.14">Author: Jonathan Keller 2024-10-29</text><!--SRC=[fLDBRzD04BxlhnXoJsahBbG4oRX9rK9BgGDS8g7DUfoCkfwrza6RVy_iEYtD0Gd4oVRkD_CzPloAsDZK8YJJ_WXnP_68Kc-LYXGjmjBhdsYXsY2R7Pphg65XtGDCuTPgPcoXYJgYsfAqw9oBQ_Ue3794NpxbKQMuTVuChXphkDKC7z5QEJyzFdqpFJcUdhvLIfleF4mEs2QW0oohfxic3OFTGRtLn1Ee6cZgQxLsYLljTp2vS1Nl7hReiTHjd5Qjg5thW32fvd0faZPUHt8CvnzAWsf-URDKW_QH30sQ8qnkQ47bZgcZmwlFNXkBAruGQpQaRIX0LuuFeRLZatovDkLL3AReEFLhyNsYbXLCtsVzS0RpNfCDC7yqQ5_NpRSLk-ufzVdZW1mmg0oL2Z4b5Ly7wtGRO472gsQpSIhNxYVsaZlCPafbeE2p2IcGRXmwz6C9HBVYbsd886FdVAyANCfABb9tATm-Xh5_vrq_Kh9C5OJDF_N_JjQ2ny7v26jjxa6QQju1zVbenHH2mW0F5BT07A9F9XC7MH0l0NcFvVkecFcIoDplZSEjTmP38DuKMuNltGk5TvY3k4LkCoJhV3On1Y-OHcx3OTjYA3gezyF96MAdautmlymlCHSeuTKkHAZB3n5MBAHxXcUXum9beMdTarHSV5hnbKkUjMm0Hq-o05bY8rjyXzaNMHf7zmUrU- -_Ds3C83SO9_XtIckFBSL_4_eB]--></g></svg>