<svg xmlns="http://www.w3.org/2000/svg" xmlns:xlink="http://www.w3.org/1999/xlink" contentStyleType="text/css" height="925px" preserveAspectRatio="none" style="width:1111px;height:925px;background:#FFFFFF;" version="1.1" viewBox="0 0 1111 925" width="1111px" zoomAndPan="magnify"><title>Travel Agency Data Flow - Current State (as of October 2024)</title><defs/><g><text fill="#000000" font-family="Avenir" font-size="14" font-weight="bold" lengthAdjust="spacing" textLength="383.4879" x="360.048" y="29">Travel Agency Data Flow - Current State (as of October 2024)</text><rect fill="#FFF9E5" height="856.78" style="stroke:#000000;stroke-width:0.5;" width="422.594" x="229.941" y="46.124"/><text fill="#002851" font-family="Avenir" font-size="13" font-weight="bold" lengthAdjust="spacing" textLength="186.888" x="347.794" y="59.124">Legacy Integration Components</text><line style="stroke:#1D4776;stroke-width:0.5;stroke-dasharray:5.0,5.0;" x1="52" x2="52" y1="152.13" y2="908.904"/><line style="stroke:#1D4776;stroke-width:0.5;stroke-dasharray:5.0,5.0;" x1="169.215" x2="169.215" y1="152.13" y2="908.904"/><line style="stroke:#1D4776;stroke-width:0.5;stroke-dasharray:5.0,5.0;" x1="269.941" x2="269.941" y1="152.13" y2="908.904"/><line style="stroke:#1D4776;stroke-width:0.5;stroke-dasharray:5.0,5.0;" x1="393.905" x2="393.905" y1="152.13" y2="908.904"/><line style="stroke:#1D4776;stroke-width:0.5;stroke-dasharray:5.0,5.0;" x1="506.629" x2="506.629" y1="152.13" y2="908.904"/><line style="stroke:#1D4776;stroke-width:0.5;stroke-dasharray:5.0,5.0;" x1="608.413" x2="608.413" y1="152.13" y2="908.904"/><line style="stroke:#1D4776;stroke-width:0.5;stroke-dasharray:5.0,5.0;" x1="727.535" x2="727.535" y1="152.13" y2="908.904"/><line style="stroke:#1D4776;stroke-width:0.5;stroke-dasharray:5.0,5.0;" x1="857.396" x2="857.396" y1="152.13" y2="908.904"/><line style="stroke:#1D4776;stroke-width:0.5;stroke-dasharray:5.0,5.0;" x1="962.786" x2="962.786" y1="152.13" y2="908.904"/><line style="stroke:#1D4776;stroke-width:0.5;stroke-dasharray:5.0,5.0;" x1="1059.462" x2="1059.462" y1="152.13" y2="908.904"/><text fill="#002851" font-family="Avenir" font-size="14" font-weight="bold" lengthAdjust="spacing" textLength="88.956" x="5" y="147.006">Travel Agency</text><ellipse cx="52.478" cy="81.506" fill="#FFE599" rx="8" ry="8" style="stroke:#033266;stroke-width:0.5;"/><path d="M52.478,89.506 L52.478,116.506 M39.478,97.506 L65.478,97.506 M52.478,116.506 L39.478,131.506 M52.478,116.506 L65.478,131.506 " fill="none" style="stroke:#033266;stroke-width:0.5;"/><text fill="#002851" font-family="Avenir" font-size="14" font-weight="bold" lengthAdjust="spacing" textLength="82.726" x="125.215" y="147.006">Supply Chain</text><ellipse cx="169.578" cy="81.506" fill="#FFE599" rx="8" ry="8" style="stroke:#033266;stroke-width:0.5;"/><path d="M169.578,89.506 L169.578,116.506 M156.578,97.506 L182.578,97.506 M169.578,116.506 L156.578,131.506 M169.578,116.506 L182.578,131.506 " fill="none" style="stroke:#033266;stroke-width:0.5;"/><text fill="#002851" font-family="Avenir" font-size="14" font-weight="bold" lengthAdjust="spacing" textLength="66.472" x="233.941" y="127.882">KFS/DaFIS</text><text fill="#002851" font-family="Avenir" font-size="14" font-weight="bold" lengthAdjust="spacing" textLength="48.762" x="242.796" y="147.006">(Oracle)</text><path d="M252.177,77.882 C252.177,67.882 270.177,67.882 270.177,67.882 C270.177,67.882 288.177,67.882 288.177,77.882 L288.177,103.882 C288.177,113.882 270.177,113.882 270.177,113.882 C270.177,113.882 252.177,113.882 252.177,103.882 L252.177,77.882 " fill="#FFE599" style="stroke:#000000;stroke-width:1.5;"/><path d="M252.177,77.882 C252.177,87.882 270.177,87.882 270.177,87.882 C270.177,87.882 288.177,87.882 288.177,77.882 " fill="none" style="stroke:#000000;stroke-width:1.5;"/><text fill="#002851" font-family="Avenir" font-size="14" font-weight="bold" lengthAdjust="spacing" textLength="94.724" x="343.905" y="127.882">Concur INT DB</text><text fill="#002851" font-family="Avenir" font-size="14" font-weight="bold" lengthAdjust="spacing" textLength="48.762" x="366.886" y="147.006">(Oracle)</text><path d="M376.267,77.882 C376.267,67.882 394.267,67.882 394.267,67.882 C394.267,67.882 412.267,67.882 412.267,77.882 L412.267,103.882 C412.267,113.882 394.267,113.882 394.267,113.882 C394.267,113.882 376.267,113.882 376.267,103.882 L376.267,77.882 " fill="#FFE599" style="stroke:#000000;stroke-width:1.5;"/><path d="M376.267,77.882 C376.267,87.882 394.267,87.882 394.267,87.882 C394.267,87.882 412.267,87.882 412.267,77.882 " fill="none" style="stroke:#000000;stroke-width:1.5;"/><text fill="#002851" font-family="Avenir" font-size="14" font-weight="bold" lengthAdjust="spacing" textLength="98.784" x="454.629" y="127.882">AggieTravel DB</text><text fill="#002851" font-family="Avenir" font-size="14" font-weight="bold" lengthAdjust="spacing" textLength="52.682" x="477.68" y="147.006">(Mongo)</text><path d="M489.021,77.882 C489.021,67.882 507.021,67.882 507.021,67.882 C507.021,67.882 525.021,67.882 525.021,77.882 L525.021,103.882 C525.021,113.882 507.021,113.882 507.021,113.882 C507.021,113.882 489.021,113.882 489.021,103.882 L489.021,77.882 " fill="#FFE599" style="stroke:#000000;stroke-width:1.5;"/><path d="M489.021,77.882 C489.021,87.882 507.021,87.882 507.021,87.882 C507.021,87.882 525.021,87.882 525.021,77.882 " fill="none" style="stroke:#000000;stroke-width:1.5;"/><rect fill="#FFE599" height="71.372" rx="2.5" ry="2.5" style="stroke:#000000;stroke-width:0.5;" width="59.122" x="579.413" y="79.758"/><text fill="#002851" font-family="Avenir" font-size="14" font-weight="bold" lengthAdjust="spacing" textLength="45.122" x="586.413" y="100.758">Concur</text><text fill="#002851" font-family="Avenir" font-size="14" font-weight="bold" lengthAdjust="spacing" textLength="35.266" x="591.341" y="119.882">Batch</text><text fill="#002851" font-family="Avenir" font-size="14" font-weight="bold" lengthAdjust="spacing" textLength="39.396" x="589.276" y="139.006">Server</text><text fill="#002851" font-family="Avenir" font-size="14" font-weight="bold" lengthAdjust="spacing" textLength="113.358" x="668.535" y="127.882">AE Integration DB</text><text fill="#002851" font-family="Avenir" font-size="14" font-weight="bold" lengthAdjust="spacing" textLength="61.18" x="694.624" y="147.006">(Postgres)</text><path d="M710.214,77.882 C710.214,67.882 728.214,67.882 728.214,67.882 C728.214,67.882 746.214,67.882 746.214,77.882 L746.214,103.882 C746.214,113.882 728.214,113.882 728.214,113.882 C728.214,113.882 710.214,113.882 710.214,103.882 L710.214,77.882 " fill="#FFE599" style="stroke:#000000;stroke-width:1.5;"/><path d="M710.214,77.882 C710.214,87.882 728.214,87.882 728.214,87.882 C728.214,87.882 746.214,87.882 746.214,77.882 " fill="none" style="stroke:#000000;stroke-width:1.5;"/><rect fill="#FFE599" height="33.124" rx="2.5" ry="2.5" style="stroke:#000000;stroke-width:0.5;" width="39.396" x="838.396" y="118.006"/><text fill="#002851" font-family="Avenir" font-size="14" font-weight="bold" lengthAdjust="spacing" textLength="25.396" x="845.396" y="139.006">NiFi</text><rect fill="#FFE599" height="52.248" rx="2.5" ry="2.5" style="stroke:#000000;stroke-width:0.5;" width="74.676" x="925.786" y="98.882"/><text fill="#002851" font-family="Avenir" font-size="14" font-weight="bold" lengthAdjust="spacing" textLength="41.482" x="942.383" y="119.882">Oracle</text><text fill="#002851" font-family="Avenir" font-size="14" font-weight="bold" lengthAdjust="spacing" textLength="60.676" x="932.786" y="139.006">Financials</text><rect fill="#FFE599" height="33.124" rx="2.5" ry="2.5" style="stroke:#000000;stroke-width:0.5;" width="59.122" x="1030.462" y="118.006"/><text fill="#002851" font-family="Avenir" font-size="14" font-weight="bold" lengthAdjust="spacing" textLength="45.122" x="1037.462" y="139.006">Concur</text><polygon fill="#002851" points="157.578,191.45,167.578,195.45,157.578,199.45,161.578,195.45" style="stroke:#002851;stroke-width:1.0;"/><line style="stroke:#002851;stroke-width:2.0;" x1="52.478" x2="163.578" y1="195.45" y2="195.45"/><text fill="#4C4C4C" font-family="Avenir" font-size="10" font-weight="bold" lengthAdjust="spacing" textLength="5.56" x="59.478" y="182.96">1</text><text fill="#4C4C4C" font-family="Avenir" font-size="10" lengthAdjust="spacing" textLength="77.42" x="69.038" y="176.13">Emails Excel/CSV</text><text fill="#4C4C4C" font-family="Avenir" font-size="10" lengthAdjust="spacing" textLength="83.54" x="69.038" y="189.79">of Travel Expenses</text><path d="M91,208.45 L91,235.45 L248,235.45 L248,218.45 L238,208.45 L91,208.45 " fill="#CDD6E0" style="stroke:#1D4776;stroke-width:0.5;"/><path d="M238,208.45 L238,218.45 L248,218.45 L238,208.45 " fill="#CDD6E0" style="stroke:#1D4776;stroke-width:0.5;"/><text fill="#000000" font-family="Avenir" font-size="13" lengthAdjust="spacing" textLength="136.032" x="97" y="226.45">WinBatch / SQL Loader</text><polygon fill="#002851" points="258.177,284.188,268.177,288.188,258.177,292.188,262.177,288.188" style="stroke:#002851;stroke-width:1.0;"/><line style="stroke:#002851;stroke-width:2.0;" x1="169.578" x2="264.177" y1="288.188" y2="288.188"/><text fill="#4C4C4C" font-family="Avenir" font-size="10" font-weight="bold" lengthAdjust="spacing" textLength="5.56" x="176.578" y="268.868">2</text><text fill="#4C4C4C" font-family="Avenir" font-size="10" lengthAdjust="spacing" textLength="60.75" x="186.138" y="255.208">Uploads Data</text><text fill="#4C4C4C" font-family="Avenir" font-size="10" lengthAdjust="spacing" textLength="63.75" x="186.138" y="268.868">into DaFIS-era</text><text fill="#4C4C4C" font-family="Avenir" font-size="10" lengthAdjust="spacing" textLength="62.03" x="186.138" y="282.528">Staging Table</text><rect fill="#CDD6E0" height="3" style="stroke:#CDD6E0;stroke-width:1.0;" width="1104.584" x="0" y="318.75"/><line style="stroke:#002851;stroke-width:1.0;" x1="0" x2="1104.584" y1="318.75" y2="318.75"/><line style="stroke:#002851;stroke-width:1.0;" x1="0" x2="1104.584" y1="321.75" y2="321.75"/><rect fill="#CDD6E0" height="27.124" style="stroke:#002851;stroke-width:2.0;" width="118.776" x="492.904" y="306.188"/><text fill="#000000" font-family="Avenir" font-size="14" font-weight="bold" lengthAdjust="spacing" textLength="100.884" x="498.904" y="324.188">Data Movement</text><polygon fill="#002851" points="382.267,358.972,392.267,362.972,382.267,366.972,386.267,362.972" style="stroke:#002851;stroke-width:1.0;"/><line style="stroke:#002851;stroke-width:2.0;" x1="270.177" x2="388.267" y1="362.972" y2="362.972"/><text fill="#4C4C4C" font-family="Avenir" font-size="10" font-weight="bold" lengthAdjust="spacing" textLength="5.56" x="277.177" y="357.312">3</text><text fill="#4C4C4C" font-family="Avenir" font-size="10" lengthAdjust="spacing" textLength="90.53" x="286.737" y="357.312">Trigger Copies Data</text><polygon fill="#002851" points="405.267,386.632,395.267,390.632,405.267,394.632,401.267,390.632" style="stroke:#002851;stroke-width:1.0;"/><polygon fill="#002851" points="596.974,386.632,606.974,390.632,596.974,394.632,600.974,390.632" style="stroke:#002851;stroke-width:1.0;"/><line style="stroke:#002851;stroke-width:2.0;" x1="399.267" x2="602.974" y1="390.632" y2="390.632"/><text fill="#4C4C4C" font-family="Avenir" font-size="10" font-weight="bold" lengthAdjust="spacing" textLength="5.56" x="411.267" y="384.972">4</text><text fill="#4C4C4C" font-family="Avenir" font-size="10" lengthAdjust="spacing" textLength="82.21" x="420.827" y="384.972">Extracts New Data</text><polygon fill="#002851" points="518.021,414.292,508.021,418.292,518.021,422.292,514.021,418.292" style="stroke:#002851;stroke-width:1.0;"/><line style="stroke:#002851;stroke-width:2.0;" x1="512.021" x2="607.974" y1="418.292" y2="418.292"/><text fill="#4C4C4C" font-family="Avenir" font-size="10" font-weight="bold" lengthAdjust="spacing" textLength="5.56" x="524.021" y="412.632">5</text><text fill="#4C4C4C" font-family="Avenir" font-size="10" lengthAdjust="spacing" textLength="52.81" x="533.581" y="412.632">Inserts Data</text><polygon fill="#002851" points="405.267,441.952,395.267,445.952,405.267,449.952,401.267,445.952" style="stroke:#002851;stroke-width:1.0;"/><polygon fill="#002851" points="846.094,441.952,856.094,445.952,846.094,449.952,850.094,445.952" style="stroke:#002851;stroke-width:1.0;"/><line style="stroke:#002851;stroke-width:2.0;" x1="399.267" x2="852.094" y1="445.952" y2="445.952"/><text fill="#4C4C4C" font-family="Avenir" font-size="10" font-weight="bold" lengthAdjust="spacing" textLength="5.56" x="411.267" y="440.292">6</text><text fill="#4C4C4C" font-family="Avenir" font-size="10" lengthAdjust="spacing" textLength="82.21" x="420.827" y="440.292">Extracts New Data</text><polygon fill="#002851" points="739.214,469.612,729.214,473.612,739.214,477.612,735.214,473.612" style="stroke:#002851;stroke-width:1.0;"/><line style="stroke:#002851;stroke-width:2.0;" x1="733.214" x2="857.094" y1="473.612" y2="473.612"/><text fill="#4C4C4C" font-family="Avenir" font-size="10" font-weight="bold" lengthAdjust="spacing" textLength="5.56" x="745.214" y="467.952">7</text><text fill="#4C4C4C" font-family="Avenir" font-size="10" lengthAdjust="spacing" textLength="52.81" x="754.774" y="467.952">Inserts Data</text><rect fill="#CDD6E0" height="3" style="stroke:#CDD6E0;stroke-width:1.0;" width="1104.584" x="0" y="504.174"/><line style="stroke:#002851;stroke-width:1.0;" x1="0" x2="1104.584" y1="504.174" y2="504.174"/><line style="stroke:#002851;stroke-width:1.0;" x1="0" x2="1104.584" y1="507.174" y2="507.174"/><rect fill="#CDD6E0" height="27.124" style="stroke:#002851;stroke-width:2.0;" width="178.164" x="463.21" y="491.612"/><text fill="#000000" font-family="Avenir" font-size="14" font-weight="bold" lengthAdjust="spacing" textLength="160.272" x="469.21" y="509.612">QuickExpense Processing</text><polygon fill="#002851" points="405.267,544.396,395.267,548.396,405.267,552.396,401.267,548.396" style="stroke:#002851;stroke-width:1.0;"/><polygon fill="#002851" points="596.974,544.396,606.974,548.396,596.974,552.396,600.974,548.396" style="stroke:#002851;stroke-width:1.0;"/><line style="stroke:#002851;stroke-width:2.0;" x1="399.267" x2="602.974" y1="548.396" y2="548.396"/><text fill="#4C4C4C" font-family="Avenir" font-size="10" font-weight="bold" lengthAdjust="spacing" textLength="5.56" x="411.267" y="542.736">8</text><text fill="#4C4C4C" font-family="Avenir" font-size="10" lengthAdjust="spacing" textLength="90.76" x="420.827" y="542.736">Reads Pending Data</text><polygon fill="#002851" points="1048.023,572.056,1058.023,576.056,1048.023,580.056,1052.023,576.056" style="stroke:#002851;stroke-width:1.0;"/><line style="stroke:#002851;stroke-width:2.0;" x1="608.974" x2="1054.023" y1="576.056" y2="576.056"/><text fill="#4C4C4C" font-family="Avenir" font-size="10" font-weight="bold" lengthAdjust="spacing" textLength="5.56" x="615.974" y="570.396">9</text><text fill="#4C4C4C" font-family="Avenir" font-size="10" lengthAdjust="spacing" textLength="164.5" x="625.534" y="570.396">Sends QuickExpense Data to Concur</text><rect fill="#CDD6E0" height="3" style="stroke:#CDD6E0;stroke-width:1.0;" width="1104.584" x="0" y="606.618"/><line style="stroke:#002851;stroke-width:1.0;" x1="0" x2="1104.584" y1="606.618" y2="606.618"/><line style="stroke:#002851;stroke-width:1.0;" x1="0" x2="1104.584" y1="609.618" y2="609.618"/><rect fill="#CDD6E0" height="27.124" style="stroke:#002851;stroke-width:2.0;" width="191.1" x="456.742" y="594.056"/><text fill="#000000" font-family="Avenir" font-size="14" font-weight="bold" lengthAdjust="spacing" textLength="173.208" x="462.742" y="612.056">Default Expense Processing</text><polygon fill="#002851" points="739.214,646.84,729.214,650.84,739.214,654.84,735.214,650.84" style="stroke:#002851;stroke-width:1.0;"/><polygon fill="#002851" points="846.094,646.84,856.094,650.84,846.094,654.84,850.094,650.84" style="stroke:#002851;stroke-width:1.0;"/><line style="stroke:#002851;stroke-width:2.0;" x1="733.214" x2="852.094" y1="650.84" y2="650.84"/><text fill="#4C4C4C" font-family="Avenir" font-size="10" font-weight="bold" lengthAdjust="spacing" textLength="11.12" x="745.214" y="645.18">10</text><text fill="#4C4C4C" font-family="Avenir" font-size="10" lengthAdjust="spacing" textLength="90.76" x="760.334" y="645.18">Reads Pending Data</text><polygon fill="#002851" points="739.214,688.16,729.214,692.16,739.214,696.16,735.214,692.16" style="stroke:#002851;stroke-width:1.0;"/><polygon fill="#002851" points="846.094,688.16,856.094,692.16,846.094,696.16,850.094,692.16" style="stroke:#002851;stroke-width:1.0;"/><line style="stroke:#002851;stroke-width:2.0;" x1="733.214" x2="852.094" y1="692.16" y2="692.16"/><text fill="#4C4C4C" font-family="Avenir" font-size="10" font-weight="bold" lengthAdjust="spacing" textLength="11.12" x="745.214" y="679.67">11</text><text fill="#4C4C4C" font-family="Avenir" font-size="10" lengthAdjust="spacing" textLength="81.65" x="760.334" y="672.84">Gets Cost Centers</text><text fill="#4C4C4C" font-family="Avenir" font-size="10" lengthAdjust="spacing" textLength="49.83" x="760.334" y="686.5">to Expense</text><polygon fill="#002851" points="951.124,729.48,961.124,733.48,951.124,737.48,955.124,733.48" style="stroke:#002851;stroke-width:1.0;"/><line style="stroke:#002851;stroke-width:2.0;" x1="858.094" x2="957.124" y1="733.48" y2="733.48"/><text fill="#4C4C4C" font-family="Avenir" font-size="10" font-weight="bold" lengthAdjust="spacing" textLength="11.12" x="865.094" y="720.99">12</text><text fill="#4C4C4C" font-family="Avenir" font-size="10" lengthAdjust="spacing" textLength="51.29" x="880.214" y="714.16">Submits GL</text><text fill="#4C4C4C" font-family="Avenir" font-size="10" lengthAdjust="spacing" textLength="65.91" x="880.214" y="727.82">Journal Entries</text><rect fill="#CDD6E0" height="3" style="stroke:#CDD6E0;stroke-width:1.0;" width="1104.584" x="0" y="764.042"/><line style="stroke:#002851;stroke-width:1.0;" x1="0" x2="1104.584" y1="764.042" y2="764.042"/><line style="stroke:#002851;stroke-width:1.0;" x1="0" x2="1104.584" y1="767.042" y2="767.042"/><rect fill="#CDD6E0" height="27.124" style="stroke:#002851;stroke-width:2.0;" width="262.43" x="421.077" y="751.48"/><text fill="#000000" font-family="Avenir" font-size="14" font-weight="bold" lengthAdjust="spacing" textLength="244.538" x="427.077" y="769.48">SAE Reconciliation Expense Processing</text><polygon fill="#002851" points="869.094,804.264,859.094,808.264,869.094,812.264,865.094,808.264" style="stroke:#002851;stroke-width:1.0;"/><line style="stroke:#002851;stroke-width:2.0;" x1="863.094" x2="1059.023" y1="808.264" y2="808.264"/><text fill="#4C4C4C" font-family="Avenir" font-size="10" font-weight="bold" lengthAdjust="spacing" textLength="11.12" x="875.094" y="802.604">13</text><text fill="#4C4C4C" font-family="Avenir" font-size="10" lengthAdjust="spacing" textLength="66.88" x="890.214" y="802.604">Sends SAE File</text><polygon fill="#002851" points="739.214,845.584,729.214,849.584,739.214,853.584,735.214,849.584" style="stroke:#002851;stroke-width:1.0;"/><polygon fill="#002851" points="846.094,845.584,856.094,849.584,846.094,853.584,850.094,849.584" style="stroke:#002851;stroke-width:1.0;"/><line style="stroke:#002851;stroke-width:2.0;" x1="733.214" x2="852.094" y1="849.584" y2="849.584"/><text fill="#4C4C4C" font-family="Avenir" font-size="10" font-weight="bold" lengthAdjust="spacing" textLength="11.12" x="745.214" y="837.094">14</text><text fill="#4C4C4C" font-family="Avenir" font-size="10" lengthAdjust="spacing" textLength="81.65" x="760.334" y="830.264">Gets Cost Centers</text><text fill="#4C4C4C" font-family="Avenir" font-size="10" lengthAdjust="spacing" textLength="39.78" x="760.334" y="843.924">to Credit</text><polygon fill="#002851" points="951.124,886.904,961.124,890.904,951.124,894.904,955.124,890.904" style="stroke:#002851;stroke-width:1.0;"/><line style="stroke:#002851;stroke-width:2.0;" x1="858.094" x2="957.124" y1="890.904" y2="890.904"/><text fill="#4C4C4C" font-family="Avenir" font-size="10" font-weight="bold" lengthAdjust="spacing" textLength="11.12" x="865.094" y="878.414">15</text><text fill="#4C4C4C" font-family="Avenir" font-size="10" lengthAdjust="spacing" textLength="51.29" x="880.214" y="871.584">Submits GL</text><text fill="#4C4C4C" font-family="Avenir" font-size="10" lengthAdjust="spacing" textLength="65.91" x="880.214" y="885.244">Journal Entries</text><text fill="#888888" font-family="Avenir" font-size="10" lengthAdjust="spacing" textLength="159.48" x="472.052" y="913.904">Author: Jonathan Keller 2024-10-29</text><!--SRC=[bLHDRnen4BtxLqov93tGVAYNHg4IB10b8H-mjBaWLMQPB5QClVL72F- -OtkJi0cfsjDgFM_Ul7apzYUX2kaN2BvO_B9k8_6By2l9c1DE8amDVqG9tH9LiO4-Tno6Kg-X3Pat1fM3t767iCyjw7kuAPoUeu7Zm-EldzbI4E-zrcwkdrX1O8g4N_fqlLjgSm8NMd6tv0ekKSewiNrqs3x-nXWdCWEjXeGMKA5fzpcM-wgI6yYMNAWMT7F8ioj6rM249IV1vrIpDDm9hI3JgqehKc4Pm88wcNEBqBeSvWTzFZpFPsh_nl12ukV8HESDNAPLuGsSNq-Xttk3fSD-hu7kbgN0Mdc4NsbLweJk9d35ZHE5g3YPMBFFL8-xOZbJEPf7D15TnCWyd3DK2mXURjKPD7gCfMwrTQL1MrSRa3hMA7OjXYB6bBWNpL3gQgQ6Gd5L22vj1Efup7P8tj984_DEAxyA6t34fbreVmy3WHCOhBYG5WPF1Sg3BFyvKxGijJs3fmgLHSiKRGPewhjEkXF93ZY0V3o2aUOBD2p4Y9V6Gv0VbQHJ6nTpfeHo6k8issZedrQp5Ag4AP-JUDRff0M-eXghiBgT3cE1X-ZY18bmQaHPae9CLm8JBzkQ09nkOGTFZcnn5gvn_Hv9m6x2dLDtnjLaAJdG1FDtiiH0I0-JUviVkXXxKJpKji6jqGLQ6_eC_NmaTeB1frlQe83SfJRz4ZGda6qMYRwHkLazw60btdCl7NoW8pPnkjN53W7lC6T8RMQqlf35ryBEmaJh2Y- -f6KCGlry9IZZR3HJ5zeRnMcRb3CqkIWnfzinmT2Na29TaB-w1gzJIHu4Wg6G-AzACuCBuVvJw1ufW4oAi95ZZsP3RwGXtRyzslIyUXj5xa7ZVkr15bVtBhyvZlx610isPT05ix6immMO5AISYAQii_7eZ1xkDTzGxb2RDJVKy2ikNaQw34j7yXz4LGMh9fhQ6MdzuAieicVmKRWDmRVe4lbkrX08DZu_KOIwzLA-Y1QAQ5TnL3Mw_Q7M2LfwpsalcjLV7Tc5V6u_owDbZcQni_WV]--></g></svg>